{
	"asset":
	{
		"version": "2.0",
		"generator": "Unreal Engine 5.8.0"
	},
	"scene": 0,
	"accessors": [
		{
			"bufferView": 0,
			"count": 2880,
			"type": "SCALAR",
			"componentType": 5123
		},
		{
			"bufferView": 1,
			"count": 1950,
			"type": "VEC3",
			"componentType": 5126,
			"min": [
				-1.60845089,
				-9.15527323e-07,
				-1.60836911
			],
			"max": [
				1.60844362,
				9.68091488,
				1.60836911
			]
		},
		{
			"bufferView": 2,
			"count": 1950,
			"type": "VEC3",
			"componentType": 5126
		},
		{
			"bufferView": 3,
			"count": 1950,
			"type": "VEC4",
			"componentType": 5126
		},
		{
			"bufferView": 4,
			"count": 1950,
			"type": "VEC2",
			"componentType": 5126
		},
		{
			"bufferView": 5,
			"count": 1950,
			"type": "VEC2",
			"componentType": 5126
		}
	],
	"buffers": [
		{
			"uri": "SM_AntennaBig_01.bin",
			"byteLength": 114960
		}
	],
	"bufferViews": [
		{
			"buffer": 0,
			"byteLength": 5760,
			"target": 34963
		},
		{
			"buffer": 0,
			"byteLength": 23400,
			"byteOffset": 5760,
			"target": 34962
		},
		{
			"buffer": 0,
			"byteLength": 23400,
			"byteOffset": 29160,
			"target": 34962
		},
		{
			"buffer": 0,
			"byteLength": 31200,
			"byteOffset": 52560,
			"target": 34962
		},
		{
			"buffer": 0,
			"byteLength": 15600,
			"byteOffset": 83760,
			"target": 34962
		},
		{
			"buffer": 0,
			"byteLength": 15600,
			"byteOffset": 99360,
			"target": 34962
		}
	],
	"images": [
		{
			"uri": "MI_ColorPalette_MetallicRoughness.png"
		},
		{
			"uri": "T_colorPalette2048.png"
		}
	],
	"materials": [
		{
			"name": "MI_ColorPalette",
			"pbrMetallicRoughness":
			{
				"baseColorTexture":
				{
					"index": 0
				},
				"metallicRoughnessTexture":
				{
					"index": 1
				}
			},
			"doubleSided": true
		}
	],
	"meshes": [
		{
			"name": "SM_AntennaBig_01",
			"primitives": [
				{
					"attributes":
					{
						"POSITION": 1,
						"NORMAL": 2,
						"TANGENT": 3,
						"TEXCOORD_0": 4,
						"TEXCOORD_1": 5
					},
					"indices": 0,
					"material": 0
				}
			]
		}
	],
	"nodes": [
		{
			"mesh": 0
		}
	],
	"samplers": [
		{
			"minFilter": 9987,
			"magFilter": 9729
		}
	],
	"scenes": [
		{
			"nodes": [
				0
			]
		}
	],
	"textures": [
		{
			"name": "T_colorPalette2048",
			"sampler": 0,
			"source": 1
		},
		{
			"name": "MI_ColorPalette_MetallicRoughness",
			"sampler": 0,
			"source": 0
		}
	]
}