{
	"asset":
	{
		"version": "2.0",
		"generator": "Unreal Engine 5.8.0"
	},
	"scene": 0,
	"accessors": [
		{
			"bufferView": 0,
			"count": 1488,
			"type": "SCALAR",
			"componentType": 5123
		},
		{
			"bufferView": 1,
			"count": 1024,
			"type": "VEC3",
			"componentType": 5126,
			"min": [
				-2.54022825e-06,
				-0.316456586,
				-0.5388574
			],
			"max": [
				0.424740702,
				0.316456586,
				0.538852692
			]
		},
		{
			"bufferView": 2,
			"count": 1024,
			"type": "VEC3",
			"componentType": 5126
		},
		{
			"bufferView": 3,
			"count": 1024,
			"type": "VEC4",
			"componentType": 5126
		},
		{
			"bufferView": 4,
			"count": 1024,
			"type": "VEC2",
			"componentType": 5126
		},
		{
			"bufferView": 5,
			"count": 1024,
			"type": "VEC2",
			"componentType": 5126
		}
	],
	"buffers": [
		{
			"uri": "SM_airCondition_01.bin",
			"byteLength": 60320
		}
	],
	"bufferViews": [
		{
			"buffer": 0,
			"byteLength": 2976,
			"target": 34963
		},
		{
			"buffer": 0,
			"byteLength": 12288,
			"byteOffset": 2976,
			"target": 34962
		},
		{
			"buffer": 0,
			"byteLength": 12288,
			"byteOffset": 15264,
			"target": 34962
		},
		{
			"buffer": 0,
			"byteLength": 16384,
			"byteOffset": 27552,
			"target": 34962
		},
		{
			"buffer": 0,
			"byteLength": 8192,
			"byteOffset": 43936,
			"target": 34962
		},
		{
			"buffer": 0,
			"byteLength": 8192,
			"byteOffset": 52128,
			"target": 34962
		}
	],
	"images": [
		{
			"uri": "MI_ColorPalette_MetallicRoughness.png"
		},
		{
			"uri": "T_colorPalette2048.png"
		}
	],
	"materials": [
		{
			"name": "MI_ColorPalette",
			"pbrMetallicRoughness":
			{
				"baseColorTexture":
				{
					"index": 0
				},
				"metallicRoughnessTexture":
				{
					"index": 1
				}
			},
			"doubleSided": true
		}
	],
	"meshes": [
		{
			"name": "SM_airCondition_01",
			"primitives": [
				{
					"attributes":
					{
						"POSITION": 1,
						"NORMAL": 2,
						"TANGENT": 3,
						"TEXCOORD_0": 4,
						"TEXCOORD_1": 5
					},
					"indices": 0,
					"material": 0
				}
			]
		}
	],
	"nodes": [
		{
			"mesh": 0
		}
	],
	"samplers": [
		{
			"minFilter": 9987,
			"magFilter": 9729
		}
	],
	"scenes": [
		{
			"nodes": [
				0
			]
		}
	],
	"textures": [
		{
			"name": "T_colorPalette2048",
			"sampler": 0,
			"source": 1
		},
		{
			"name": "MI_ColorPalette_MetallicRoughness",
			"sampler": 0,
			"source": 0
		}
	]
}