{
	"asset":
	{
		"version": "2.0",
		"generator": "Unreal Engine 5.8.0"
	},
	"scene": 0,
	"accessors": [
		{
			"bufferView": 0,
			"count": 2289,
			"type": "SCALAR",
			"componentType": 5123
		},
		{
			"bufferView": 1,
			"count": 869,
			"type": "VEC3",
			"componentType": 5126,
			"min": [
				-9.53674295e-09,
				-0.700000644,
				-4
			],
			"max": [
				0.109609522,
				0.700000644,
				4
			]
		},
		{
			"bufferView": 2,
			"count": 869,
			"type": "VEC3",
			"componentType": 5126
		},
		{
			"bufferView": 3,
			"count": 869,
			"type": "VEC4",
			"componentType": 5126
		},
		{
			"bufferView": 4,
			"count": 869,
			"type": "VEC2",
			"componentType": 5126
		},
		{
			"bufferView": 5,
			"count": 869,
			"type": "VEC2",
			"componentType": 5126
		}
	],
	"buffers": [
		{
			"uri": "SM_billboard_Liquor.bin",
			"byteLength": 53244
		}
	],
	"bufferViews": [
		{
			"buffer": 0,
			"byteLength": 4578,
			"target": 34963
		},
		{
			"buffer": 0,
			"byteLength": 10428,
			"byteOffset": 4580,
			"target": 34962
		},
		{
			"buffer": 0,
			"byteLength": 10428,
			"byteOffset": 15008,
			"target": 34962
		},
		{
			"buffer": 0,
			"byteLength": 13904,
			"byteOffset": 25436,
			"target": 34962
		},
		{
			"buffer": 0,
			"byteLength": 6952,
			"byteOffset": 39340,
			"target": 34962
		},
		{
			"buffer": 0,
			"byteLength": 6952,
			"byteOffset": 46292,
			"target": 34962
		}
	],
	"images": [
		{
			"uri": "MI_ColorPalette_MetallicRoughness.png"
		},
		{
			"uri": "T_colorPalette2048.png"
		}
	],
	"materials": [
		{
			"name": "MI_ColorPalette",
			"pbrMetallicRoughness":
			{
				"baseColorTexture":
				{
					"index": 0
				},
				"metallicRoughnessTexture":
				{
					"index": 1
				}
			},
			"doubleSided": true
		}
	],
	"meshes": [
		{
			"name": "SM_billboard_Liquor",
			"primitives": [
				{
					"attributes":
					{
						"POSITION": 1,
						"NORMAL": 2,
						"TANGENT": 3,
						"TEXCOORD_0": 4,
						"TEXCOORD_1": 5
					},
					"indices": 0,
					"material": 0
				}
			]
		}
	],
	"nodes": [
		{
			"mesh": 0
		}
	],
	"samplers": [
		{
			"minFilter": 9987,
			"magFilter": 9729
		}
	],
	"scenes": [
		{
			"nodes": [
				0
			]
		}
	],
	"textures": [
		{
			"name": "T_colorPalette2048",
			"sampler": 0,
			"source": 1
		},
		{
			"name": "MI_ColorPalette_MetallicRoughness",
			"sampler": 0,
			"source": 0
		}
	]
}