{
	"asset":
	{
		"version": "2.0",
		"generator": "Unreal Engine 5.8.0"
	},
	"scene": 0,
	"accessors": [
		{
			"bufferView": 0,
			"count": 1692,
			"type": "SCALAR",
			"componentType": 5123
		},
		{
			"bufferView": 1,
			"count": 1422,
			"type": "VEC3",
			"componentType": 5126,
			"min": [
				-0.199754342,
				-9.41114071e-18,
				-0.20198001
			],
			"max": [
				0.200083882,
				0.407096922,
				0.187683672
			]
		},
		{
			"bufferView": 2,
			"count": 1422,
			"type": "VEC3",
			"componentType": 5126
		},
		{
			"bufferView": 3,
			"count": 1422,
			"type": "VEC4",
			"componentType": 5126
		},
		{
			"bufferView": 4,
			"count": 1422,
			"type": "VEC2",
			"componentType": 5126
		},
		{
			"bufferView": 5,
			"count": 1422,
			"type": "VEC2",
			"componentType": 5126
		}
	],
	"buffers": [
		{
			"uri": "SM_bucket_metal.bin",
			"byteLength": 83016
		}
	],
	"bufferViews": [
		{
			"buffer": 0,
			"byteLength": 3384,
			"target": 34963
		},
		{
			"buffer": 0,
			"byteLength": 17064,
			"byteOffset": 3384,
			"target": 34962
		},
		{
			"buffer": 0,
			"byteLength": 17064,
			"byteOffset": 20448,
			"target": 34962
		},
		{
			"buffer": 0,
			"byteLength": 22752,
			"byteOffset": 37512,
			"target": 34962
		},
		{
			"buffer": 0,
			"byteLength": 11376,
			"byteOffset": 60264,
			"target": 34962
		},
		{
			"buffer": 0,
			"byteLength": 11376,
			"byteOffset": 71640,
			"target": 34962
		}
	],
	"images": [
		{
			"uri": "MI_ColorPalette_MetallicRoughness.png"
		},
		{
			"uri": "T_colorPalette2048.png"
		}
	],
	"materials": [
		{
			"name": "MI_ColorPalette",
			"pbrMetallicRoughness":
			{
				"baseColorTexture":
				{
					"index": 0
				},
				"metallicRoughnessTexture":
				{
					"index": 1
				}
			},
			"doubleSided": true
		}
	],
	"meshes": [
		{
			"name": "SM_bucket_metal",
			"primitives": [
				{
					"attributes":
					{
						"POSITION": 1,
						"NORMAL": 2,
						"TANGENT": 3,
						"TEXCOORD_0": 4,
						"TEXCOORD_1": 5
					},
					"indices": 0,
					"material": 0
				}
			]
		}
	],
	"nodes": [
		{
			"mesh": 0
		}
	],
	"samplers": [
		{
			"minFilter": 9987,
			"magFilter": 9729
		}
	],
	"scenes": [
		{
			"nodes": [
				0
			]
		}
	],
	"textures": [
		{
			"name": "T_colorPalette2048",
			"sampler": 0,
			"source": 1
		},
		{
			"name": "MI_ColorPalette_MetallicRoughness",
			"sampler": 0,
			"source": 0
		}
	]
}