{
	"asset":
	{
		"version": "2.0",
		"generator": "Unreal Engine 5.8.0"
	},
	"scene": 0,
	"accessors": [
		{
			"bufferView": 0,
			"count": 3024,
			"type": "SCALAR",
			"componentType": 5123
		},
		{
			"bufferView": 1,
			"count": 1922,
			"type": "VEC3",
			"componentType": 5126,
			"min": [
				-0.497233987,
				-0.00372621533,
				-0.728824914
			],
			"max": [
				0.407752097,
				1.41602385,
				0.931047142
			]
		},
		{
			"bufferView": 2,
			"count": 1922,
			"type": "VEC3",
			"componentType": 5126
		},
		{
			"bufferView": 3,
			"count": 1922,
			"type": "VEC4",
			"componentType": 5126
		},
		{
			"bufferView": 4,
			"count": 1922,
			"type": "VEC2",
			"componentType": 5126
		},
		{
			"bufferView": 5,
			"count": 1922,
			"type": "VEC2",
			"componentType": 5126
		}
	],
	"buffers": [
		{
			"uri": "SM_box_tray.bin",
			"byteLength": 113680
		}
	],
	"bufferViews": [
		{
			"buffer": 0,
			"byteLength": 6048,
			"target": 34963
		},
		{
			"buffer": 0,
			"byteLength": 23064,
			"byteOffset": 6048,
			"target": 34962
		},
		{
			"buffer": 0,
			"byteLength": 23064,
			"byteOffset": 29112,
			"target": 34962
		},
		{
			"buffer": 0,
			"byteLength": 30752,
			"byteOffset": 52176,
			"target": 34962
		},
		{
			"buffer": 0,
			"byteLength": 15376,
			"byteOffset": 82928,
			"target": 34962
		},
		{
			"buffer": 0,
			"byteLength": 15376,
			"byteOffset": 98304,
			"target": 34962
		}
	],
	"images": [
		{
			"uri": "M_BaseColorPalette_MetallicRoughness.png"
		},
		{
			"uri": "T_colorPalette2048.png"
		}
	],
	"materials": [
		{
			"name": "M_BaseColorPalette",
			"pbrMetallicRoughness":
			{
				"baseColorTexture":
				{
					"index": 0
				},
				"metallicRoughnessTexture":
				{
					"index": 1
				}
			},
			"doubleSided": true
		}
	],
	"meshes": [
		{
			"name": "SM_box_tray",
			"primitives": [
				{
					"attributes":
					{
						"POSITION": 1,
						"NORMAL": 2,
						"TANGENT": 3,
						"TEXCOORD_0": 4,
						"TEXCOORD_1": 5
					},
					"indices": 0,
					"material": 0
				}
			]
		}
	],
	"nodes": [
		{
			"mesh": 0
		}
	],
	"samplers": [
		{
			"minFilter": 9987,
			"magFilter": 9729
		}
	],
	"scenes": [
		{
			"nodes": [
				0
			]
		}
	],
	"textures": [
		{
			"name": "T_colorPalette2048",
			"sampler": 0,
			"source": 1
		},
		{
			"name": "M_BaseColorPalette_MetallicRoughness",
			"sampler": 0,
			"source": 0
		}
	]
}