{
	"asset":
	{
		"version": "2.0",
		"generator": "Unreal Engine 5.8.0"
	},
	"scene": 0,
	"accessors": [
		{
			"bufferView": 0,
			"count": 519,
			"type": "SCALAR",
			"componentType": 5121
		},
		{
			"bufferView": 1,
			"count": 201,
			"type": "VEC3",
			"componentType": 5126,
			"min": [
				-1.32768307e-07,
				-0.787499964,
				-1.125
			],
			"max": [
				0.0824999809,
				0.787499964,
				1.125
			]
		},
		{
			"bufferView": 2,
			"count": 201,
			"type": "VEC3",
			"componentType": 5126
		},
		{
			"bufferView": 3,
			"count": 201,
			"type": "VEC4",
			"componentType": 5126
		},
		{
			"bufferView": 4,
			"count": 201,
			"type": "VEC2",
			"componentType": 5126
		},
		{
			"bufferView": 5,
			"count": 201,
			"type": "VEC2",
			"componentType": 5126
		}
	],
	"buffers": [
		{
			"uri": "SM_billboard_forSale.bin",
			"byteLength": 11776
		}
	],
	"bufferViews": [
		{
			"buffer": 0,
			"byteLength": 519,
			"target": 34963
		},
		{
			"buffer": 0,
			"byteLength": 2412,
			"byteOffset": 520,
			"target": 34962
		},
		{
			"buffer": 0,
			"byteLength": 2412,
			"byteOffset": 2932,
			"target": 34962
		},
		{
			"buffer": 0,
			"byteLength": 3216,
			"byteOffset": 5344,
			"target": 34962
		},
		{
			"buffer": 0,
			"byteLength": 1608,
			"byteOffset": 8560,
			"target": 34962
		},
		{
			"buffer": 0,
			"byteLength": 1608,
			"byteOffset": 10168,
			"target": 34962
		}
	],
	"images": [
		{
			"uri": "MI_ColorPalette_MetallicRoughness.png"
		},
		{
			"uri": "T_colorPalette2048.png"
		}
	],
	"materials": [
		{
			"name": "MI_ColorPalette",
			"pbrMetallicRoughness":
			{
				"baseColorTexture":
				{
					"index": 0
				},
				"metallicRoughnessTexture":
				{
					"index": 1
				}
			},
			"doubleSided": true
		}
	],
	"meshes": [
		{
			"name": "SM_billboard_forSale",
			"primitives": [
				{
					"attributes":
					{
						"POSITION": 1,
						"NORMAL": 2,
						"TANGENT": 3,
						"TEXCOORD_0": 4,
						"TEXCOORD_1": 5
					},
					"indices": 0,
					"material": 0
				}
			]
		}
	],
	"nodes": [
		{
			"mesh": 0
		}
	],
	"samplers": [
		{
			"minFilter": 9987,
			"magFilter": 9729
		}
	],
	"scenes": [
		{
			"nodes": [
				0
			]
		}
	],
	"textures": [
		{
			"name": "T_colorPalette2048",
			"sampler": 0,
			"source": 1
		},
		{
			"name": "MI_ColorPalette_MetallicRoughness",
			"sampler": 0,
			"source": 0
		}
	]
}