{
	"asset":
	{
		"version": "2.0",
		"generator": "Unreal Engine 5.8.0"
	},
	"scene": 0,
	"accessors": [
		{
			"bufferView": 0,
			"count": 2004,
			"type": "SCALAR",
			"componentType": 5123
		},
		{
			"bufferView": 1,
			"count": 748,
			"type": "VEC3",
			"componentType": 5126,
			"min": [
				-1.43051144e-08,
				-0.800000489,
				-3.5
			],
			"max": [
				0.139033318,
				0.800000489,
				3.5
			]
		},
		{
			"bufferView": 2,
			"count": 748,
			"type": "VEC3",
			"componentType": 5126
		},
		{
			"bufferView": 3,
			"count": 748,
			"type": "VEC4",
			"componentType": 5126
		},
		{
			"bufferView": 4,
			"count": 748,
			"type": "VEC2",
			"componentType": 5126
		},
		{
			"bufferView": 5,
			"count": 748,
			"type": "VEC2",
			"componentType": 5126
		}
	],
	"buffers": [
		{
			"uri": "SM_billboard_FruitMarket.bin",
			"byteLength": 45896
		}
	],
	"bufferViews": [
		{
			"buffer": 0,
			"byteLength": 4008,
			"target": 34963
		},
		{
			"buffer": 0,
			"byteLength": 8976,
			"byteOffset": 4008,
			"target": 34962
		},
		{
			"buffer": 0,
			"byteLength": 8976,
			"byteOffset": 12984,
			"target": 34962
		},
		{
			"buffer": 0,
			"byteLength": 11968,
			"byteOffset": 21960,
			"target": 34962
		},
		{
			"buffer": 0,
			"byteLength": 5984,
			"byteOffset": 33928,
			"target": 34962
		},
		{
			"buffer": 0,
			"byteLength": 5984,
			"byteOffset": 39912,
			"target": 34962
		}
	],
	"images": [
		{
			"uri": "MI_ColorPalette_MetallicRoughness.png"
		},
		{
			"uri": "T_colorPalette2048.png"
		}
	],
	"materials": [
		{
			"name": "MI_ColorPalette",
			"pbrMetallicRoughness":
			{
				"baseColorTexture":
				{
					"index": 0
				},
				"metallicRoughnessTexture":
				{
					"index": 1
				}
			},
			"doubleSided": true
		}
	],
	"meshes": [
		{
			"name": "SM_billboard_FruitMarket",
			"primitives": [
				{
					"attributes":
					{
						"POSITION": 1,
						"NORMAL": 2,
						"TANGENT": 3,
						"TEXCOORD_0": 4,
						"TEXCOORD_1": 5
					},
					"indices": 0,
					"material": 0
				}
			]
		}
	],
	"nodes": [
		{
			"mesh": 0
		}
	],
	"samplers": [
		{
			"minFilter": 9987,
			"magFilter": 9729
		}
	],
	"scenes": [
		{
			"nodes": [
				0
			]
		}
	],
	"textures": [
		{
			"name": "T_colorPalette2048",
			"sampler": 0,
			"source": 1
		},
		{
			"name": "MI_ColorPalette_MetallicRoughness",
			"sampler": 0,
			"source": 0
		}
	]
}