{
	"asset":
	{
		"version": "2.0",
		"generator": "Unreal Engine 5.8.0"
	},
	"scene": 0,
	"accessors": [
		{
			"bufferView": 0,
			"count": 948,
			"type": "SCALAR",
			"componentType": 5123
		},
		{
			"bufferView": 1,
			"count": 749,
			"type": "VEC3",
			"componentType": 5126,
			"min": [
				-0.362147748,
				-2.15674358e-17,
				-0.362147748
			],
			"max": [
				0.362147748,
				0.933760345,
				0.362147748
			]
		},
		{
			"bufferView": 2,
			"count": 749,
			"type": "VEC3",
			"componentType": 5126
		},
		{
			"bufferView": 3,
			"count": 749,
			"type": "VEC4",
			"componentType": 5126
		},
		{
			"bufferView": 4,
			"count": 749,
			"type": "VEC2",
			"componentType": 5126
		},
		{
			"bufferView": 5,
			"count": 749,
			"type": "VEC2",
			"componentType": 5126
		}
	],
	"buffers": [
		{
			"uri": "SM_barrel_3.bin",
			"byteLength": 43840
		}
	],
	"bufferViews": [
		{
			"buffer": 0,
			"byteLength": 1896,
			"target": 34963
		},
		{
			"buffer": 0,
			"byteLength": 8988,
			"byteOffset": 1896,
			"target": 34962
		},
		{
			"buffer": 0,
			"byteLength": 8988,
			"byteOffset": 10884,
			"target": 34962
		},
		{
			"buffer": 0,
			"byteLength": 11984,
			"byteOffset": 19872,
			"target": 34962
		},
		{
			"buffer": 0,
			"byteLength": 5992,
			"byteOffset": 31856,
			"target": 34962
		},
		{
			"buffer": 0,
			"byteLength": 5992,
			"byteOffset": 37848,
			"target": 34962
		}
	],
	"images": [
		{
			"uri": "MI_ColorPalette_MetallicRoughness.png"
		},
		{
			"uri": "T_colorPalette2048.png"
		}
	],
	"materials": [
		{
			"name": "MI_ColorPalette",
			"pbrMetallicRoughness":
			{
				"baseColorTexture":
				{
					"index": 0
				},
				"metallicRoughnessTexture":
				{
					"index": 1
				}
			},
			"doubleSided": true
		}
	],
	"meshes": [
		{
			"name": "SM_barrel_3",
			"primitives": [
				{
					"attributes":
					{
						"POSITION": 1,
						"NORMAL": 2,
						"TANGENT": 3,
						"TEXCOORD_0": 4,
						"TEXCOORD_1": 5
					},
					"indices": 0,
					"material": 0
				}
			]
		}
	],
	"nodes": [
		{
			"mesh": 0
		}
	],
	"samplers": [
		{
			"minFilter": 9987,
			"magFilter": 9729
		}
	],
	"scenes": [
		{
			"nodes": [
				0
			]
		}
	],
	"textures": [
		{
			"name": "T_colorPalette2048",
			"sampler": 0,
			"source": 1
		},
		{
			"name": "MI_ColorPalette_MetallicRoughness",
			"sampler": 0,
			"source": 0
		}
	]
}