{
	"asset":
	{
		"version": "2.0",
		"generator": "Unreal Engine 5.8.0"
	},
	"scene": 0,
	"accessors": [
		{
			"bufferView": 0,
			"count": 459,
			"type": "SCALAR",
			"componentType": 5121
		},
		{
			"bufferView": 1,
			"count": 181,
			"type": "VEC3",
			"componentType": 5126,
			"min": [
				-1.32768307e-07,
				-0.787499964,
				-1.125
			],
			"max": [
				0.0824999958,
				0.787499964,
				1.125
			]
		},
		{
			"bufferView": 2,
			"count": 181,
			"type": "VEC3",
			"componentType": 5126
		},
		{
			"bufferView": 3,
			"count": 181,
			"type": "VEC4",
			"componentType": 5126
		},
		{
			"bufferView": 4,
			"count": 181,
			"type": "VEC2",
			"componentType": 5126
		},
		{
			"bufferView": 5,
			"count": 181,
			"type": "VEC2",
			"componentType": 5126
		}
	],
	"buffers": [
		{
			"uri": "SM_billboard_forRent.bin",
			"byteLength": 10596
		}
	],
	"bufferViews": [
		{
			"buffer": 0,
			"byteLength": 459,
			"target": 34963
		},
		{
			"buffer": 0,
			"byteLength": 2172,
			"byteOffset": 460,
			"target": 34962
		},
		{
			"buffer": 0,
			"byteLength": 2172,
			"byteOffset": 2632,
			"target": 34962
		},
		{
			"buffer": 0,
			"byteLength": 2896,
			"byteOffset": 4804,
			"target": 34962
		},
		{
			"buffer": 0,
			"byteLength": 1448,
			"byteOffset": 7700,
			"target": 34962
		},
		{
			"buffer": 0,
			"byteLength": 1448,
			"byteOffset": 9148,
			"target": 34962
		}
	],
	"images": [
		{
			"uri": "MI_ColorPalette_MetallicRoughness.png"
		},
		{
			"uri": "T_colorPalette2048.png"
		}
	],
	"materials": [
		{
			"name": "MI_ColorPalette",
			"pbrMetallicRoughness":
			{
				"baseColorTexture":
				{
					"index": 0
				},
				"metallicRoughnessTexture":
				{
					"index": 1
				}
			},
			"doubleSided": true
		}
	],
	"meshes": [
		{
			"name": "SM_billboard_forRent",
			"primitives": [
				{
					"attributes":
					{
						"POSITION": 1,
						"NORMAL": 2,
						"TANGENT": 3,
						"TEXCOORD_0": 4,
						"TEXCOORD_1": 5
					},
					"indices": 0,
					"material": 0
				}
			]
		}
	],
	"nodes": [
		{
			"mesh": 0
		}
	],
	"samplers": [
		{
			"minFilter": 9987,
			"magFilter": 9729
		}
	],
	"scenes": [
		{
			"nodes": [
				0
			]
		}
	],
	"textures": [
		{
			"name": "T_colorPalette2048",
			"sampler": 0,
			"source": 1
		},
		{
			"name": "MI_ColorPalette_MetallicRoughness",
			"sampler": 0,
			"source": 0
		}
	]
}