{
	"asset":
	{
		"version": "2.0",
		"generator": "Unreal Engine 5.8.0"
	},
	"scene": 0,
	"accessors": [
		{
			"bufferView": 0,
			"count": 837,
			"type": "SCALAR",
			"componentType": 5123
		},
		{
			"bufferView": 1,
			"count": 331,
			"type": "VEC3",
			"componentType": 5126,
			"min": [
				-0.133005276,
				6.86645478e-07,
				-1.125
			],
			"max": [
				0.0850001201,
				2.27748108,
				1.125
			]
		},
		{
			"bufferView": 2,
			"count": 331,
			"type": "VEC3",
			"componentType": 5126
		},
		{
			"bufferView": 3,
			"count": 331,
			"type": "VEC4",
			"componentType": 5126
		},
		{
			"bufferView": 4,
			"count": 331,
			"type": "VEC2",
			"componentType": 5126
		},
		{
			"bufferView": 5,
			"count": 331,
			"type": "VEC2",
			"componentType": 5126
		}
	],
	"buffers": [
		{
			"uri": "SM_billboard_jobOffers.bin",
			"byteLength": 20212
		}
	],
	"bufferViews": [
		{
			"buffer": 0,
			"byteLength": 1674,
			"target": 34963
		},
		{
			"buffer": 0,
			"byteLength": 3972,
			"byteOffset": 1676,
			"target": 34962
		},
		{
			"buffer": 0,
			"byteLength": 3972,
			"byteOffset": 5648,
			"target": 34962
		},
		{
			"buffer": 0,
			"byteLength": 5296,
			"byteOffset": 9620,
			"target": 34962
		},
		{
			"buffer": 0,
			"byteLength": 2648,
			"byteOffset": 14916,
			"target": 34962
		},
		{
			"buffer": 0,
			"byteLength": 2648,
			"byteOffset": 17564,
			"target": 34962
		}
	],
	"images": [
		{
			"uri": "MI_ColorPalette_MetallicRoughness.png"
		},
		{
			"uri": "T_colorPalette2048.png"
		}
	],
	"materials": [
		{
			"name": "MI_ColorPalette",
			"pbrMetallicRoughness":
			{
				"baseColorTexture":
				{
					"index": 0
				},
				"metallicRoughnessTexture":
				{
					"index": 1
				}
			},
			"doubleSided": true
		}
	],
	"meshes": [
		{
			"name": "SM_billboard_jobOffers",
			"primitives": [
				{
					"attributes":
					{
						"POSITION": 1,
						"NORMAL": 2,
						"TANGENT": 3,
						"TEXCOORD_0": 4,
						"TEXCOORD_1": 5
					},
					"indices": 0,
					"material": 0
				}
			]
		}
	],
	"nodes": [
		{
			"mesh": 0
		}
	],
	"samplers": [
		{
			"minFilter": 9987,
			"magFilter": 9729
		}
	],
	"scenes": [
		{
			"nodes": [
				0
			]
		}
	],
	"textures": [
		{
			"name": "T_colorPalette2048",
			"sampler": 0,
			"source": 1
		},
		{
			"name": "MI_ColorPalette_MetallicRoughness",
			"sampler": 0,
			"source": 0
		}
	]
}