{
	"asset":
	{
		"version": "2.0",
		"generator": "Unreal Engine 5.8.0"
	},
	"scene": 0,
	"accessors": [
		{
			"bufferView": 0,
			"count": 1359,
			"type": "SCALAR",
			"componentType": 5123
		},
		{
			"bufferView": 1,
			"count": 509,
			"type": "VEC3",
			"componentType": 5126,
			"min": [
				-3.0616168e-17,
				-0.500000656,
				-4
			],
			"max": [
				0.119999997,
				0.500000656,
				4
			]
		},
		{
			"bufferView": 2,
			"count": 509,
			"type": "VEC3",
			"componentType": 5126
		},
		{
			"bufferView": 3,
			"count": 509,
			"type": "VEC4",
			"componentType": 5126
		},
		{
			"bufferView": 4,
			"count": 509,
			"type": "VEC2",
			"componentType": 5126
		},
		{
			"bufferView": 5,
			"count": 509,
			"type": "VEC2",
			"componentType": 5126
		}
	],
	"buffers": [
		{
			"uri": "SM_billboard_AmericanBank.bin",
			"byteLength": 31224
		}
	],
	"bufferViews": [
		{
			"buffer": 0,
			"byteLength": 2718,
			"target": 34963
		},
		{
			"buffer": 0,
			"byteLength": 6108,
			"byteOffset": 2720,
			"target": 34962
		},
		{
			"buffer": 0,
			"byteLength": 6108,
			"byteOffset": 8828,
			"target": 34962
		},
		{
			"buffer": 0,
			"byteLength": 8144,
			"byteOffset": 14936,
			"target": 34962
		},
		{
			"buffer": 0,
			"byteLength": 4072,
			"byteOffset": 23080,
			"target": 34962
		},
		{
			"buffer": 0,
			"byteLength": 4072,
			"byteOffset": 27152,
			"target": 34962
		}
	],
	"images": [
		{
			"uri": "MI_ColorPalette_MetallicRoughness.png"
		},
		{
			"uri": "T_colorPalette2048.png"
		}
	],
	"materials": [
		{
			"name": "MI_ColorPalette",
			"pbrMetallicRoughness":
			{
				"baseColorTexture":
				{
					"index": 0
				},
				"metallicRoughnessTexture":
				{
					"index": 1
				}
			},
			"doubleSided": true
		}
	],
	"meshes": [
		{
			"name": "SM_billboard_AmericanBank",
			"primitives": [
				{
					"attributes":
					{
						"POSITION": 1,
						"NORMAL": 2,
						"TANGENT": 3,
						"TEXCOORD_0": 4,
						"TEXCOORD_1": 5
					},
					"indices": 0,
					"material": 0
				}
			]
		}
	],
	"nodes": [
		{
			"mesh": 0
		}
	],
	"samplers": [
		{
			"minFilter": 9987,
			"magFilter": 9729
		}
	],
	"scenes": [
		{
			"nodes": [
				0
			]
		}
	],
	"textures": [
		{
			"name": "T_colorPalette2048",
			"sampler": 0,
			"source": 1
		},
		{
			"name": "MI_ColorPalette_MetallicRoughness",
			"sampler": 0,
			"source": 0
		}
	]
}