{
	"asset":
	{
		"version": "2.0",
		"generator": "Unreal Engine 5.8.0"
	},
	"scene": 0,
	"accessors": [
		{
			"bufferView": 0,
			"count": 771,
			"type": "SCALAR",
			"componentType": 5123
		},
		{
			"bufferView": 1,
			"count": 289,
			"type": "VEC3",
			"componentType": 5126,
			"min": [
				-1.43051144e-08,
				-0.496890604,
				-2.48445082
			],
			"max": [
				0.105581217,
				0.496890604,
				2.48445082
			]
		},
		{
			"bufferView": 2,
			"count": 289,
			"type": "VEC3",
			"componentType": 5126
		},
		{
			"bufferView": 3,
			"count": 289,
			"type": "VEC4",
			"componentType": 5126
		},
		{
			"bufferView": 4,
			"count": 289,
			"type": "VEC2",
			"componentType": 5126
		},
		{
			"bufferView": 5,
			"count": 289,
			"type": "VEC2",
			"componentType": 5126
		}
	],
	"buffers": [
		{
			"uri": "SM_billboard_PawnShop.bin",
			"byteLength": 17728
		}
	],
	"bufferViews": [
		{
			"buffer": 0,
			"byteLength": 1542,
			"target": 34963
		},
		{
			"buffer": 0,
			"byteLength": 3468,
			"byteOffset": 1544,
			"target": 34962
		},
		{
			"buffer": 0,
			"byteLength": 3468,
			"byteOffset": 5012,
			"target": 34962
		},
		{
			"buffer": 0,
			"byteLength": 4624,
			"byteOffset": 8480,
			"target": 34962
		},
		{
			"buffer": 0,
			"byteLength": 2312,
			"byteOffset": 13104,
			"target": 34962
		},
		{
			"buffer": 0,
			"byteLength": 2312,
			"byteOffset": 15416,
			"target": 34962
		}
	],
	"images": [
		{
			"uri": "MI_ColorPalette_MetallicRoughness.png"
		},
		{
			"uri": "T_colorPalette2048.png"
		}
	],
	"materials": [
		{
			"name": "MI_ColorPalette",
			"pbrMetallicRoughness":
			{
				"baseColorTexture":
				{
					"index": 0
				},
				"metallicRoughnessTexture":
				{
					"index": 1
				}
			},
			"doubleSided": true
		}
	],
	"meshes": [
		{
			"name": "SM_billboard_PawnShop",
			"primitives": [
				{
					"attributes":
					{
						"POSITION": 1,
						"NORMAL": 2,
						"TANGENT": 3,
						"TEXCOORD_0": 4,
						"TEXCOORD_1": 5
					},
					"indices": 0,
					"material": 0
				}
			]
		}
	],
	"nodes": [
		{
			"mesh": 0
		}
	],
	"samplers": [
		{
			"minFilter": 9987,
			"magFilter": 9729
		}
	],
	"scenes": [
		{
			"nodes": [
				0
			]
		}
	],
	"textures": [
		{
			"name": "T_colorPalette2048",
			"sampler": 0,
			"source": 1
		},
		{
			"name": "MI_ColorPalette_MetallicRoughness",
			"sampler": 0,
			"source": 0
		}
	]
}