{
	"asset":
	{
		"version": "2.0",
		"generator": "Unreal Engine 5.8.0"
	},
	"scene": 0,
	"accessors": [
		{
			"bufferView": 0,
			"count": 3000,
			"type": "SCALAR",
			"componentType": 5123
		},
		{
			"bufferView": 1,
			"count": 2434,
			"type": "VEC3",
			"componentType": 5126,
			"min": [
				-0.416202396,
				-8.11859706e-17,
				-1.32586753
			],
			"max": [
				0.416202396,
				0.70879513,
				1.32586753
			]
		},
		{
			"bufferView": 2,
			"count": 2434,
			"type": "VEC3",
			"componentType": 5126
		},
		{
			"bufferView": 3,
			"count": 2434,
			"type": "VEC4",
			"componentType": 5126
		},
		{
			"bufferView": 4,
			"count": 2434,
			"type": "VEC2",
			"componentType": 5126
		},
		{
			"bufferView": 5,
			"count": 2434,
			"type": "VEC2",
			"componentType": 5126
		}
	],
	"buffers": [
		{
			"uri": "SM_bike_rack.bin",
			"byteLength": 142304
		}
	],
	"bufferViews": [
		{
			"buffer": 0,
			"byteLength": 6000,
			"target": 34963
		},
		{
			"buffer": 0,
			"byteLength": 29208,
			"byteOffset": 6000,
			"target": 34962
		},
		{
			"buffer": 0,
			"byteLength": 29208,
			"byteOffset": 35208,
			"target": 34962
		},
		{
			"buffer": 0,
			"byteLength": 38944,
			"byteOffset": 64416,
			"target": 34962
		},
		{
			"buffer": 0,
			"byteLength": 19472,
			"byteOffset": 103360,
			"target": 34962
		},
		{
			"buffer": 0,
			"byteLength": 19472,
			"byteOffset": 122832,
			"target": 34962
		}
	],
	"images": [
		{
			"uri": "MI_ColorPalette_MetallicRoughness.png"
		},
		{
			"uri": "T_colorPalette2048.png"
		}
	],
	"materials": [
		{
			"name": "MI_ColorPalette",
			"pbrMetallicRoughness":
			{
				"baseColorTexture":
				{
					"index": 0
				},
				"metallicRoughnessTexture":
				{
					"index": 1
				}
			},
			"doubleSided": true
		}
	],
	"meshes": [
		{
			"name": "SM_bike_rack",
			"primitives": [
				{
					"attributes":
					{
						"POSITION": 1,
						"NORMAL": 2,
						"TANGENT": 3,
						"TEXCOORD_0": 4,
						"TEXCOORD_1": 5
					},
					"indices": 0,
					"material": 0
				}
			]
		}
	],
	"nodes": [
		{
			"mesh": 0
		}
	],
	"samplers": [
		{
			"minFilter": 9987,
			"magFilter": 9729
		}
	],
	"scenes": [
		{
			"nodes": [
				0
			]
		}
	],
	"textures": [
		{
			"name": "T_colorPalette2048",
			"sampler": 0,
			"source": 1
		},
		{
			"name": "MI_ColorPalette_MetallicRoughness",
			"sampler": 0,
			"source": 0
		}
	]
}