{
	"asset":
	{
		"version": "2.0",
		"generator": "Unreal Engine 5.8.0"
	},
	"scene": 0,
	"accessors": [
		{
			"bufferView": 0,
			"count": 960,
			"type": "SCALAR",
			"componentType": 5123
		},
		{
			"bufferView": 1,
			"count": 662,
			"type": "VEC3",
			"componentType": 5126,
			"min": [
				-0.0457764566,
				-4.51233931e-18,
				-0.0736921206
			],
			"max": [
				0.0457764454,
				0.379496366,
				0.0736921206
			]
		},
		{
			"bufferView": 2,
			"count": 662,
			"type": "VEC3",
			"componentType": 5126
		},
		{
			"bufferView": 3,
			"count": 662,
			"type": "VEC4",
			"componentType": 5126
		},
		{
			"bufferView": 4,
			"count": 662,
			"type": "VEC2",
			"componentType": 5126
		},
		{
			"bufferView": 5,
			"count": 662,
			"type": "VEC2",
			"componentType": 5126
		}
	],
	"buffers": [
		{
			"uri": "SM_bottle_2.bin",
			"byteLength": 38992
		}
	],
	"bufferViews": [
		{
			"buffer": 0,
			"byteLength": 1920,
			"target": 34963
		},
		{
			"buffer": 0,
			"byteLength": 7944,
			"byteOffset": 1920,
			"target": 34962
		},
		{
			"buffer": 0,
			"byteLength": 7944,
			"byteOffset": 9864,
			"target": 34962
		},
		{
			"buffer": 0,
			"byteLength": 10592,
			"byteOffset": 17808,
			"target": 34962
		},
		{
			"buffer": 0,
			"byteLength": 5296,
			"byteOffset": 28400,
			"target": 34962
		},
		{
			"buffer": 0,
			"byteLength": 5296,
			"byteOffset": 33696,
			"target": 34962
		}
	],
	"images": [
		{
			"uri": "MI_ColorPalette_MetallicRoughness.png"
		},
		{
			"uri": "T_colorPalette2048.png"
		}
	],
	"materials": [
		{
			"name": "MI_ColorPalette",
			"pbrMetallicRoughness":
			{
				"baseColorTexture":
				{
					"index": 0
				},
				"metallicRoughnessTexture":
				{
					"index": 1
				}
			},
			"doubleSided": true
		}
	],
	"meshes": [
		{
			"name": "SM_bottle_2",
			"primitives": [
				{
					"attributes":
					{
						"POSITION": 1,
						"NORMAL": 2,
						"TANGENT": 3,
						"TEXCOORD_0": 4,
						"TEXCOORD_1": 5
					},
					"indices": 0,
					"material": 0
				}
			]
		}
	],
	"nodes": [
		{
			"mesh": 0
		}
	],
	"samplers": [
		{
			"minFilter": 9987,
			"magFilter": 9729
		}
	],
	"scenes": [
		{
			"nodes": [
				0
			]
		}
	],
	"textures": [
		{
			"name": "T_colorPalette2048",
			"sampler": 0,
			"source": 1
		},
		{
			"name": "MI_ColorPalette_MetallicRoughness",
			"sampler": 0,
			"source": 0
		}
	]
}