{
	"asset":
	{
		"version": "2.0",
		"generator": "Unreal Engine 5.8.0"
	},
	"scene": 0,
	"accessors": [
		{
			"bufferView": 0,
			"count": 3981,
			"type": "SCALAR",
			"componentType": 5123
		},
		{
			"bufferView": 1,
			"count": 2237,
			"type": "VEC3",
			"componentType": 5126,
			"min": [
				-1.48203469e-07,
				-0.00999992806,
				-3.39050007
			],
			"max": [
				0.100000158,
				0.612000167,
				3.39049983
			]
		},
		{
			"bufferView": 2,
			"count": 2237,
			"type": "VEC3",
			"componentType": 5126
		},
		{
			"bufferView": 3,
			"count": 2237,
			"type": "VEC4",
			"componentType": 5126
		},
		{
			"bufferView": 4,
			"count": 2237,
			"type": "VEC2",
			"componentType": 5126
		},
		{
			"bufferView": 5,
			"count": 2237,
			"type": "VEC2",
			"componentType": 5126
		}
	],
	"buffers": [
		{
			"uri": "SM_billboard_AmericanBank_02.bin",
			"byteLength": 133236
		}
	],
	"bufferViews": [
		{
			"buffer": 0,
			"byteLength": 7962,
			"target": 34963
		},
		{
			"buffer": 0,
			"byteLength": 26844,
			"byteOffset": 7964,
			"target": 34962
		},
		{
			"buffer": 0,
			"byteLength": 26844,
			"byteOffset": 34808,
			"target": 34962
		},
		{
			"buffer": 0,
			"byteLength": 35792,
			"byteOffset": 61652,
			"target": 34962
		},
		{
			"buffer": 0,
			"byteLength": 17896,
			"byteOffset": 97444,
			"target": 34962
		},
		{
			"buffer": 0,
			"byteLength": 17896,
			"byteOffset": 115340,
			"target": 34962
		}
	],
	"images": [
		{
			"uri": "MI_ColorPalette_MetallicRoughness.png"
		},
		{
			"uri": "T_colorPalette2048.png"
		}
	],
	"materials": [
		{
			"name": "MI_ColorPalette",
			"pbrMetallicRoughness":
			{
				"baseColorTexture":
				{
					"index": 0
				},
				"metallicRoughnessTexture":
				{
					"index": 1
				}
			},
			"doubleSided": true
		}
	],
	"meshes": [
		{
			"name": "SM_billboard_AmericanBank_02",
			"primitives": [
				{
					"attributes":
					{
						"POSITION": 1,
						"NORMAL": 2,
						"TANGENT": 3,
						"TEXCOORD_0": 4,
						"TEXCOORD_1": 5
					},
					"indices": 0,
					"material": 0
				}
			]
		}
	],
	"nodes": [
		{
			"mesh": 0
		}
	],
	"samplers": [
		{
			"minFilter": 9987,
			"magFilter": 9729
		}
	],
	"scenes": [
		{
			"nodes": [
				0
			]
		}
	],
	"textures": [
		{
			"name": "T_colorPalette2048",
			"sampler": 0,
			"source": 1
		},
		{
			"name": "MI_ColorPalette_MetallicRoughness",
			"sampler": 0,
			"source": 0
		}
	]
}