{
	"asset":
	{
		"version": "2.0",
		"generator": "Unreal Engine 5.8.0"
	},
	"scene": 0,
	"accessors": [
		{
			"bufferView": 0,
			"count": 3867,
			"type": "SCALAR",
			"componentType": 5123
		},
		{
			"bufferView": 1,
			"count": 2657,
			"type": "VEC3",
			"componentType": 5126,
			"min": [
				-0.0500001721,
				-0.976611555,
				-3.48873854
			],
			"max": [
				0.10000018,
				0.976611435,
				3.48873901
			]
		},
		{
			"bufferView": 2,
			"count": 2657,
			"type": "VEC3",
			"componentType": 5126
		},
		{
			"bufferView": 3,
			"count": 2657,
			"type": "VEC4",
			"componentType": 5126
		},
		{
			"bufferView": 4,
			"count": 2657,
			"type": "VEC2",
			"componentType": 5126
		},
		{
			"bufferView": 5,
			"count": 2657,
			"type": "VEC2",
			"componentType": 5126
		}
	],
	"buffers": [
		{
			"uri": "SM_billboard_86Gasoline.bin",
			"byteLength": 156528
		}
	],
	"bufferViews": [
		{
			"buffer": 0,
			"byteLength": 7734,
			"target": 34963
		},
		{
			"buffer": 0,
			"byteLength": 31884,
			"byteOffset": 7736,
			"target": 34962
		},
		{
			"buffer": 0,
			"byteLength": 31884,
			"byteOffset": 39620,
			"target": 34962
		},
		{
			"buffer": 0,
			"byteLength": 42512,
			"byteOffset": 71504,
			"target": 34962
		},
		{
			"buffer": 0,
			"byteLength": 21256,
			"byteOffset": 114016,
			"target": 34962
		},
		{
			"buffer": 0,
			"byteLength": 21256,
			"byteOffset": 135272,
			"target": 34962
		}
	],
	"images": [
		{
			"uri": "MI_ColorPalette_GLOW_MetallicRoughness.png"
		},
		{
			"uri": "MI_ColorPalette_GLOW_Emissive.png"
		},
		{
			"uri": "T_colorPalette2048.png"
		}
	],
	"materials": [
		{
			"name": "MI_ColorPalette_GLOW",
			"pbrMetallicRoughness":
			{
				"baseColorTexture":
				{
					"index": 0
				},
				"metallicRoughnessTexture":
				{
					"index": 1
				}
			},
			"emissiveTexture":
			{
				"index": 2
			},
			"emissiveFactor": [
				1,
				1,
				1
			],
			"doubleSided": true,
			"extensions":
			{
				"KHR_materials_emissive_strength":
				{
					"emissiveStrength": 2
				}
			}
		}
	],
	"meshes": [
		{
			"name": "SM_billboard_86Gasoline",
			"primitives": [
				{
					"attributes":
					{
						"POSITION": 1,
						"NORMAL": 2,
						"TANGENT": 3,
						"TEXCOORD_0": 4,
						"TEXCOORD_1": 5
					},
					"indices": 0,
					"material": 0
				}
			]
		}
	],
	"nodes": [
		{
			"mesh": 0
		}
	],
	"samplers": [
		{
			"minFilter": 9987,
			"magFilter": 9729
		}
	],
	"scenes": [
		{
			"nodes": [
				0
			]
		}
	],
	"textures": [
		{
			"name": "T_colorPalette2048",
			"sampler": 0,
			"source": 2
		},
		{
			"name": "MI_ColorPalette_GLOW_MetallicRoughness",
			"sampler": 0,
			"source": 0
		},
		{
			"name": "MI_ColorPalette_GLOW_Emissive",
			"sampler": 0,
			"source": 1
		}
	],
	"extensionsUsed": [
		"KHR_materials_emissive_strength"
	]
}