{
	"asset":
	{
		"version": "2.0",
		"generator": "Unreal Engine 5.8.0"
	},
	"scene": 0,
	"accessors": [
		{
			"bufferView": 0,
			"count": 684,
			"type": "SCALAR",
			"componentType": 5123
		},
		{
			"bufferView": 1,
			"count": 522,
			"type": "VEC3",
			"componentType": 5126,
			"min": [
				-0.143205747,
				-0.0385186747,
				-2.05951619
			],
			"max": [
				0.143203303,
				0.858423114,
				2.05951571
			]
		},
		{
			"bufferView": 2,
			"count": 522,
			"type": "VEC3",
			"componentType": 5126
		},
		{
			"bufferView": 3,
			"count": 522,
			"type": "VEC4",
			"componentType": 5126
		},
		{
			"bufferView": 4,
			"count": 522,
			"type": "VEC2",
			"componentType": 5126
		},
		{
			"bufferView": 5,
			"count": 522,
			"type": "VEC2",
			"componentType": 5126
		}
	],
	"buffers": [
		{
			"uri": "SM_billboardStand_02_small.bin",
			"byteLength": 30600
		}
	],
	"bufferViews": [
		{
			"buffer": 0,
			"byteLength": 1368,
			"target": 34963
		},
		{
			"buffer": 0,
			"byteLength": 6264,
			"byteOffset": 1368,
			"target": 34962
		},
		{
			"buffer": 0,
			"byteLength": 6264,
			"byteOffset": 7632,
			"target": 34962
		},
		{
			"buffer": 0,
			"byteLength": 8352,
			"byteOffset": 13896,
			"target": 34962
		},
		{
			"buffer": 0,
			"byteLength": 4176,
			"byteOffset": 22248,
			"target": 34962
		},
		{
			"buffer": 0,
			"byteLength": 4176,
			"byteOffset": 26424,
			"target": 34962
		}
	],
	"images": [
		{
			"uri": "MI_ColorPalette_MetallicRoughness.png"
		},
		{
			"uri": "T_colorPalette2048.png"
		}
	],
	"materials": [
		{
			"name": "MI_ColorPalette",
			"pbrMetallicRoughness":
			{
				"baseColorTexture":
				{
					"index": 0
				},
				"metallicRoughnessTexture":
				{
					"index": 1
				}
			},
			"doubleSided": true
		}
	],
	"meshes": [
		{
			"name": "SM_billboardStand_02_small",
			"primitives": [
				{
					"attributes":
					{
						"POSITION": 1,
						"NORMAL": 2,
						"TANGENT": 3,
						"TEXCOORD_0": 4,
						"TEXCOORD_1": 5
					},
					"indices": 0,
					"material": 0
				}
			]
		}
	],
	"nodes": [
		{
			"mesh": 0
		}
	],
	"samplers": [
		{
			"minFilter": 9987,
			"magFilter": 9729
		}
	],
	"scenes": [
		{
			"nodes": [
				0
			]
		}
	],
	"textures": [
		{
			"name": "T_colorPalette2048",
			"sampler": 0,
			"source": 1
		},
		{
			"name": "MI_ColorPalette_MetallicRoughness",
			"sampler": 0,
			"source": 0
		}
	]
}