{
	"asset":
	{
		"version": "2.0",
		"generator": "Unreal Engine 5.8.0"
	},
	"scene": 0,
	"accessors": [
		{
			"bufferView": 0,
			"count": 6732,
			"type": "SCALAR",
			"componentType": 5123
		},
		{
			"bufferView": 1,
			"count": 3516,
			"type": "VEC3",
			"componentType": 5126,
			"min": [
				-0.934438825,
				-0.0158789065,
				-2.05951715
			],
			"max": [
				0.171577543,
				1.40913844,
				2.05951476
			]
		},
		{
			"bufferView": 2,
			"count": 3516,
			"type": "VEC3",
			"componentType": 5126
		},
		{
			"bufferView": 3,
			"count": 3516,
			"type": "VEC4",
			"componentType": 5126
		},
		{
			"bufferView": 4,
			"count": 3516,
			"type": "VEC2",
			"componentType": 5126
		},
		{
			"bufferView": 5,
			"count": 3516,
			"type": "VEC2",
			"componentType": 5126
		}
	],
	"buffers": [
		{
			"uri": "SM_billboard_GasStationOld.bin",
			"byteLength": 210360
		}
	],
	"bufferViews": [
		{
			"buffer": 0,
			"byteLength": 13464,
			"target": 34963
		},
		{
			"buffer": 0,
			"byteLength": 42192,
			"byteOffset": 13464,
			"target": 34962
		},
		{
			"buffer": 0,
			"byteLength": 42192,
			"byteOffset": 55656,
			"target": 34962
		},
		{
			"buffer": 0,
			"byteLength": 56256,
			"byteOffset": 97848,
			"target": 34962
		},
		{
			"buffer": 0,
			"byteLength": 28128,
			"byteOffset": 154104,
			"target": 34962
		},
		{
			"buffer": 0,
			"byteLength": 28128,
			"byteOffset": 182232,
			"target": 34962
		}
	],
	"images": [
		{
			"uri": "MI_ColorPalette_GLOW_MetallicRoughness.png"
		},
		{
			"uri": "MI_ColorPalette_GLOW_Emissive.png"
		},
		{
			"uri": "T_colorPalette2048.png"
		}
	],
	"materials": [
		{
			"name": "MI_ColorPalette_GLOW",
			"pbrMetallicRoughness":
			{
				"baseColorTexture":
				{
					"index": 0
				},
				"metallicRoughnessTexture":
				{
					"index": 1
				}
			},
			"emissiveTexture":
			{
				"index": 2
			},
			"emissiveFactor": [
				1,
				1,
				1
			],
			"doubleSided": true,
			"extensions":
			{
				"KHR_materials_emissive_strength":
				{
					"emissiveStrength": 2
				}
			}
		}
	],
	"meshes": [
		{
			"name": "SM_billboard_GasStationOld",
			"primitives": [
				{
					"attributes":
					{
						"POSITION": 1,
						"NORMAL": 2,
						"TANGENT": 3,
						"TEXCOORD_0": 4,
						"TEXCOORD_1": 5
					},
					"indices": 0,
					"material": 0
				}
			]
		}
	],
	"nodes": [
		{
			"mesh": 0
		}
	],
	"samplers": [
		{
			"minFilter": 9987,
			"magFilter": 9729
		}
	],
	"scenes": [
		{
			"nodes": [
				0
			]
		}
	],
	"textures": [
		{
			"name": "T_colorPalette2048",
			"sampler": 0,
			"source": 2
		},
		{
			"name": "MI_ColorPalette_GLOW_MetallicRoughness",
			"sampler": 0,
			"source": 0
		},
		{
			"name": "MI_ColorPalette_GLOW_Emissive",
			"sampler": 0,
			"source": 1
		}
	],
	"extensionsUsed": [
		"KHR_materials_emissive_strength"
	]
}