{
	"asset":
	{
		"version": "2.0",
		"generator": "Unreal Engine 5.8.0"
	},
	"scene": 0,
	"accessors": [
		{
			"bufferView": 0,
			"count": 1908,
			"type": "SCALAR",
			"componentType": 5123
		},
		{
			"bufferView": 1,
			"count": 1485,
			"type": "VEC3",
			"componentType": 5126,
			"min": [
				-0.359345347,
				-1.83212548e-17,
				-0.359345347
			],
			"max": [
				0.359345347,
				1.06060767,
				0.359345347
			]
		},
		{
			"bufferView": 2,
			"count": 1485,
			"type": "VEC3",
			"componentType": 5126
		},
		{
			"bufferView": 3,
			"count": 1485,
			"type": "VEC4",
			"componentType": 5126
		},
		{
			"bufferView": 4,
			"count": 1485,
			"type": "VEC2",
			"componentType": 5126
		},
		{
			"bufferView": 5,
			"count": 1485,
			"type": "VEC2",
			"componentType": 5126
		}
	],
	"buffers": [
		{
			"uri": "SM_barrel_2.bin",
			"byteLength": 86976
		}
	],
	"bufferViews": [
		{
			"buffer": 0,
			"byteLength": 3816,
			"target": 34963
		},
		{
			"buffer": 0,
			"byteLength": 17820,
			"byteOffset": 3816,
			"target": 34962
		},
		{
			"buffer": 0,
			"byteLength": 17820,
			"byteOffset": 21636,
			"target": 34962
		},
		{
			"buffer": 0,
			"byteLength": 23760,
			"byteOffset": 39456,
			"target": 34962
		},
		{
			"buffer": 0,
			"byteLength": 11880,
			"byteOffset": 63216,
			"target": 34962
		},
		{
			"buffer": 0,
			"byteLength": 11880,
			"byteOffset": 75096,
			"target": 34962
		}
	],
	"images": [
		{
			"uri": "MI_ColorPalette_MetallicRoughness.png"
		},
		{
			"uri": "T_colorPalette2048.png"
		}
	],
	"materials": [
		{
			"name": "MI_ColorPalette",
			"pbrMetallicRoughness":
			{
				"baseColorTexture":
				{
					"index": 0
				},
				"metallicRoughnessTexture":
				{
					"index": 1
				}
			},
			"doubleSided": true
		}
	],
	"meshes": [
		{
			"name": "SM_barrel_2",
			"primitives": [
				{
					"attributes":
					{
						"POSITION": 1,
						"NORMAL": 2,
						"TANGENT": 3,
						"TEXCOORD_0": 4,
						"TEXCOORD_1": 5
					},
					"indices": 0,
					"material": 0
				}
			]
		}
	],
	"nodes": [
		{
			"mesh": 0
		}
	],
	"samplers": [
		{
			"minFilter": 9987,
			"magFilter": 9729
		}
	],
	"scenes": [
		{
			"nodes": [
				0
			]
		}
	],
	"textures": [
		{
			"name": "T_colorPalette2048",
			"sampler": 0,
			"source": 1
		},
		{
			"name": "MI_ColorPalette_MetallicRoughness",
			"sampler": 0,
			"source": 0
		}
	]
}