{
	"asset":
	{
		"version": "2.0",
		"generator": "Unreal Engine 5.8.0"
	},
	"scene": 0,
	"accessors": [
		{
			"bufferView": 0,
			"count": 11484,
			"type": "SCALAR",
			"componentType": 5123
		},
		{
			"bufferView": 1,
			"count": 7460,
			"type": "VEC3",
			"componentType": 5126,
			"min": [
				-0.871201992,
				0.000256189582,
				-0.434625745
			],
			"max": [
				0.982967496,
				1.23796427,
				0.434625924
			]
		},
		{
			"bufferView": 2,
			"count": 7460,
			"type": "VEC3",
			"componentType": 5126
		},
		{
			"bufferView": 3,
			"count": 7460,
			"type": "VEC4",
			"componentType": 5126
		},
		{
			"bufferView": 4,
			"count": 7460,
			"type": "VEC2",
			"componentType": 5126
		},
		{
			"bufferView": 5,
			"count": 7460,
			"type": "VEC2",
			"componentType": 5126
		}
	],
	"buffers": [
		{
			"uri": "SM_Bicycle_01.bin",
			"byteLength": 440728
		}
	],
	"bufferViews": [
		{
			"buffer": 0,
			"byteLength": 22968,
			"target": 34963
		},
		{
			"buffer": 0,
			"byteLength": 89520,
			"byteOffset": 22968,
			"target": 34962
		},
		{
			"buffer": 0,
			"byteLength": 89520,
			"byteOffset": 112488,
			"target": 34962
		},
		{
			"buffer": 0,
			"byteLength": 119360,
			"byteOffset": 202008,
			"target": 34962
		},
		{
			"buffer": 0,
			"byteLength": 59680,
			"byteOffset": 321368,
			"target": 34962
		},
		{
			"buffer": 0,
			"byteLength": 59680,
			"byteOffset": 381048,
			"target": 34962
		}
	],
	"images": [
		{
			"uri": "MI_ColorPalette_MetallicRoughness.png"
		},
		{
			"uri": "T_colorPalette2048.png"
		}
	],
	"materials": [
		{
			"name": "MI_ColorPalette",
			"pbrMetallicRoughness":
			{
				"baseColorTexture":
				{
					"index": 0
				},
				"metallicRoughnessTexture":
				{
					"index": 1
				}
			},
			"doubleSided": true
		}
	],
	"meshes": [
		{
			"name": "SM_Bicycle_01",
			"primitives": [
				{
					"attributes":
					{
						"POSITION": 1,
						"NORMAL": 2,
						"TANGENT": 3,
						"TEXCOORD_0": 4,
						"TEXCOORD_1": 5
					},
					"indices": 0,
					"material": 0
				}
			]
		}
	],
	"nodes": [
		{
			"mesh": 0
		}
	],
	"samplers": [
		{
			"minFilter": 9987,
			"magFilter": 9729
		}
	],
	"scenes": [
		{
			"nodes": [
				0
			]
		}
	],
	"textures": [
		{
			"name": "T_colorPalette2048",
			"sampler": 0,
			"source": 1
		},
		{
			"name": "MI_ColorPalette_MetallicRoughness",
			"sampler": 0,
			"source": 0
		}
	]
}