{
	"asset":
	{
		"version": "2.0",
		"generator": "Unreal Engine 5.8.0"
	},
	"scene": 0,
	"accessors": [
		{
			"bufferView": 0,
			"count": 552,
			"type": "SCALAR",
			"componentType": 5123
		},
		{
			"bufferView": 1,
			"count": 359,
			"type": "VEC3",
			"componentType": 5126,
			"min": [
				-0.323108822,
				-0.0052783913,
				-0.32838726
			],
			"max": [
				0.323108822,
				0.651496112,
				0.32838726
			]
		},
		{
			"bufferView": 2,
			"count": 359,
			"type": "VEC3",
			"componentType": 5126
		},
		{
			"bufferView": 3,
			"count": 359,
			"type": "VEC4",
			"componentType": 5126
		},
		{
			"bufferView": 4,
			"count": 359,
			"type": "VEC2",
			"componentType": 5126
		},
		{
			"bufferView": 5,
			"count": 359,
			"type": "VEC2",
			"componentType": 5126
		}
	],
	"buffers": [
		{
			"uri": "SM_box.bin",
			"byteLength": 21208
		}
	],
	"bufferViews": [
		{
			"buffer": 0,
			"byteLength": 1104,
			"target": 34963
		},
		{
			"buffer": 0,
			"byteLength": 4308,
			"byteOffset": 1104,
			"target": 34962
		},
		{
			"buffer": 0,
			"byteLength": 4308,
			"byteOffset": 5412,
			"target": 34962
		},
		{
			"buffer": 0,
			"byteLength": 5744,
			"byteOffset": 9720,
			"target": 34962
		},
		{
			"buffer": 0,
			"byteLength": 2872,
			"byteOffset": 15464,
			"target": 34962
		},
		{
			"buffer": 0,
			"byteLength": 2872,
			"byteOffset": 18336,
			"target": 34962
		}
	],
	"images": [
		{
			"uri": "M_BaseColorPalette_MetallicRoughness.png"
		},
		{
			"uri": "T_colorPalette2048.png"
		}
	],
	"materials": [
		{
			"name": "M_BaseColorPalette",
			"pbrMetallicRoughness":
			{
				"baseColorTexture":
				{
					"index": 0
				},
				"metallicRoughnessTexture":
				{
					"index": 1
				}
			},
			"doubleSided": true
		}
	],
	"meshes": [
		{
			"name": "SM_box",
			"primitives": [
				{
					"attributes":
					{
						"POSITION": 1,
						"NORMAL": 2,
						"TANGENT": 3,
						"TEXCOORD_0": 4,
						"TEXCOORD_1": 5
					},
					"indices": 0,
					"material": 0
				}
			]
		}
	],
	"nodes": [
		{
			"mesh": 0
		}
	],
	"samplers": [
		{
			"minFilter": 9987,
			"magFilter": 9729
		}
	],
	"scenes": [
		{
			"nodes": [
				0
			]
		}
	],
	"textures": [
		{
			"name": "T_colorPalette2048",
			"sampler": 0,
			"source": 1
		},
		{
			"name": "M_BaseColorPalette_MetallicRoughness",
			"sampler": 0,
			"source": 0
		}
	]
}