{
	"asset":
	{
		"version": "2.0",
		"generator": "Unreal Engine 5.8.0"
	},
	"scene": 0,
	"accessors": [
		{
			"bufferView": 0,
			"count": 318,
			"type": "SCALAR",
			"componentType": 5121
		},
		{
			"bufferView": 1,
			"count": 212,
			"type": "VEC3",
			"componentType": 5126,
			"min": [
				-0.401652902,
				-0.000438705261,
				-0.424902767
			],
			"max": [
				0.401652902,
				2.13643789,
				0.425115764
			]
		},
		{
			"bufferView": 2,
			"count": 212,
			"type": "VEC3",
			"componentType": 5126
		},
		{
			"bufferView": 3,
			"count": 212,
			"type": "VEC4",
			"componentType": 5126
		},
		{
			"bufferView": 4,
			"count": 212,
			"type": "VEC2",
			"componentType": 5126
		},
		{
			"bufferView": 5,
			"count": 212,
			"type": "VEC2",
			"componentType": 5126
		}
	],
	"buffers": [
		{
			"uri": "SM_construction_sign.bin",
			"byteLength": 12192
		}
	],
	"bufferViews": [
		{
			"buffer": 0,
			"byteLength": 318,
			"target": 34963
		},
		{
			"buffer": 0,
			"byteLength": 2544,
			"byteOffset": 320,
			"target": 34962
		},
		{
			"buffer": 0,
			"byteLength": 2544,
			"byteOffset": 2864,
			"target": 34962
		},
		{
			"buffer": 0,
			"byteLength": 3392,
			"byteOffset": 5408,
			"target": 34962
		},
		{
			"buffer": 0,
			"byteLength": 1696,
			"byteOffset": 8800,
			"target": 34962
		},
		{
			"buffer": 0,
			"byteLength": 1696,
			"byteOffset": 10496,
			"target": 34962
		}
	],
	"images": [
		{
			"uri": "MI_ColorPalette_MetallicRoughness.png"
		},
		{
			"uri": "T_colorPalette2048.png"
		}
	],
	"materials": [
		{
			"name": "MI_ColorPalette",
			"pbrMetallicRoughness":
			{
				"baseColorTexture":
				{
					"index": 0
				},
				"metallicRoughnessTexture":
				{
					"index": 1
				}
			},
			"doubleSided": true
		}
	],
	"meshes": [
		{
			"name": "SM_construction_sign",
			"primitives": [
				{
					"attributes":
					{
						"POSITION": 1,
						"NORMAL": 2,
						"TANGENT": 3,
						"TEXCOORD_0": 4,
						"TEXCOORD_1": 5
					},
					"indices": 0,
					"material": 0
				}
			]
		}
	],
	"nodes": [
		{
			"mesh": 0
		}
	],
	"samplers": [
		{
			"minFilter": 9987,
			"magFilter": 9729
		}
	],
	"scenes": [
		{
			"nodes": [
				0
			]
		}
	],
	"textures": [
		{
			"name": "T_colorPalette2048",
			"sampler": 0,
			"source": 1
		},
		{
			"name": "MI_ColorPalette_MetallicRoughness",
			"sampler": 0,
			"source": 0
		}
	]
}