{
	"asset":
	{
		"version": "2.0",
		"generator": "Unreal Engine 5.8.0"
	},
	"scene": 0,
	"accessors": [
		{
			"bufferView": 0,
			"count": 2196,
			"type": "SCALAR",
			"componentType": 5123
		},
		{
			"bufferView": 1,
			"count": 1388,
			"type": "VEC3",
			"componentType": 5126,
			"min": [
				-0.340283275,
				-3.12416092e-17,
				-0.515619874
			],
			"max": [
				0.35091126,
				0.438833147,
				0.512166321
			]
		},
		{
			"bufferView": 2,
			"count": 1388,
			"type": "VEC3",
			"componentType": 5126
		},
		{
			"bufferView": 3,
			"count": 1388,
			"type": "VEC4",
			"componentType": 5126
		},
		{
			"bufferView": 4,
			"count": 1388,
			"type": "VEC2",
			"componentType": 5126
		},
		{
			"bufferView": 5,
			"count": 1388,
			"type": "VEC2",
			"componentType": 5126
		}
	],
	"buffers": [
		{
			"uri": "SM_crate_5.bin",
			"byteLength": 82120
		}
	],
	"bufferViews": [
		{
			"buffer": 0,
			"byteLength": 4392,
			"target": 34963
		},
		{
			"buffer": 0,
			"byteLength": 16656,
			"byteOffset": 4392,
			"target": 34962
		},
		{
			"buffer": 0,
			"byteLength": 16656,
			"byteOffset": 21048,
			"target": 34962
		},
		{
			"buffer": 0,
			"byteLength": 22208,
			"byteOffset": 37704,
			"target": 34962
		},
		{
			"buffer": 0,
			"byteLength": 11104,
			"byteOffset": 59912,
			"target": 34962
		},
		{
			"buffer": 0,
			"byteLength": 11104,
			"byteOffset": 71016,
			"target": 34962
		}
	],
	"images": [
		{
			"uri": "MI_ColorPalette_MetallicRoughness.png"
		},
		{
			"uri": "T_colorPalette2048.png"
		}
	],
	"materials": [
		{
			"name": "MI_ColorPalette",
			"pbrMetallicRoughness":
			{
				"baseColorTexture":
				{
					"index": 0
				},
				"metallicRoughnessTexture":
				{
					"index": 1
				}
			},
			"doubleSided": true
		}
	],
	"meshes": [
		{
			"name": "SM_crate_5",
			"primitives": [
				{
					"attributes":
					{
						"POSITION": 1,
						"NORMAL": 2,
						"TANGENT": 3,
						"TEXCOORD_0": 4,
						"TEXCOORD_1": 5
					},
					"indices": 0,
					"material": 0
				}
			]
		}
	],
	"nodes": [
		{
			"mesh": 0
		}
	],
	"samplers": [
		{
			"minFilter": 9987,
			"magFilter": 9729
		}
	],
	"scenes": [
		{
			"nodes": [
				0
			]
		}
	],
	"textures": [
		{
			"name": "T_colorPalette2048",
			"sampler": 0,
			"source": 1
		},
		{
			"name": "MI_ColorPalette_MetallicRoughness",
			"sampler": 0,
			"source": 0
		}
	]
}