{
	"asset":
	{
		"version": "2.0",
		"generator": "Unreal Engine 5.8.0"
	},
	"scene": 0,
	"accessors": [
		{
			"bufferView": 0,
			"count": 5100,
			"type": "SCALAR",
			"componentType": 5123
		},
		{
			"bufferView": 1,
			"count": 3508,
			"type": "VEC3",
			"componentType": 5126,
			"min": [
				-0.392249137,
				-1.3754212e-17,
				-0.767846525
			],
			"max": [
				0.349271297,
				1.16172993,
				0.230361909
			]
		},
		{
			"bufferView": 2,
			"count": 3508,
			"type": "VEC3",
			"componentType": 5126
		},
		{
			"bufferView": 3,
			"count": 3508,
			"type": "VEC4",
			"componentType": 5126
		},
		{
			"bufferView": 4,
			"count": 3508,
			"type": "VEC2",
			"componentType": 5126
		},
		{
			"bufferView": 5,
			"count": 3508,
			"type": "VEC2",
			"componentType": 5126
		}
	],
	"buffers": [
		{
			"uri": "SM_crate_1_set001.bin",
			"byteLength": 206648
		}
	],
	"bufferViews": [
		{
			"buffer": 0,
			"byteLength": 10200,
			"target": 34963
		},
		{
			"buffer": 0,
			"byteLength": 42096,
			"byteOffset": 10200,
			"target": 34962
		},
		{
			"buffer": 0,
			"byteLength": 42096,
			"byteOffset": 52296,
			"target": 34962
		},
		{
			"buffer": 0,
			"byteLength": 56128,
			"byteOffset": 94392,
			"target": 34962
		},
		{
			"buffer": 0,
			"byteLength": 28064,
			"byteOffset": 150520,
			"target": 34962
		},
		{
			"buffer": 0,
			"byteLength": 28064,
			"byteOffset": 178584,
			"target": 34962
		}
	],
	"images": [
		{
			"uri": "MI_ColorPalette_MetallicRoughness.png"
		},
		{
			"uri": "T_colorPalette2048.png"
		}
	],
	"materials": [
		{
			"name": "MI_ColorPalette",
			"pbrMetallicRoughness":
			{
				"baseColorTexture":
				{
					"index": 0
				},
				"metallicRoughnessTexture":
				{
					"index": 1
				}
			},
			"doubleSided": true
		}
	],
	"meshes": [
		{
			"name": "SM_crate_1_set001",
			"primitives": [
				{
					"attributes":
					{
						"POSITION": 1,
						"NORMAL": 2,
						"TANGENT": 3,
						"TEXCOORD_0": 4,
						"TEXCOORD_1": 5
					},
					"indices": 0,
					"material": 0
				}
			]
		}
	],
	"nodes": [
		{
			"mesh": 0
		}
	],
	"samplers": [
		{
			"minFilter": 9987,
			"magFilter": 9729
		}
	],
	"scenes": [
		{
			"nodes": [
				0
			]
		}
	],
	"textures": [
		{
			"name": "T_colorPalette2048",
			"sampler": 0,
			"source": 1
		},
		{
			"name": "MI_ColorPalette_MetallicRoughness",
			"sampler": 0,
			"source": 0
		}
	]
}