{
	"asset":
	{
		"version": "2.0",
		"generator": "Unreal Engine 5.8.0"
	},
	"scene": 0,
	"accessors": [
		{
			"bufferView": 0,
			"count": 5952,
			"type": "SCALAR",
			"componentType": 5123
		},
		{
			"bufferView": 1,
			"count": 3187,
			"type": "VEC3",
			"componentType": 5126,
			"min": [
				-0.465040147,
				-0.00150881417,
				-0.557335794
			],
			"max": [
				0.465040207,
				1.88817346,
				0.557335675
			]
		},
		{
			"bufferView": 2,
			"count": 3187,
			"type": "VEC3",
			"componentType": 5126
		},
		{
			"bufferView": 3,
			"count": 3187,
			"type": "VEC4",
			"componentType": 5126
		},
		{
			"bufferView": 4,
			"count": 3187,
			"type": "VEC2",
			"componentType": 5126
		},
		{
			"bufferView": 5,
			"count": 3187,
			"type": "VEC2",
			"componentType": 5126
		}
	],
	"buffers": [
		{
			"uri": "SM_carton_box_tray.bin",
			"byteLength": 190376
		}
	],
	"bufferViews": [
		{
			"buffer": 0,
			"byteLength": 11904,
			"target": 34963
		},
		{
			"buffer": 0,
			"byteLength": 38244,
			"byteOffset": 11904,
			"target": 34962
		},
		{
			"buffer": 0,
			"byteLength": 38244,
			"byteOffset": 50148,
			"target": 34962
		},
		{
			"buffer": 0,
			"byteLength": 50992,
			"byteOffset": 88392,
			"target": 34962
		},
		{
			"buffer": 0,
			"byteLength": 25496,
			"byteOffset": 139384,
			"target": 34962
		},
		{
			"buffer": 0,
			"byteLength": 25496,
			"byteOffset": 164880,
			"target": 34962
		}
	],
	"images": [
		{
			"uri": "M_BaseColorPalette_MetallicRoughness.png"
		},
		{
			"uri": "T_colorPalette2048.png"
		}
	],
	"materials": [
		{
			"name": "M_BaseColorPalette",
			"pbrMetallicRoughness":
			{
				"baseColorTexture":
				{
					"index": 0
				},
				"metallicRoughnessTexture":
				{
					"index": 1
				}
			},
			"doubleSided": true
		}
	],
	"meshes": [
		{
			"name": "SM_carton_box_tray",
			"primitives": [
				{
					"attributes":
					{
						"POSITION": 1,
						"NORMAL": 2,
						"TANGENT": 3,
						"TEXCOORD_0": 4,
						"TEXCOORD_1": 5
					},
					"indices": 0,
					"material": 0
				}
			]
		}
	],
	"nodes": [
		{
			"mesh": 0
		}
	],
	"samplers": [
		{
			"minFilter": 9987,
			"magFilter": 9729
		}
	],
	"scenes": [
		{
			"nodes": [
				0
			]
		}
	],
	"textures": [
		{
			"name": "T_colorPalette2048",
			"sampler": 0,
			"source": 1
		},
		{
			"name": "M_BaseColorPalette_MetallicRoughness",
			"sampler": 0,
			"source": 0
		}
	]
}