{
	"asset":
	{
		"version": "2.0",
		"generator": "Unreal Engine 5.8.0"
	},
	"scene": 0,
	"accessors": [
		{
			"bufferView": 0,
			"count": 486,
			"type": "SCALAR",
			"componentType": 5123
		},
		{
			"bufferView": 1,
			"count": 310,
			"type": "VEC3",
			"componentType": 5126,
			"min": [
				-0.511635959,
				-3.06674219e-09,
				-0.699509323
			],
			"max": [
				0.969752789,
				1.77480908e-09,
				0.831494749
			]
		},
		{
			"bufferView": 2,
			"count": 310,
			"type": "VEC3",
			"componentType": 5126
		},
		{
			"bufferView": 3,
			"count": 310,
			"type": "VEC4",
			"componentType": 5126
		},
		{
			"bufferView": 4,
			"count": 310,
			"type": "VEC2",
			"componentType": 5126
		},
		{
			"bufferView": 5,
			"count": 310,
			"type": "VEC2",
			"componentType": 5126
		}
	],
	"buffers": [
		{
			"uri": "SM_Chalk_Outline_01.bin",
			"byteLength": 18332
		}
	],
	"bufferViews": [
		{
			"buffer": 0,
			"byteLength": 972,
			"target": 34963
		},
		{
			"buffer": 0,
			"byteLength": 3720,
			"byteOffset": 972,
			"target": 34962
		},
		{
			"buffer": 0,
			"byteLength": 3720,
			"byteOffset": 4692,
			"target": 34962
		},
		{
			"buffer": 0,
			"byteLength": 4960,
			"byteOffset": 8412,
			"target": 34962
		},
		{
			"buffer": 0,
			"byteLength": 2480,
			"byteOffset": 13372,
			"target": 34962
		},
		{
			"buffer": 0,
			"byteLength": 2480,
			"byteOffset": 15852,
			"target": 34962
		}
	],
	"images": [
		{
			"uri": "MI_ColorPalette_MetallicRoughness.png"
		},
		{
			"uri": "T_colorPalette2048.png"
		}
	],
	"materials": [
		{
			"name": "MI_ColorPalette",
			"pbrMetallicRoughness":
			{
				"baseColorTexture":
				{
					"index": 0
				},
				"metallicRoughnessTexture":
				{
					"index": 1
				}
			},
			"doubleSided": true
		}
	],
	"meshes": [
		{
			"name": "SM_Chalk_Outline_01",
			"primitives": [
				{
					"attributes":
					{
						"POSITION": 1,
						"NORMAL": 2,
						"TANGENT": 3,
						"TEXCOORD_0": 4,
						"TEXCOORD_1": 5
					},
					"indices": 0,
					"material": 0
				}
			]
		}
	],
	"nodes": [
		{
			"mesh": 0
		}
	],
	"samplers": [
		{
			"minFilter": 9987,
			"magFilter": 9729
		}
	],
	"scenes": [
		{
			"nodes": [
				0
			]
		}
	],
	"textures": [
		{
			"name": "T_colorPalette2048",
			"sampler": 0,
			"source": 1
		},
		{
			"name": "MI_ColorPalette_MetallicRoughness",
			"sampler": 0,
			"source": 0
		}
	]
}