{
	"asset":
	{
		"version": "2.0",
		"generator": "Unreal Engine 5.8.0"
	},
	"scene": 0,
	"accessors": [
		{
			"bufferView": 0,
			"count": 1020,
			"type": "SCALAR",
			"componentType": 5123
		},
		{
			"bufferView": 1,
			"count": 684,
			"type": "VEC3",
			"componentType": 5126,
			"min": [
				-0.230361894,
				-2.0942931e-17,
				-0.349271297
			],
			"max": [
				0.230361894,
				0.383546352,
				0.349271297
			]
		},
		{
			"bufferView": 2,
			"count": 684,
			"type": "VEC3",
			"componentType": 5126
		},
		{
			"bufferView": 3,
			"count": 684,
			"type": "VEC4",
			"componentType": 5126
		},
		{
			"bufferView": 4,
			"count": 684,
			"type": "VEC2",
			"componentType": 5126
		},
		{
			"bufferView": 5,
			"count": 684,
			"type": "VEC2",
			"componentType": 5126
		}
	],
	"buffers": [
		{
			"uri": "SM_crate_1.bin",
			"byteLength": 40344
		}
	],
	"bufferViews": [
		{
			"buffer": 0,
			"byteLength": 2040,
			"target": 34963
		},
		{
			"buffer": 0,
			"byteLength": 8208,
			"byteOffset": 2040,
			"target": 34962
		},
		{
			"buffer": 0,
			"byteLength": 8208,
			"byteOffset": 10248,
			"target": 34962
		},
		{
			"buffer": 0,
			"byteLength": 10944,
			"byteOffset": 18456,
			"target": 34962
		},
		{
			"buffer": 0,
			"byteLength": 5472,
			"byteOffset": 29400,
			"target": 34962
		},
		{
			"buffer": 0,
			"byteLength": 5472,
			"byteOffset": 34872,
			"target": 34962
		}
	],
	"images": [
		{
			"uri": "M_BaseColorPalette_MetallicRoughness.png"
		},
		{
			"uri": "T_colorPalette2048.png"
		}
	],
	"materials": [
		{
			"name": "M_BaseColorPalette",
			"pbrMetallicRoughness":
			{
				"baseColorTexture":
				{
					"index": 0
				},
				"metallicRoughnessTexture":
				{
					"index": 1
				}
			},
			"doubleSided": true
		}
	],
	"meshes": [
		{
			"name": "SM_crate_1",
			"primitives": [
				{
					"attributes":
					{
						"POSITION": 1,
						"NORMAL": 2,
						"TANGENT": 3,
						"TEXCOORD_0": 4,
						"TEXCOORD_1": 5
					},
					"indices": 0,
					"material": 0
				}
			]
		}
	],
	"nodes": [
		{
			"mesh": 0
		}
	],
	"samplers": [
		{
			"minFilter": 9987,
			"magFilter": 9729
		}
	],
	"scenes": [
		{
			"nodes": [
				0
			]
		}
	],
	"textures": [
		{
			"name": "T_colorPalette2048",
			"sampler": 0,
			"source": 1
		},
		{
			"name": "M_BaseColorPalette_MetallicRoughness",
			"sampler": 0,
			"source": 0
		}
	]
}