{
	"asset":
	{
		"version": "2.0",
		"generator": "Unreal Engine 5.8.0"
	},
	"scene": 0,
	"accessors": [
		{
			"bufferView": 0,
			"count": 21048,
			"type": "SCALAR",
			"componentType": 5123
		},
		{
			"bufferView": 1,
			"count": 14923,
			"type": "VEC3",
			"componentType": 5126,
			"min": [
				-1.04143333,
				-0.00141365908,
				-1.00729322
			],
			"max": [
				1.05668306,
				1.60392988,
				1.00535595
			]
		},
		{
			"bufferView": 2,
			"count": 14923,
			"type": "VEC3",
			"componentType": 5126
		},
		{
			"bufferView": 3,
			"count": 14923,
			"type": "VEC4",
			"componentType": 5126
		},
		{
			"bufferView": 4,
			"count": 14923,
			"type": "VEC2",
			"componentType": 5126
		},
		{
			"bufferView": 5,
			"count": 14923,
			"type": "VEC2",
			"componentType": 5126
		}
	],
	"buffers": [
		{
			"uri": "SM_carton_box_pallete.bin",
			"byteLength": 877784
		}
	],
	"bufferViews": [
		{
			"buffer": 0,
			"byteLength": 42096,
			"target": 34963
		},
		{
			"buffer": 0,
			"byteLength": 179076,
			"byteOffset": 42096,
			"target": 34962
		},
		{
			"buffer": 0,
			"byteLength": 179076,
			"byteOffset": 221172,
			"target": 34962
		},
		{
			"buffer": 0,
			"byteLength": 238768,
			"byteOffset": 400248,
			"target": 34962
		},
		{
			"buffer": 0,
			"byteLength": 119384,
			"byteOffset": 639016,
			"target": 34962
		},
		{
			"buffer": 0,
			"byteLength": 119384,
			"byteOffset": 758400,
			"target": 34962
		}
	],
	"images": [
		{
			"uri": "M_BaseColorPalette_MetallicRoughness.png"
		},
		{
			"uri": "T_colorPalette2048.png"
		}
	],
	"materials": [
		{
			"name": "M_BaseColorPalette",
			"pbrMetallicRoughness":
			{
				"baseColorTexture":
				{
					"index": 0
				},
				"metallicRoughnessTexture":
				{
					"index": 1
				}
			},
			"doubleSided": true
		}
	],
	"meshes": [
		{
			"name": "SM_carton_box_pallete",
			"primitives": [
				{
					"attributes":
					{
						"POSITION": 1,
						"NORMAL": 2,
						"TANGENT": 3,
						"TEXCOORD_0": 4,
						"TEXCOORD_1": 5
					},
					"indices": 0,
					"material": 0
				}
			]
		}
	],
	"nodes": [
		{
			"mesh": 0
		}
	],
	"samplers": [
		{
			"minFilter": 9987,
			"magFilter": 9729
		}
	],
	"scenes": [
		{
			"nodes": [
				0
			]
		}
	],
	"textures": [
		{
			"name": "T_colorPalette2048",
			"sampler": 0,
			"source": 1
		},
		{
			"name": "M_BaseColorPalette_MetallicRoughness",
			"sampler": 0,
			"source": 0
		}
	]
}