{
	"asset":
	{
		"version": "2.0",
		"generator": "Unreal Engine 5.8.0"
	},
	"scene": 0,
	"accessors": [
		{
			"bufferView": 0,
			"count": 2202,
			"type": "SCALAR",
			"componentType": 5123
		},
		{
			"bufferView": 1,
			"count": 1704,
			"type": "VEC3",
			"componentType": 5126,
			"min": [
				-0.519504547,
				-0.00215727091,
				-0.661319554
			],
			"max": [
				0.500392079,
				0.949597478,
				0.65514493
			]
		},
		{
			"bufferView": 2,
			"count": 1704,
			"type": "VEC3",
			"componentType": 5126
		},
		{
			"bufferView": 3,
			"count": 1704,
			"type": "VEC4",
			"componentType": 5126
		},
		{
			"bufferView": 4,
			"count": 1704,
			"type": "VEC2",
			"componentType": 5126
		},
		{
			"bufferView": 5,
			"count": 1704,
			"type": "VEC2",
			"componentType": 5126
		}
	],
	"buffers": [
		{
			"uri": "SM_carton_box.bin",
			"byteLength": 99828
		}
	],
	"bufferViews": [
		{
			"buffer": 0,
			"byteLength": 4404,
			"target": 34963
		},
		{
			"buffer": 0,
			"byteLength": 20448,
			"byteOffset": 4404,
			"target": 34962
		},
		{
			"buffer": 0,
			"byteLength": 20448,
			"byteOffset": 24852,
			"target": 34962
		},
		{
			"buffer": 0,
			"byteLength": 27264,
			"byteOffset": 45300,
			"target": 34962
		},
		{
			"buffer": 0,
			"byteLength": 13632,
			"byteOffset": 72564,
			"target": 34962
		},
		{
			"buffer": 0,
			"byteLength": 13632,
			"byteOffset": 86196,
			"target": 34962
		}
	],
	"images": [
		{
			"uri": "M_BaseColorPalette_MetallicRoughness.png"
		},
		{
			"uri": "T_colorPalette2048.png"
		}
	],
	"materials": [
		{
			"name": "M_BaseColorPalette",
			"pbrMetallicRoughness":
			{
				"baseColorTexture":
				{
					"index": 0
				},
				"metallicRoughnessTexture":
				{
					"index": 1
				}
			},
			"doubleSided": true
		}
	],
	"meshes": [
		{
			"name": "SM_carton_box",
			"primitives": [
				{
					"attributes":
					{
						"POSITION": 1,
						"NORMAL": 2,
						"TANGENT": 3,
						"TEXCOORD_0": 4,
						"TEXCOORD_1": 5
					},
					"indices": 0,
					"material": 0
				}
			]
		}
	],
	"nodes": [
		{
			"mesh": 0
		}
	],
	"samplers": [
		{
			"minFilter": 9987,
			"magFilter": 9729
		}
	],
	"scenes": [
		{
			"nodes": [
				0
			]
		}
	],
	"textures": [
		{
			"name": "T_colorPalette2048",
			"sampler": 0,
			"source": 1
		},
		{
			"name": "M_BaseColorPalette_MetallicRoughness",
			"sampler": 0,
			"source": 0
		}
	]
}