{
	"asset":
	{
		"version": "2.0",
		"generator": "Unreal Engine 5.8.0"
	},
	"scene": 0,
	"accessors": [
		{
			"bufferView": 0,
			"count": 642,
			"type": "SCALAR",
			"componentType": 5123
		},
		{
			"bufferView": 1,
			"count": 517,
			"type": "VEC3",
			"componentType": 5126,
			"min": [
				-0.210033178,
				-1.63948554e-17,
				-0.268934518
			],
			"max": [
				0.212108582,
				0.393064141,
				0.267748326
			]
		},
		{
			"bufferView": 2,
			"count": 517,
			"type": "VEC3",
			"componentType": 5126
		},
		{
			"bufferView": 3,
			"count": 517,
			"type": "VEC4",
			"componentType": 5126
		},
		{
			"bufferView": 4,
			"count": 517,
			"type": "VEC2",
			"componentType": 5126
		},
		{
			"bufferView": 5,
			"count": 517,
			"type": "VEC2",
			"componentType": 5126
		}
	],
	"buffers": [
		{
			"uri": "SM_carton_box_2.bin",
			"byteLength": 30236
		}
	],
	"bufferViews": [
		{
			"buffer": 0,
			"byteLength": 1284,
			"target": 34963
		},
		{
			"buffer": 0,
			"byteLength": 6204,
			"byteOffset": 1284,
			"target": 34962
		},
		{
			"buffer": 0,
			"byteLength": 6204,
			"byteOffset": 7488,
			"target": 34962
		},
		{
			"buffer": 0,
			"byteLength": 8272,
			"byteOffset": 13692,
			"target": 34962
		},
		{
			"buffer": 0,
			"byteLength": 4136,
			"byteOffset": 21964,
			"target": 34962
		},
		{
			"buffer": 0,
			"byteLength": 4136,
			"byteOffset": 26100,
			"target": 34962
		}
	],
	"images": [
		{
			"uri": "M_BaseColorPalette_MetallicRoughness.png"
		},
		{
			"uri": "T_colorPalette2048.png"
		}
	],
	"materials": [
		{
			"name": "M_BaseColorPalette",
			"pbrMetallicRoughness":
			{
				"baseColorTexture":
				{
					"index": 0
				},
				"metallicRoughnessTexture":
				{
					"index": 1
				}
			},
			"doubleSided": true
		}
	],
	"meshes": [
		{
			"name": "SM_carton_box_2",
			"primitives": [
				{
					"attributes":
					{
						"POSITION": 1,
						"NORMAL": 2,
						"TANGENT": 3,
						"TEXCOORD_0": 4,
						"TEXCOORD_1": 5
					},
					"indices": 0,
					"material": 0
				}
			]
		}
	],
	"nodes": [
		{
			"mesh": 0
		}
	],
	"samplers": [
		{
			"minFilter": 9987,
			"magFilter": 9729
		}
	],
	"scenes": [
		{
			"nodes": [
				0
			]
		}
	],
	"textures": [
		{
			"name": "T_colorPalette2048",
			"sampler": 0,
			"source": 1
		},
		{
			"name": "M_BaseColorPalette_MetallicRoughness",
			"sampler": 0,
			"source": 0
		}
	]
}