{
	"asset":
	{
		"version": "2.0",
		"generator": "Unreal Engine 5.8.0"
	},
	"scene": 0,
	"accessors": [
		{
			"bufferView": 0,
			"count": 630,
			"type": "SCALAR",
			"componentType": 5123
		},
		{
			"bufferView": 1,
			"count": 430,
			"type": "VEC3",
			"componentType": 5126,
			"min": [
				-0.335006893,
				-3.07030286e-17,
				-0.503951192
			],
			"max": [
				0.335006893,
				0.326248318,
				0.503951192
			]
		},
		{
			"bufferView": 2,
			"count": 430,
			"type": "VEC3",
			"componentType": 5126
		},
		{
			"bufferView": 3,
			"count": 430,
			"type": "VEC4",
			"componentType": 5126
		},
		{
			"bufferView": 4,
			"count": 430,
			"type": "VEC2",
			"componentType": 5126
		},
		{
			"bufferView": 5,
			"count": 430,
			"type": "VEC2",
			"componentType": 5126
		}
	],
	"buffers": [
		{
			"uri": "SM_crate_3.bin",
			"byteLength": 25340
		}
	],
	"bufferViews": [
		{
			"buffer": 0,
			"byteLength": 1260,
			"target": 34963
		},
		{
			"buffer": 0,
			"byteLength": 5160,
			"byteOffset": 1260,
			"target": 34962
		},
		{
			"buffer": 0,
			"byteLength": 5160,
			"byteOffset": 6420,
			"target": 34962
		},
		{
			"buffer": 0,
			"byteLength": 6880,
			"byteOffset": 11580,
			"target": 34962
		},
		{
			"buffer": 0,
			"byteLength": 3440,
			"byteOffset": 18460,
			"target": 34962
		},
		{
			"buffer": 0,
			"byteLength": 3440,
			"byteOffset": 21900,
			"target": 34962
		}
	],
	"images": [
		{
			"uri": "MI_ColorPalette_MetallicRoughness.png"
		},
		{
			"uri": "T_colorPalette2048.png"
		}
	],
	"materials": [
		{
			"name": "MI_ColorPalette",
			"pbrMetallicRoughness":
			{
				"baseColorTexture":
				{
					"index": 0
				},
				"metallicRoughnessTexture":
				{
					"index": 1
				}
			},
			"doubleSided": true
		}
	],
	"meshes": [
		{
			"name": "SM_crate_3",
			"primitives": [
				{
					"attributes":
					{
						"POSITION": 1,
						"NORMAL": 2,
						"TANGENT": 3,
						"TEXCOORD_0": 4,
						"TEXCOORD_1": 5
					},
					"indices": 0,
					"material": 0
				}
			]
		}
	],
	"nodes": [
		{
			"mesh": 0
		}
	],
	"samplers": [
		{
			"minFilter": 9987,
			"magFilter": 9729
		}
	],
	"scenes": [
		{
			"nodes": [
				0
			]
		}
	],
	"textures": [
		{
			"name": "T_colorPalette2048",
			"sampler": 0,
			"source": 1
		},
		{
			"name": "MI_ColorPalette_MetallicRoughness",
			"sampler": 0,
			"source": 0
		}
	]
}