{
	"asset":
	{
		"version": "2.0",
		"generator": "Unreal Engine 5.8.0"
	},
	"scene": 0,
	"accessors": [
		{
			"bufferView": 0,
			"count": 1140,
			"type": "SCALAR",
			"componentType": 5123
		},
		{
			"bufferView": 1,
			"count": 760,
			"type": "VEC3",
			"componentType": 5126,
			"min": [
				-0.205633372,
				-0.107482918,
				-0.10453897
			],
			"max": [
				0.205631942,
				0.107482918,
				0.10453897
			]
		},
		{
			"bufferView": 2,
			"count": 760,
			"type": "VEC3",
			"componentType": 5126
		},
		{
			"bufferView": 3,
			"count": 760,
			"type": "VEC4",
			"componentType": 5126
		},
		{
			"bufferView": 4,
			"count": 760,
			"type": "VEC2",
			"componentType": 5126
		},
		{
			"bufferView": 5,
			"count": 760,
			"type": "VEC2",
			"componentType": 5126
		}
	],
	"buffers": [
		{
			"uri": "SM_Drugs_01.bin",
			"byteLength": 44840
		}
	],
	"bufferViews": [
		{
			"buffer": 0,
			"byteLength": 2280,
			"target": 34963
		},
		{
			"buffer": 0,
			"byteLength": 9120,
			"byteOffset": 2280,
			"target": 34962
		},
		{
			"buffer": 0,
			"byteLength": 9120,
			"byteOffset": 11400,
			"target": 34962
		},
		{
			"buffer": 0,
			"byteLength": 12160,
			"byteOffset": 20520,
			"target": 34962
		},
		{
			"buffer": 0,
			"byteLength": 6080,
			"byteOffset": 32680,
			"target": 34962
		},
		{
			"buffer": 0,
			"byteLength": 6080,
			"byteOffset": 38760,
			"target": 34962
		}
	],
	"images": [
		{
			"uri": "MI_ColorPalette_MetallicRoughness.png"
		},
		{
			"uri": "T_colorPalette2048.png"
		}
	],
	"materials": [
		{
			"name": "MI_ColorPalette",
			"pbrMetallicRoughness":
			{
				"baseColorTexture":
				{
					"index": 0
				},
				"metallicRoughnessTexture":
				{
					"index": 1
				}
			},
			"doubleSided": true
		}
	],
	"meshes": [
		{
			"name": "SM_Drugs_01",
			"primitives": [
				{
					"attributes":
					{
						"POSITION": 1,
						"NORMAL": 2,
						"TANGENT": 3,
						"TEXCOORD_0": 4,
						"TEXCOORD_1": 5
					},
					"indices": 0,
					"material": 0
				}
			]
		}
	],
	"nodes": [
		{
			"mesh": 0
		}
	],
	"samplers": [
		{
			"minFilter": 9987,
			"magFilter": 9729
		}
	],
	"scenes": [
		{
			"nodes": [
				0
			]
		}
	],
	"textures": [
		{
			"name": "T_colorPalette2048",
			"sampler": 0,
			"source": 1
		},
		{
			"name": "MI_ColorPalette_MetallicRoughness",
			"sampler": 0,
			"source": 0
		}
	]
}