{
	"asset":
	{
		"version": "2.0",
		"generator": "Unreal Engine 5.8.0"
	},
	"scene": 0,
	"accessors": [
		{
			"bufferView": 0,
			"count": 2280,
			"type": "SCALAR",
			"componentType": 5123
		},
		{
			"bufferView": 1,
			"count": 1589,
			"type": "VEC3",
			"componentType": 5126,
			"min": [
				-0.207613528,
				-0.0284210201,
				-0.644722879
			],
			"max": [
				0.423090816,
				4.29090738,
				0.468687743
			]
		},
		{
			"bufferView": 2,
			"count": 1589,
			"type": "VEC3",
			"componentType": 5126
		},
		{
			"bufferView": 3,
			"count": 1589,
			"type": "VEC4",
			"componentType": 5126
		},
		{
			"bufferView": 4,
			"count": 1589,
			"type": "VEC2",
			"componentType": 5126
		},
		{
			"bufferView": 5,
			"count": 1589,
			"type": "VEC2",
			"componentType": 5126
		}
	],
	"buffers": [
		{
			"uri": "SM_Flagpole.bin",
			"byteLength": 93544
		}
	],
	"bufferViews": [
		{
			"buffer": 0,
			"byteLength": 4560,
			"target": 34963
		},
		{
			"buffer": 0,
			"byteLength": 19068,
			"byteOffset": 4560,
			"target": 34962
		},
		{
			"buffer": 0,
			"byteLength": 19068,
			"byteOffset": 23628,
			"target": 34962
		},
		{
			"buffer": 0,
			"byteLength": 25424,
			"byteOffset": 42696,
			"target": 34962
		},
		{
			"buffer": 0,
			"byteLength": 12712,
			"byteOffset": 68120,
			"target": 34962
		},
		{
			"buffer": 0,
			"byteLength": 12712,
			"byteOffset": 80832,
			"target": 34962
		}
	],
	"images": [
		{
			"uri": "MI_ColorPalette_MetallicRoughness.png"
		},
		{
			"uri": "T_colorPalette2048.png"
		}
	],
	"materials": [
		{
			"name": "MI_ColorPalette",
			"pbrMetallicRoughness":
			{
				"baseColorTexture":
				{
					"index": 0
				},
				"metallicRoughnessTexture":
				{
					"index": 1
				}
			},
			"doubleSided": true
		}
	],
	"meshes": [
		{
			"name": "SM_Flagpole",
			"primitives": [
				{
					"attributes":
					{
						"POSITION": 1,
						"NORMAL": 2,
						"TANGENT": 3,
						"TEXCOORD_0": 4,
						"TEXCOORD_1": 5
					},
					"indices": 0,
					"material": 0
				}
			]
		}
	],
	"nodes": [
		{
			"mesh": 0
		}
	],
	"samplers": [
		{
			"minFilter": 9987,
			"magFilter": 9729
		}
	],
	"scenes": [
		{
			"nodes": [
				0
			]
		}
	],
	"textures": [
		{
			"name": "T_colorPalette2048",
			"sampler": 0,
			"source": 1
		},
		{
			"name": "MI_ColorPalette_MetallicRoughness",
			"sampler": 0,
			"source": 0
		}
	]
}