{
	"asset":
	{
		"version": "2.0",
		"generator": "Unreal Engine 5.8.0"
	},
	"scene": 0,
	"accessors": [
		{
			"bufferView": 0,
			"count": 48,
			"type": "SCALAR",
			"componentType": 5121
		},
		{
			"bufferView": 1,
			"count": 30,
			"type": "VEC3",
			"componentType": 5126,
			"min": [
				-0.0399999991,
				-2.12115641e-18,
				-0.0346411131
			],
			"max": [
				0.0399999991,
				4,
				0.0346411131
			]
		},
		{
			"bufferView": 2,
			"count": 30,
			"type": "VEC3",
			"componentType": 5126
		},
		{
			"bufferView": 3,
			"count": 30,
			"type": "VEC4",
			"componentType": 5126
		},
		{
			"bufferView": 4,
			"count": 30,
			"type": "VEC2",
			"componentType": 5126
		},
		{
			"bufferView": 5,
			"count": 30,
			"type": "VEC2",
			"componentType": 5126
		}
	],
	"buffers": [
		{
			"uri": "SM_fence_105end.bin",
			"byteLength": 1728
		}
	],
	"bufferViews": [
		{
			"buffer": 0,
			"byteLength": 48,
			"target": 34963
		},
		{
			"buffer": 0,
			"byteLength": 360,
			"byteOffset": 48,
			"target": 34962
		},
		{
			"buffer": 0,
			"byteLength": 360,
			"byteOffset": 408,
			"target": 34962
		},
		{
			"buffer": 0,
			"byteLength": 480,
			"byteOffset": 768,
			"target": 34962
		},
		{
			"buffer": 0,
			"byteLength": 240,
			"byteOffset": 1248,
			"target": 34962
		},
		{
			"buffer": 0,
			"byteLength": 240,
			"byteOffset": 1488,
			"target": 34962
		}
	],
	"images": [
		{
			"uri": "MI_ColorPalette_MetallicRoughness.png"
		},
		{
			"uri": "T_colorPalette2048.png"
		}
	],
	"materials": [
		{
			"name": "MI_ColorPalette",
			"pbrMetallicRoughness":
			{
				"baseColorTexture":
				{
					"index": 0
				},
				"metallicRoughnessTexture":
				{
					"index": 1
				}
			},
			"doubleSided": true
		}
	],
	"meshes": [
		{
			"name": "SM_fence_105end",
			"primitives": [
				{
					"attributes":
					{
						"POSITION": 1,
						"NORMAL": 2,
						"TANGENT": 3,
						"TEXCOORD_0": 4,
						"TEXCOORD_1": 5
					},
					"indices": 0,
					"material": 0
				}
			]
		}
	],
	"nodes": [
		{
			"mesh": 0
		}
	],
	"samplers": [
		{
			"minFilter": 9987,
			"magFilter": 9729
		}
	],
	"scenes": [
		{
			"nodes": [
				0
			]
		}
	],
	"textures": [
		{
			"name": "T_colorPalette2048",
			"sampler": 0,
			"source": 1
		},
		{
			"name": "MI_ColorPalette_MetallicRoughness",
			"sampler": 0,
			"source": 0
		}
	]
}