{
	"asset":
	{
		"version": "2.0",
		"generator": "Unreal Engine 5.8.0"
	},
	"scene": 0,
	"accessors": [
		{
			"bufferView": 0,
			"count": 402,
			"type": "SCALAR",
			"componentType": 5123
		},
		{
			"bufferView": 1,
			"count": 268,
			"type": "VEC3",
			"componentType": 5126,
			"min": [
				-0.0553906225,
				0.049999997,
				0.121619873
			],
			"max": [
				0.0250024404,
				1.39999998,
				1.88013673
			]
		},
		{
			"bufferView": 2,
			"count": 268,
			"type": "VEC3",
			"componentType": 5126
		},
		{
			"bufferView": 3,
			"count": 268,
			"type": "VEC4",
			"componentType": 5126
		},
		{
			"bufferView": 4,
			"count": 268,
			"type": "VEC2",
			"componentType": 5126
		},
		{
			"bufferView": 5,
			"count": 268,
			"type": "VEC2",
			"componentType": 5126
		}
	],
	"buffers": [
		{
			"uri": "SM_fence_101gate.bin",
			"byteLength": 15812
		}
	],
	"bufferViews": [
		{
			"buffer": 0,
			"byteLength": 804,
			"target": 34963
		},
		{
			"buffer": 0,
			"byteLength": 3216,
			"byteOffset": 804,
			"target": 34962
		},
		{
			"buffer": 0,
			"byteLength": 3216,
			"byteOffset": 4020,
			"target": 34962
		},
		{
			"buffer": 0,
			"byteLength": 4288,
			"byteOffset": 7236,
			"target": 34962
		},
		{
			"buffer": 0,
			"byteLength": 2144,
			"byteOffset": 11524,
			"target": 34962
		},
		{
			"buffer": 0,
			"byteLength": 2144,
			"byteOffset": 13668,
			"target": 34962
		}
	],
	"images": [
		{
			"uri": "MI_ColorPalette_MetallicRoughness.png"
		},
		{
			"uri": "T_colorPalette2048.png"
		}
	],
	"materials": [
		{
			"name": "MI_ColorPalette",
			"pbrMetallicRoughness":
			{
				"baseColorTexture":
				{
					"index": 0
				},
				"metallicRoughnessTexture":
				{
					"index": 1
				}
			},
			"doubleSided": true
		}
	],
	"meshes": [
		{
			"name": "SM_fence_101gate",
			"primitives": [
				{
					"attributes":
					{
						"POSITION": 1,
						"NORMAL": 2,
						"TANGENT": 3,
						"TEXCOORD_0": 4,
						"TEXCOORD_1": 5
					},
					"indices": 0,
					"material": 0
				}
			]
		}
	],
	"nodes": [
		{
			"mesh": 0
		}
	],
	"samplers": [
		{
			"minFilter": 9987,
			"magFilter": 9729
		}
	],
	"scenes": [
		{
			"nodes": [
				0
			]
		}
	],
	"textures": [
		{
			"name": "T_colorPalette2048",
			"sampler": 0,
			"source": 1
		},
		{
			"name": "MI_ColorPalette_MetallicRoughness",
			"sampler": 0,
			"source": 0
		}
	]
}