{
	"asset":
	{
		"version": "2.0",
		"generator": "Unreal Engine 5.8.0"
	},
	"scene": 0,
	"accessors": [
		{
			"bufferView": 0,
			"count": 528,
			"type": "SCALAR",
			"componentType": 5123
		},
		{
			"bufferView": 1,
			"count": 356,
			"type": "VEC3",
			"componentType": 5126,
			"min": [
				-0.038183853,
				-0.00113809039,
				-5.96935272
			],
			"max": [
				0.175638407,
				2.08184505,
				-0.0306494143
			]
		},
		{
			"bufferView": 2,
			"count": 356,
			"type": "VEC3",
			"componentType": 5126
		},
		{
			"bufferView": 3,
			"count": 356,
			"type": "VEC4",
			"componentType": 5126
		},
		{
			"bufferView": 4,
			"count": 356,
			"type": "VEC2",
			"componentType": 5126
		},
		{
			"bufferView": 5,
			"count": 356,
			"type": "VEC2",
			"componentType": 5126
		}
	],
	"buffers": [
		{
			"uri": "SM_fence_107b.bin",
			"byteLength": 20992
		}
	],
	"bufferViews": [
		{
			"buffer": 0,
			"byteLength": 1056,
			"target": 34963
		},
		{
			"buffer": 0,
			"byteLength": 4272,
			"byteOffset": 1056,
			"target": 34962
		},
		{
			"buffer": 0,
			"byteLength": 4272,
			"byteOffset": 5328,
			"target": 34962
		},
		{
			"buffer": 0,
			"byteLength": 5696,
			"byteOffset": 9600,
			"target": 34962
		},
		{
			"buffer": 0,
			"byteLength": 2848,
			"byteOffset": 15296,
			"target": 34962
		},
		{
			"buffer": 0,
			"byteLength": 2848,
			"byteOffset": 18144,
			"target": 34962
		}
	],
	"images": [
		{
			"uri": "MI_ColorPalette_MetallicRoughness.png"
		},
		{
			"uri": "T_colorPalette2048.png"
		}
	],
	"materials": [
		{
			"name": "MI_ColorPalette",
			"pbrMetallicRoughness":
			{
				"baseColorTexture":
				{
					"index": 0
				},
				"metallicRoughnessTexture":
				{
					"index": 1
				}
			},
			"doubleSided": true
		}
	],
	"meshes": [
		{
			"name": "SM_fence_107b",
			"primitives": [
				{
					"attributes":
					{
						"POSITION": 1,
						"NORMAL": 2,
						"TANGENT": 3,
						"TEXCOORD_0": 4,
						"TEXCOORD_1": 5
					},
					"indices": 0,
					"material": 0
				}
			]
		}
	],
	"nodes": [
		{
			"mesh": 0
		}
	],
	"samplers": [
		{
			"minFilter": 9987,
			"magFilter": 9729
		}
	],
	"scenes": [
		{
			"nodes": [
				0
			]
		}
	],
	"textures": [
		{
			"name": "T_colorPalette2048",
			"sampler": 0,
			"source": 1
		},
		{
			"name": "MI_ColorPalette_MetallicRoughness",
			"sampler": 0,
			"source": 0
		}
	]
}