{
	"asset":
	{
		"version": "2.0",
		"generator": "Unreal Engine 5.8.0"
	},
	"scene": 0,
	"accessors": [
		{
			"bufferView": 0,
			"count": 984,
			"type": "SCALAR",
			"componentType": 5123
		},
		{
			"bufferView": 1,
			"count": 632,
			"type": "VEC3",
			"componentType": 5126,
			"min": [
				-0.0250000879,
				-0.00543193799,
				-1.87500489
			],
			"max": [
				0.0250000488,
				1.02499998,
				-4.88281239e-06
			]
		},
		{
			"bufferView": 2,
			"count": 632,
			"type": "VEC3",
			"componentType": 5126
		},
		{
			"bufferView": 3,
			"count": 632,
			"type": "VEC4",
			"componentType": 5126
		},
		{
			"bufferView": 4,
			"count": 632,
			"type": "VEC2",
			"componentType": 5126
		},
		{
			"bufferView": 5,
			"count": 632,
			"type": "VEC2",
			"componentType": 5126
		}
	],
	"buffers": [
		{
			"uri": "SM_fence_102gate.bin",
			"byteLength": 37360
		}
	],
	"bufferViews": [
		{
			"buffer": 0,
			"byteLength": 1968,
			"target": 34963
		},
		{
			"buffer": 0,
			"byteLength": 7584,
			"byteOffset": 1968,
			"target": 34962
		},
		{
			"buffer": 0,
			"byteLength": 7584,
			"byteOffset": 9552,
			"target": 34962
		},
		{
			"buffer": 0,
			"byteLength": 10112,
			"byteOffset": 17136,
			"target": 34962
		},
		{
			"buffer": 0,
			"byteLength": 5056,
			"byteOffset": 27248,
			"target": 34962
		},
		{
			"buffer": 0,
			"byteLength": 5056,
			"byteOffset": 32304,
			"target": 34962
		}
	],
	"images": [
		{
			"uri": "MI_ColorPalette_MetallicRoughness.png"
		},
		{
			"uri": "T_colorPalette2048.png"
		}
	],
	"materials": [
		{
			"name": "MI_ColorPalette",
			"pbrMetallicRoughness":
			{
				"baseColorTexture":
				{
					"index": 0
				},
				"metallicRoughnessTexture":
				{
					"index": 1
				}
			},
			"doubleSided": true
		}
	],
	"meshes": [
		{
			"name": "SM_fence_102gate",
			"primitives": [
				{
					"attributes":
					{
						"POSITION": 1,
						"NORMAL": 2,
						"TANGENT": 3,
						"TEXCOORD_0": 4,
						"TEXCOORD_1": 5
					},
					"indices": 0,
					"material": 0
				}
			]
		}
	],
	"nodes": [
		{
			"mesh": 0
		}
	],
	"samplers": [
		{
			"minFilter": 9987,
			"magFilter": 9729
		}
	],
	"scenes": [
		{
			"nodes": [
				0
			]
		}
	],
	"textures": [
		{
			"name": "T_colorPalette2048",
			"sampler": 0,
			"source": 1
		},
		{
			"name": "MI_ColorPalette_MetallicRoughness",
			"sampler": 0,
			"source": 0
		}
	]
}