{
	"asset":
	{
		"version": "2.0",
		"generator": "Unreal Engine 5.8.0"
	},
	"scene": 0,
	"accessors": [
		{
			"bufferView": 0,
			"count": 240,
			"type": "SCALAR",
			"componentType": 5121
		},
		{
			"bufferView": 1,
			"count": 160,
			"type": "VEC3",
			"componentType": 5126,
			"min": [
				-0.0661184713,
				-1.85288002e-18,
				-3.99999499
			],
			"max": [
				0.0818621814,
				1,
				0.0302598383
			]
		},
		{
			"bufferView": 2,
			"count": 160,
			"type": "VEC3",
			"componentType": 5126
		},
		{
			"bufferView": 3,
			"count": 160,
			"type": "VEC4",
			"componentType": 5126
		},
		{
			"bufferView": 4,
			"count": 160,
			"type": "VEC2",
			"componentType": 5126
		},
		{
			"bufferView": 5,
			"count": 160,
			"type": "VEC2",
			"componentType": 5126
		},
		{
			"bufferView": 6,
			"count": 24,
			"type": "SCALAR",
			"componentType": 5121
		},
		{
			"bufferView": 7,
			"count": 10,
			"type": "VEC3",
			"componentType": 5126,
			"min": [
				-0.0358581543,
				0,
				-4
			],
			"max": [
				0.0516027808,
				0.949999988,
				5.81707222e-17
			]
		},
		{
			"bufferView": 8,
			"count": 10,
			"type": "VEC3",
			"componentType": 5126
		},
		{
			"bufferView": 9,
			"count": 10,
			"type": "VEC4",
			"componentType": 5126
		},
		{
			"bufferView": 10,
			"count": 10,
			"type": "VEC2",
			"componentType": 5126
		},
		{
			"bufferView": 11,
			"count": 10,
			"type": "VEC2",
			"componentType": 5126
		}
	],
	"buffers": [
		{
			"uri": "SM_fence_103a.bin",
			"byteLength": 9784
		}
	],
	"bufferViews": [
		{
			"buffer": 0,
			"byteLength": 240,
			"target": 34963
		},
		{
			"buffer": 0,
			"byteLength": 1920,
			"byteOffset": 240,
			"target": 34962
		},
		{
			"buffer": 0,
			"byteLength": 1920,
			"byteOffset": 2160,
			"target": 34962
		},
		{
			"buffer": 0,
			"byteLength": 2560,
			"byteOffset": 4080,
			"target": 34962
		},
		{
			"buffer": 0,
			"byteLength": 1280,
			"byteOffset": 6640,
			"target": 34962
		},
		{
			"buffer": 0,
			"byteLength": 1280,
			"byteOffset": 7920,
			"target": 34962
		},
		{
			"buffer": 0,
			"byteLength": 24,
			"byteOffset": 9200,
			"target": 34963
		},
		{
			"buffer": 0,
			"byteLength": 120,
			"byteOffset": 9224,
			"target": 34962
		},
		{
			"buffer": 0,
			"byteLength": 120,
			"byteOffset": 9344,
			"target": 34962
		},
		{
			"buffer": 0,
			"byteLength": 160,
			"byteOffset": 9464,
			"target": 34962
		},
		{
			"buffer": 0,
			"byteLength": 80,
			"byteOffset": 9624,
			"target": 34962
		},
		{
			"buffer": 0,
			"byteLength": 80,
			"byteOffset": 9704,
			"target": 34962
		}
	],
	"images": [
		{
			"uri": "MI_ColorPalette_MetallicRoughness.png"
		},
		{
			"uri": "MI_FenceMetal_01_BaseColor.png"
		},
		{
			"uri": "T_colorPalette2048.png"
		}
	],
	"materials": [
		{
			"name": "MI_ColorPalette",
			"pbrMetallicRoughness":
			{
				"baseColorTexture":
				{
					"index": 0
				},
				"metallicRoughnessTexture":
				{
					"index": 1
				}
			},
			"doubleSided": true
		},
		{
			"name": "MI_FenceMetal_01",
			"pbrMetallicRoughness":
			{
				"baseColorTexture":
				{
					"index": 2
				},
				"metallicFactor": 0,
				"roughnessFactor": 0.5
			},
			"alphaMode": "MASK",
			"alphaCutoff": 0.333299994,
			"doubleSided": true
		}
	],
	"meshes": [
		{
			"name": "SM_fence_103a",
			"primitives": [
				{
					"attributes":
					{
						"POSITION": 1,
						"NORMAL": 2,
						"TANGENT": 3,
						"TEXCOORD_0": 4,
						"TEXCOORD_1": 5
					},
					"indices": 0,
					"material": 0
				},
				{
					"attributes":
					{
						"POSITION": 7,
						"NORMAL": 8,
						"TANGENT": 9,
						"TEXCOORD_0": 10,
						"TEXCOORD_1": 11
					},
					"indices": 6,
					"material": 1
				}
			]
		}
	],
	"nodes": [
		{
			"mesh": 0
		}
	],
	"samplers": [
		{
			"minFilter": 9987,
			"magFilter": 9729
		}
	],
	"scenes": [
		{
			"nodes": [
				0
			]
		}
	],
	"textures": [
		{
			"name": "T_colorPalette2048",
			"sampler": 0,
			"source": 2
		},
		{
			"name": "MI_ColorPalette_MetallicRoughness",
			"sampler": 0,
			"source": 0
		},
		{
			"name": "MI_FenceMetal_01_BaseColor",
			"sampler": 0,
			"source": 1
		}
	]
}