{
	"asset":
	{
		"version": "2.0",
		"generator": "Unreal Engine 5.8.0"
	},
	"scene": 0,
	"accessors": [
		{
			"bufferView": 0,
			"count": 3438,
			"type": "SCALAR",
			"componentType": 5123
		},
		{
			"bufferView": 1,
			"count": 2429,
			"type": "VEC3",
			"componentType": 5126,
			"min": [
				-0.612636566,
				1.15394585e-06,
				-1.82959199
			],
			"max": [
				0.615314424,
				1.84162199,
				1.82960165
			]
		},
		{
			"bufferView": 2,
			"count": 2429,
			"type": "VEC3",
			"componentType": 5126
		},
		{
			"bufferView": 3,
			"count": 2429,
			"type": "VEC4",
			"componentType": 5126
		},
		{
			"bufferView": 4,
			"count": 2429,
			"type": "VEC2",
			"componentType": 5126
		},
		{
			"bufferView": 5,
			"count": 2429,
			"type": "VEC2",
			"componentType": 5126
		}
	],
	"buffers": [
		{
			"uri": "SM_gasPumpsOld.bin",
			"byteLength": 142900
		}
	],
	"bufferViews": [
		{
			"buffer": 0,
			"byteLength": 6876,
			"target": 34963
		},
		{
			"buffer": 0,
			"byteLength": 29148,
			"byteOffset": 6876,
			"target": 34962
		},
		{
			"buffer": 0,
			"byteLength": 29148,
			"byteOffset": 36024,
			"target": 34962
		},
		{
			"buffer": 0,
			"byteLength": 38864,
			"byteOffset": 65172,
			"target": 34962
		},
		{
			"buffer": 0,
			"byteLength": 19432,
			"byteOffset": 104036,
			"target": 34962
		},
		{
			"buffer": 0,
			"byteLength": 19432,
			"byteOffset": 123468,
			"target": 34962
		}
	],
	"images": [
		{
			"uri": "MI_ColorPalette_MetallicRoughness.png"
		},
		{
			"uri": "T_colorPalette2048.png"
		}
	],
	"materials": [
		{
			"name": "MI_ColorPalette",
			"pbrMetallicRoughness":
			{
				"baseColorTexture":
				{
					"index": 0
				},
				"metallicRoughnessTexture":
				{
					"index": 1
				}
			},
			"doubleSided": true
		}
	],
	"meshes": [
		{
			"name": "SM_gasPumpsOld",
			"primitives": [
				{
					"attributes":
					{
						"POSITION": 1,
						"NORMAL": 2,
						"TANGENT": 3,
						"TEXCOORD_0": 4,
						"TEXCOORD_1": 5
					},
					"indices": 0,
					"material": 0
				}
			]
		}
	],
	"nodes": [
		{
			"mesh": 0
		}
	],
	"samplers": [
		{
			"minFilter": 9987,
			"magFilter": 9729
		}
	],
	"scenes": [
		{
			"nodes": [
				0
			]
		}
	],
	"textures": [
		{
			"name": "T_colorPalette2048",
			"sampler": 0,
			"source": 1
		},
		{
			"name": "MI_ColorPalette_MetallicRoughness",
			"sampler": 0,
			"source": 0
		}
	]
}