{
	"asset":
	{
		"version": "2.0",
		"generator": "Unreal Engine 5.8.0"
	},
	"scene": 0,
	"accessors": [
		{
			"bufferView": 0,
			"count": 1140,
			"type": "SCALAR",
			"componentType": 5123
		},
		{
			"bufferView": 1,
			"count": 816,
			"type": "VEC3",
			"componentType": 5126,
			"min": [
				-0.0983622521,
				-1.0706283e-17,
				-0.174846873
			],
			"max": [
				0.0983622521,
				0.462880403,
				0.174846873
			]
		},
		{
			"bufferView": 2,
			"count": 816,
			"type": "VEC3",
			"componentType": 5126
		},
		{
			"bufferView": 3,
			"count": 816,
			"type": "VEC4",
			"componentType": 5126
		},
		{
			"bufferView": 4,
			"count": 816,
			"type": "VEC2",
			"componentType": 5126
		},
		{
			"bufferView": 5,
			"count": 816,
			"type": "VEC2",
			"componentType": 5126
		}
	],
	"buffers": [
		{
			"uri": "SM_gas_can.bin",
			"byteLength": 47976
		}
	],
	"bufferViews": [
		{
			"buffer": 0,
			"byteLength": 2280,
			"target": 34963
		},
		{
			"buffer": 0,
			"byteLength": 9792,
			"byteOffset": 2280,
			"target": 34962
		},
		{
			"buffer": 0,
			"byteLength": 9792,
			"byteOffset": 12072,
			"target": 34962
		},
		{
			"buffer": 0,
			"byteLength": 13056,
			"byteOffset": 21864,
			"target": 34962
		},
		{
			"buffer": 0,
			"byteLength": 6528,
			"byteOffset": 34920,
			"target": 34962
		},
		{
			"buffer": 0,
			"byteLength": 6528,
			"byteOffset": 41448,
			"target": 34962
		}
	],
	"images": [
		{
			"uri": "MI_ColorPalette_MetallicRoughness.png"
		},
		{
			"uri": "T_colorPalette2048.png"
		}
	],
	"materials": [
		{
			"name": "MI_ColorPalette",
			"pbrMetallicRoughness":
			{
				"baseColorTexture":
				{
					"index": 0
				},
				"metallicRoughnessTexture":
				{
					"index": 1
				}
			},
			"doubleSided": true
		}
	],
	"meshes": [
		{
			"name": "SM_gas_can",
			"primitives": [
				{
					"attributes":
					{
						"POSITION": 1,
						"NORMAL": 2,
						"TANGENT": 3,
						"TEXCOORD_0": 4,
						"TEXCOORD_1": 5
					},
					"indices": 0,
					"material": 0
				}
			]
		}
	],
	"nodes": [
		{
			"mesh": 0
		}
	],
	"samplers": [
		{
			"minFilter": 9987,
			"magFilter": 9729
		}
	],
	"scenes": [
		{
			"nodes": [
				0
			]
		}
	],
	"textures": [
		{
			"name": "T_colorPalette2048",
			"sampler": 0,
			"source": 1
		},
		{
			"name": "MI_ColorPalette_MetallicRoughness",
			"sampler": 0,
			"source": 0
		}
	]
}