{
	"asset":
	{
		"version": "2.0",
		"generator": "Unreal Engine 5.8.0"
	},
	"scene": 0,
	"accessors": [
		{
			"bufferView": 0,
			"count": 2058,
			"type": "SCALAR",
			"componentType": 5123
		},
		{
			"bufferView": 1,
			"count": 1502,
			"type": "VEC3",
			"componentType": 5126,
			"min": [
				-0.613975406,
				4.7683713e-08,
				-2.51072741
			],
			"max": [
				0.613975525,
				1.43702495,
				2.51071501
			]
		},
		{
			"bufferView": 2,
			"count": 1502,
			"type": "VEC3",
			"componentType": 5126
		},
		{
			"bufferView": 3,
			"count": 1502,
			"type": "VEC4",
			"componentType": 5126
		},
		{
			"bufferView": 4,
			"count": 1502,
			"type": "VEC2",
			"componentType": 5126
		},
		{
			"bufferView": 5,
			"count": 1502,
			"type": "VEC2",
			"componentType": 5126
		}
	],
	"buffers": [
		{
			"uri": "SM_gasPumpsModern.bin",
			"byteLength": 88228
		}
	],
	"bufferViews": [
		{
			"buffer": 0,
			"byteLength": 4116,
			"target": 34963
		},
		{
			"buffer": 0,
			"byteLength": 18024,
			"byteOffset": 4116,
			"target": 34962
		},
		{
			"buffer": 0,
			"byteLength": 18024,
			"byteOffset": 22140,
			"target": 34962
		},
		{
			"buffer": 0,
			"byteLength": 24032,
			"byteOffset": 40164,
			"target": 34962
		},
		{
			"buffer": 0,
			"byteLength": 12016,
			"byteOffset": 64196,
			"target": 34962
		},
		{
			"buffer": 0,
			"byteLength": 12016,
			"byteOffset": 76212,
			"target": 34962
		}
	],
	"images": [
		{
			"uri": "MI_ColorPalette_MetallicRoughness.png"
		},
		{
			"uri": "T_colorPalette2048.png"
		}
	],
	"materials": [
		{
			"name": "MI_ColorPalette",
			"pbrMetallicRoughness":
			{
				"baseColorTexture":
				{
					"index": 0
				},
				"metallicRoughnessTexture":
				{
					"index": 1
				}
			},
			"doubleSided": true
		}
	],
	"meshes": [
		{
			"name": "SM_gasPumpsModern",
			"primitives": [
				{
					"attributes":
					{
						"POSITION": 1,
						"NORMAL": 2,
						"TANGENT": 3,
						"TEXCOORD_0": 4,
						"TEXCOORD_1": 5
					},
					"indices": 0,
					"material": 0
				}
			]
		}
	],
	"nodes": [
		{
			"mesh": 0
		}
	],
	"samplers": [
		{
			"minFilter": 9987,
			"magFilter": 9729
		}
	],
	"scenes": [
		{
			"nodes": [
				0
			]
		}
	],
	"textures": [
		{
			"name": "T_colorPalette2048",
			"sampler": 0,
			"source": 1
		},
		{
			"name": "MI_ColorPalette_MetallicRoughness",
			"sampler": 0,
			"source": 0
		}
	]
}