{
	"asset":
	{
		"version": "2.0",
		"generator": "Unreal Engine 5.8.0"
	},
	"scene": 0,
	"accessors": [
		{
			"bufferView": 0,
			"count": 1182,
			"type": "SCALAR",
			"componentType": 5123
		},
		{
			"bufferView": 1,
			"count": 730,
			"type": "VEC3",
			"componentType": 5126,
			"min": [
				-0.566394448,
				-0.00320935785,
				-0.314467818
			],
			"max": [
				0.441803426,
				1.02412879,
				0.312146187
			]
		},
		{
			"bufferView": 2,
			"count": 730,
			"type": "VEC3",
			"componentType": 5126
		},
		{
			"bufferView": 3,
			"count": 730,
			"type": "VEC4",
			"componentType": 5126
		},
		{
			"bufferView": 4,
			"count": 730,
			"type": "VEC2",
			"componentType": 5126
		},
		{
			"bufferView": 5,
			"count": 730,
			"type": "VEC2",
			"componentType": 5126
		}
	],
	"buffers": [
		{
			"uri": "SM_grassCutter.bin",
			"byteLength": 43244
		}
	],
	"bufferViews": [
		{
			"buffer": 0,
			"byteLength": 2364,
			"target": 34963
		},
		{
			"buffer": 0,
			"byteLength": 8760,
			"byteOffset": 2364,
			"target": 34962
		},
		{
			"buffer": 0,
			"byteLength": 8760,
			"byteOffset": 11124,
			"target": 34962
		},
		{
			"buffer": 0,
			"byteLength": 11680,
			"byteOffset": 19884,
			"target": 34962
		},
		{
			"buffer": 0,
			"byteLength": 5840,
			"byteOffset": 31564,
			"target": 34962
		},
		{
			"buffer": 0,
			"byteLength": 5840,
			"byteOffset": 37404,
			"target": 34962
		}
	],
	"images": [
		{
			"uri": "MI_ColorPalette_MetallicRoughness.png"
		},
		{
			"uri": "T_colorPalette2048.png"
		}
	],
	"materials": [
		{
			"name": "MI_ColorPalette",
			"pbrMetallicRoughness":
			{
				"baseColorTexture":
				{
					"index": 0
				},
				"metallicRoughnessTexture":
				{
					"index": 1
				}
			},
			"doubleSided": true
		}
	],
	"meshes": [
		{
			"name": "SM_grassCutter",
			"primitives": [
				{
					"attributes":
					{
						"POSITION": 1,
						"NORMAL": 2,
						"TANGENT": 3,
						"TEXCOORD_0": 4,
						"TEXCOORD_1": 5
					},
					"indices": 0,
					"material": 0
				}
			]
		}
	],
	"nodes": [
		{
			"mesh": 0
		}
	],
	"samplers": [
		{
			"minFilter": 9987,
			"magFilter": 9729
		}
	],
	"scenes": [
		{
			"nodes": [
				0
			]
		}
	],
	"textures": [
		{
			"name": "T_colorPalette2048",
			"sampler": 0,
			"source": 1
		},
		{
			"name": "MI_ColorPalette_MetallicRoughness",
			"sampler": 0,
			"source": 0
		}
	]
}