{
	"asset":
	{
		"version": "2.0",
		"generator": "Unreal Engine 5.8.0"
	},
	"scene": 0,
	"accessors": [
		{
			"bufferView": 0,
			"count": 2190,
			"type": "SCALAR",
			"componentType": 5123
		},
		{
			"bufferView": 1,
			"count": 1458,
			"type": "VEC3",
			"componentType": 5126,
			"min": [
				-0.328808576,
				-0.00423949817,
				-0.36264655
			],
			"max": [
				0.328798831,
				1.00754237,
				0.362646401
			]
		},
		{
			"bufferView": 2,
			"count": 1458,
			"type": "VEC3",
			"componentType": 5126
		},
		{
			"bufferView": 3,
			"count": 1458,
			"type": "VEC4",
			"componentType": 5126
		},
		{
			"bufferView": 4,
			"count": 1458,
			"type": "VEC2",
			"componentType": 5126
		},
		{
			"bufferView": 5,
			"count": 1458,
			"type": "VEC2",
			"componentType": 5126
		}
	],
	"buffers": [
		{
			"uri": "SM_hydrant.bin",
			"byteLength": 86028
		}
	],
	"bufferViews": [
		{
			"buffer": 0,
			"byteLength": 4380,
			"target": 34963
		},
		{
			"buffer": 0,
			"byteLength": 17496,
			"byteOffset": 4380,
			"target": 34962
		},
		{
			"buffer": 0,
			"byteLength": 17496,
			"byteOffset": 21876,
			"target": 34962
		},
		{
			"buffer": 0,
			"byteLength": 23328,
			"byteOffset": 39372,
			"target": 34962
		},
		{
			"buffer": 0,
			"byteLength": 11664,
			"byteOffset": 62700,
			"target": 34962
		},
		{
			"buffer": 0,
			"byteLength": 11664,
			"byteOffset": 74364,
			"target": 34962
		}
	],
	"images": [
		{
			"uri": "MI_ColorPalette_MetallicRoughness.png"
		},
		{
			"uri": "T_colorPalette2048.png"
		}
	],
	"materials": [
		{
			"name": "MI_ColorPalette",
			"pbrMetallicRoughness":
			{
				"baseColorTexture":
				{
					"index": 0
				},
				"metallicRoughnessTexture":
				{
					"index": 1
				}
			},
			"doubleSided": true
		}
	],
	"meshes": [
		{
			"name": "SM_hydrant",
			"primitives": [
				{
					"attributes":
					{
						"POSITION": 1,
						"NORMAL": 2,
						"TANGENT": 3,
						"TEXCOORD_0": 4,
						"TEXCOORD_1": 5
					},
					"indices": 0,
					"material": 0
				}
			]
		}
	],
	"nodes": [
		{
			"mesh": 0
		}
	],
	"samplers": [
		{
			"minFilter": 9987,
			"magFilter": 9729
		}
	],
	"scenes": [
		{
			"nodes": [
				0
			]
		}
	],
	"textures": [
		{
			"name": "T_colorPalette2048",
			"sampler": 0,
			"source": 1
		},
		{
			"name": "MI_ColorPalette_MetallicRoughness",
			"sampler": 0,
			"source": 0
		}
	]
}