{
	"asset":
	{
		"version": "2.0",
		"generator": "Unreal Engine 5.8.0"
	},
	"scene": 0,
	"accessors": [
		{
			"bufferView": 0,
			"count": 522,
			"type": "SCALAR",
			"componentType": 5123
		},
		{
			"bufferView": 1,
			"count": 444,
			"type": "VEC3",
			"componentType": 5126,
			"min": [
				-0.315010905,
				-0.0391736552,
				-0.151125684
			],
			"max": [
				0.315010905,
				0.0391734913,
				0.151125774
			]
		},
		{
			"bufferView": 2,
			"count": 444,
			"type": "VEC3",
			"componentType": 5126
		},
		{
			"bufferView": 3,
			"count": 444,
			"type": "VEC4",
			"componentType": 5126
		},
		{
			"bufferView": 4,
			"count": 444,
			"type": "VEC2",
			"componentType": 5126
		},
		{
			"bufferView": 5,
			"count": 444,
			"type": "VEC2",
			"componentType": 5126
		}
	],
	"buffers": [
		{
			"uri": "SM_hammer.bin",
			"byteLength": 25908
		}
	],
	"bufferViews": [
		{
			"buffer": 0,
			"byteLength": 1044,
			"target": 34963
		},
		{
			"buffer": 0,
			"byteLength": 5328,
			"byteOffset": 1044,
			"target": 34962
		},
		{
			"buffer": 0,
			"byteLength": 5328,
			"byteOffset": 6372,
			"target": 34962
		},
		{
			"buffer": 0,
			"byteLength": 7104,
			"byteOffset": 11700,
			"target": 34962
		},
		{
			"buffer": 0,
			"byteLength": 3552,
			"byteOffset": 18804,
			"target": 34962
		},
		{
			"buffer": 0,
			"byteLength": 3552,
			"byteOffset": 22356,
			"target": 34962
		}
	],
	"images": [
		{
			"uri": "MI_ColorPalette_MetallicRoughness.png"
		},
		{
			"uri": "T_colorPalette2048.png"
		}
	],
	"materials": [
		{
			"name": "MI_ColorPalette",
			"pbrMetallicRoughness":
			{
				"baseColorTexture":
				{
					"index": 0
				},
				"metallicRoughnessTexture":
				{
					"index": 1
				}
			},
			"doubleSided": true
		}
	],
	"meshes": [
		{
			"name": "SM_hammer",
			"primitives": [
				{
					"attributes":
					{
						"POSITION": 1,
						"NORMAL": 2,
						"TANGENT": 3,
						"TEXCOORD_0": 4,
						"TEXCOORD_1": 5
					},
					"indices": 0,
					"material": 0
				}
			]
		}
	],
	"nodes": [
		{
			"mesh": 0
		}
	],
	"samplers": [
		{
			"minFilter": 9987,
			"magFilter": 9729
		}
	],
	"scenes": [
		{
			"nodes": [
				0
			]
		}
	],
	"textures": [
		{
			"name": "T_colorPalette2048",
			"sampler": 0,
			"source": 1
		},
		{
			"name": "MI_ColorPalette_MetallicRoughness",
			"sampler": 0,
			"source": 0
		}
	]
}