{
	"asset":
	{
		"version": "2.0",
		"generator": "Unreal Engine 5.8.0"
	},
	"scene": 0,
	"accessors": [
		{
			"bufferView": 0,
			"count": 2394,
			"type": "SCALAR",
			"componentType": 5123
		},
		{
			"bufferView": 1,
			"count": 1627,
			"type": "VEC3",
			"componentType": 5126,
			"min": [
				-0.297733516,
				-4.85069442e-08,
				-0.297733605
			],
			"max": [
				0.297733516,
				0.847387195,
				0.297733516
			]
		},
		{
			"bufferView": 2,
			"count": 1627,
			"type": "VEC3",
			"componentType": 5126
		},
		{
			"bufferView": 3,
			"count": 1627,
			"type": "VEC4",
			"componentType": 5126
		},
		{
			"bufferView": 4,
			"count": 1627,
			"type": "VEC2",
			"componentType": 5126
		},
		{
			"bufferView": 5,
			"count": 1627,
			"type": "VEC2",
			"componentType": 5126
		}
	],
	"buffers": [
		{
			"uri": "SM_keg.bin",
			"byteLength": 95900
		}
	],
	"bufferViews": [
		{
			"buffer": 0,
			"byteLength": 4788,
			"target": 34963
		},
		{
			"buffer": 0,
			"byteLength": 19524,
			"byteOffset": 4788,
			"target": 34962
		},
		{
			"buffer": 0,
			"byteLength": 19524,
			"byteOffset": 24312,
			"target": 34962
		},
		{
			"buffer": 0,
			"byteLength": 26032,
			"byteOffset": 43836,
			"target": 34962
		},
		{
			"buffer": 0,
			"byteLength": 13016,
			"byteOffset": 69868,
			"target": 34962
		},
		{
			"buffer": 0,
			"byteLength": 13016,
			"byteOffset": 82884,
			"target": 34962
		}
	],
	"images": [
		{
			"uri": "MI_ColorPalette_MetallicRoughness.png"
		},
		{
			"uri": "T_colorPalette2048.png"
		}
	],
	"materials": [
		{
			"name": "MI_ColorPalette",
			"pbrMetallicRoughness":
			{
				"baseColorTexture":
				{
					"index": 0
				},
				"metallicRoughnessTexture":
				{
					"index": 1
				}
			},
			"doubleSided": true
		}
	],
	"meshes": [
		{
			"name": "SM_keg",
			"primitives": [
				{
					"attributes":
					{
						"POSITION": 1,
						"NORMAL": 2,
						"TANGENT": 3,
						"TEXCOORD_0": 4,
						"TEXCOORD_1": 5
					},
					"indices": 0,
					"material": 0
				}
			]
		}
	],
	"nodes": [
		{
			"mesh": 0
		}
	],
	"samplers": [
		{
			"minFilter": 9987,
			"magFilter": 9729
		}
	],
	"scenes": [
		{
			"nodes": [
				0
			]
		}
	],
	"textures": [
		{
			"name": "T_colorPalette2048",
			"sampler": 0,
			"source": 1
		},
		{
			"name": "MI_ColorPalette_MetallicRoughness",
			"sampler": 0,
			"source": 0
		}
	]
}