{
	"asset":
	{
		"version": "2.0",
		"generator": "Unreal Engine 5.8.0"
	},
	"scene": 0,
	"accessors": [
		{
			"bufferView": 0,
			"count": 1380,
			"type": "SCALAR",
			"componentType": 5123
		},
		{
			"bufferView": 1,
			"count": 892,
			"type": "VEC3",
			"componentType": 5126,
			"min": [
				-0.643652797,
				-2.12684232e-17,
				-0.347341031
			],
			"max": [
				0.643649876,
				2.23762703,
				0.347339779
			]
		},
		{
			"bufferView": 2,
			"count": 892,
			"type": "VEC3",
			"componentType": 5126
		},
		{
			"bufferView": 3,
			"count": 892,
			"type": "VEC4",
			"componentType": 5126
		},
		{
			"bufferView": 4,
			"count": 892,
			"type": "VEC2",
			"componentType": 5126
		},
		{
			"bufferView": 5,
			"count": 892,
			"type": "VEC2",
			"componentType": 5126
		}
	],
	"buffers": [
		{
			"uri": "SM_ladder_01.bin",
			"byteLength": 52712
		}
	],
	"bufferViews": [
		{
			"buffer": 0,
			"byteLength": 2760,
			"target": 34963
		},
		{
			"buffer": 0,
			"byteLength": 10704,
			"byteOffset": 2760,
			"target": 34962
		},
		{
			"buffer": 0,
			"byteLength": 10704,
			"byteOffset": 13464,
			"target": 34962
		},
		{
			"buffer": 0,
			"byteLength": 14272,
			"byteOffset": 24168,
			"target": 34962
		},
		{
			"buffer": 0,
			"byteLength": 7136,
			"byteOffset": 38440,
			"target": 34962
		},
		{
			"buffer": 0,
			"byteLength": 7136,
			"byteOffset": 45576,
			"target": 34962
		}
	],
	"images": [
		{
			"uri": "MI_ColorPalette_MetallicRoughness.png"
		},
		{
			"uri": "T_colorPalette2048.png"
		}
	],
	"materials": [
		{
			"name": "MI_ColorPalette",
			"pbrMetallicRoughness":
			{
				"baseColorTexture":
				{
					"index": 0
				},
				"metallicRoughnessTexture":
				{
					"index": 1
				}
			},
			"doubleSided": true
		}
	],
	"meshes": [
		{
			"name": "SM_ladder_01",
			"primitives": [
				{
					"attributes":
					{
						"POSITION": 1,
						"NORMAL": 2,
						"TANGENT": 3,
						"TEXCOORD_0": 4,
						"TEXCOORD_1": 5
					},
					"indices": 0,
					"material": 0
				}
			]
		}
	],
	"nodes": [
		{
			"mesh": 0
		}
	],
	"samplers": [
		{
			"minFilter": 9987,
			"magFilter": 9729
		}
	],
	"scenes": [
		{
			"nodes": [
				0
			]
		}
	],
	"textures": [
		{
			"name": "T_colorPalette2048",
			"sampler": 0,
			"source": 1
		},
		{
			"name": "MI_ColorPalette_MetallicRoughness",
			"sampler": 0,
			"source": 0
		}
	]
}