{
	"asset":
	{
		"version": "2.0",
		"generator": "Unreal Engine 5.8.0"
	},
	"scene": 0,
	"accessors": [
		{
			"bufferView": 0,
			"count": 1362,
			"type": "SCALAR",
			"componentType": 5123
		},
		{
			"bufferView": 1,
			"count": 1076,
			"type": "VEC3",
			"componentType": 5126,
			"min": [
				-0.267428786,
				-1.63752893e-17,
				-0.267428786
			],
			"max": [
				2.43299508,
				6.17364264,
				0.267428786
			]
		},
		{
			"bufferView": 2,
			"count": 1076,
			"type": "VEC3",
			"componentType": 5126
		},
		{
			"bufferView": 3,
			"count": 1076,
			"type": "VEC4",
			"componentType": 5126
		},
		{
			"bufferView": 4,
			"count": 1076,
			"type": "VEC2",
			"componentType": 5126
		},
		{
			"bufferView": 5,
			"count": 1076,
			"type": "VEC2",
			"componentType": 5126
		}
	],
	"buffers": [
		{
			"uri": "SM_lantern.bin",
			"byteLength": 62980
		}
	],
	"bufferViews": [
		{
			"buffer": 0,
			"byteLength": 2724,
			"target": 34963
		},
		{
			"buffer": 0,
			"byteLength": 12912,
			"byteOffset": 2724,
			"target": 34962
		},
		{
			"buffer": 0,
			"byteLength": 12912,
			"byteOffset": 15636,
			"target": 34962
		},
		{
			"buffer": 0,
			"byteLength": 17216,
			"byteOffset": 28548,
			"target": 34962
		},
		{
			"buffer": 0,
			"byteLength": 8608,
			"byteOffset": 45764,
			"target": 34962
		},
		{
			"buffer": 0,
			"byteLength": 8608,
			"byteOffset": 54372,
			"target": 34962
		}
	],
	"images": [
		{
			"uri": "MI_ColorPalette_MetallicRoughness.png"
		},
		{
			"uri": "T_colorPalette2048.png"
		}
	],
	"materials": [
		{
			"name": "MI_ColorPalette",
			"pbrMetallicRoughness":
			{
				"baseColorTexture":
				{
					"index": 0
				},
				"metallicRoughnessTexture":
				{
					"index": 1
				}
			},
			"doubleSided": true
		}
	],
	"meshes": [
		{
			"name": "SM_lantern",
			"primitives": [
				{
					"attributes":
					{
						"POSITION": 1,
						"NORMAL": 2,
						"TANGENT": 3,
						"TEXCOORD_0": 4,
						"TEXCOORD_1": 5
					},
					"indices": 0,
					"material": 0
				}
			]
		}
	],
	"nodes": [
		{
			"mesh": 0
		}
	],
	"samplers": [
		{
			"minFilter": 9987,
			"magFilter": 9729
		}
	],
	"scenes": [
		{
			"nodes": [
				0
			]
		}
	],
	"textures": [
		{
			"name": "T_colorPalette2048",
			"sampler": 0,
			"source": 1
		},
		{
			"name": "MI_ColorPalette_MetallicRoughness",
			"sampler": 0,
			"source": 0
		}
	]
}