{
	"asset":
	{
		"version": "2.0",
		"generator": "Unreal Engine 5.8.0"
	},
	"scene": 0,
	"accessors": [
		{
			"bufferView": 0,
			"count": 918,
			"type": "SCALAR",
			"componentType": 5123
		},
		{
			"bufferView": 1,
			"count": 634,
			"type": "VEC3",
			"componentType": 5126,
			"min": [
				-0.0486810096,
				-2.98085204e-18,
				-0.148255184
			],
			"max": [
				0.814005792,
				1.45034754,
				0.148255184
			]
		},
		{
			"bufferView": 2,
			"count": 634,
			"type": "VEC3",
			"componentType": 5126
		},
		{
			"bufferView": 3,
			"count": 634,
			"type": "VEC4",
			"componentType": 5126
		},
		{
			"bufferView": 4,
			"count": 634,
			"type": "VEC2",
			"componentType": 5126
		},
		{
			"bufferView": 5,
			"count": 634,
			"type": "VEC2",
			"componentType": 5126
		}
	],
	"buffers": [
		{
			"uri": "SM_mailbox_2.bin",
			"byteLength": 37340
		}
	],
	"bufferViews": [
		{
			"buffer": 0,
			"byteLength": 1836,
			"target": 34963
		},
		{
			"buffer": 0,
			"byteLength": 7608,
			"byteOffset": 1836,
			"target": 34962
		},
		{
			"buffer": 0,
			"byteLength": 7608,
			"byteOffset": 9444,
			"target": 34962
		},
		{
			"buffer": 0,
			"byteLength": 10144,
			"byteOffset": 17052,
			"target": 34962
		},
		{
			"buffer": 0,
			"byteLength": 5072,
			"byteOffset": 27196,
			"target": 34962
		},
		{
			"buffer": 0,
			"byteLength": 5072,
			"byteOffset": 32268,
			"target": 34962
		}
	],
	"images": [
		{
			"uri": "MI_ColorPalette_MetallicRoughness.png"
		},
		{
			"uri": "T_colorPalette2048.png"
		}
	],
	"materials": [
		{
			"name": "MI_ColorPalette",
			"pbrMetallicRoughness":
			{
				"baseColorTexture":
				{
					"index": 0
				},
				"metallicRoughnessTexture":
				{
					"index": 1
				}
			},
			"doubleSided": true
		}
	],
	"meshes": [
		{
			"name": "SM_mailbox_2",
			"primitives": [
				{
					"attributes":
					{
						"POSITION": 1,
						"NORMAL": 2,
						"TANGENT": 3,
						"TEXCOORD_0": 4,
						"TEXCOORD_1": 5
					},
					"indices": 0,
					"material": 0
				}
			]
		}
	],
	"nodes": [
		{
			"mesh": 0
		}
	],
	"samplers": [
		{
			"minFilter": 9987,
			"magFilter": 9729
		}
	],
	"scenes": [
		{
			"nodes": [
				0
			]
		}
	],
	"textures": [
		{
			"name": "T_colorPalette2048",
			"sampler": 0,
			"source": 1
		},
		{
			"name": "MI_ColorPalette_MetallicRoughness",
			"sampler": 0,
			"source": 0
		}
	]
}