{
	"asset":
	{
		"version": "2.0",
		"generator": "Unreal Engine 5.8.0"
	},
	"scene": 0,
	"accessors": [
		{
			"bufferView": 0,
			"count": 504,
			"type": "SCALAR",
			"componentType": 5123
		},
		{
			"bufferView": 1,
			"count": 338,
			"type": "VEC3",
			"componentType": 5126,
			"min": [
				-0.28713426,
				-2.64092316e-17,
				-0.431295455
			],
			"max": [
				0.28713426,
				0.988401175,
				0.431295455
			]
		},
		{
			"bufferView": 2,
			"count": 338,
			"type": "VEC3",
			"componentType": 5126
		},
		{
			"bufferView": 3,
			"count": 338,
			"type": "VEC4",
			"componentType": 5126
		},
		{
			"bufferView": 4,
			"count": 338,
			"type": "VEC2",
			"componentType": 5126
		},
		{
			"bufferView": 5,
			"count": 338,
			"type": "VEC2",
			"componentType": 5126
		}
	],
	"buffers": [
		{
			"uri": "SM_metal_box.bin",
			"byteLength": 19936
		}
	],
	"bufferViews": [
		{
			"buffer": 0,
			"byteLength": 1008,
			"target": 34963
		},
		{
			"buffer": 0,
			"byteLength": 4056,
			"byteOffset": 1008,
			"target": 34962
		},
		{
			"buffer": 0,
			"byteLength": 4056,
			"byteOffset": 5064,
			"target": 34962
		},
		{
			"buffer": 0,
			"byteLength": 5408,
			"byteOffset": 9120,
			"target": 34962
		},
		{
			"buffer": 0,
			"byteLength": 2704,
			"byteOffset": 14528,
			"target": 34962
		},
		{
			"buffer": 0,
			"byteLength": 2704,
			"byteOffset": 17232,
			"target": 34962
		}
	],
	"images": [
		{
			"uri": "MI_ColorPalette_MetallicRoughness.png"
		},
		{
			"uri": "T_colorPalette2048.png"
		}
	],
	"materials": [
		{
			"name": "MI_ColorPalette",
			"pbrMetallicRoughness":
			{
				"baseColorTexture":
				{
					"index": 0
				},
				"metallicRoughnessTexture":
				{
					"index": 1
				}
			},
			"doubleSided": true
		}
	],
	"meshes": [
		{
			"name": "SM_metal_box",
			"primitives": [
				{
					"attributes":
					{
						"POSITION": 1,
						"NORMAL": 2,
						"TANGENT": 3,
						"TEXCOORD_0": 4,
						"TEXCOORD_1": 5
					},
					"indices": 0,
					"material": 0
				}
			]
		}
	],
	"nodes": [
		{
			"mesh": 0
		}
	],
	"samplers": [
		{
			"minFilter": 9987,
			"magFilter": 9729
		}
	],
	"scenes": [
		{
			"nodes": [
				0
			]
		}
	],
	"textures": [
		{
			"name": "T_colorPalette2048",
			"sampler": 0,
			"source": 1
		},
		{
			"name": "MI_ColorPalette_MetallicRoughness",
			"sampler": 0,
			"source": 0
		}
	]
}