{
	"asset":
	{
		"version": "2.0",
		"generator": "Unreal Engine 5.8.0"
	},
	"scene": 0,
	"accessors": [
		{
			"bufferView": 0,
			"count": 2763,
			"type": "SCALAR",
			"componentType": 5123
		},
		{
			"bufferView": 1,
			"count": 2009,
			"type": "VEC3",
			"componentType": 5126,
			"min": [
				-0.334716022,
				-0.000990610337,
				-0.367806375
			],
			"max": [
				0.334896356,
				1.41977561,
				0.367806494
			]
		},
		{
			"bufferView": 2,
			"count": 2009,
			"type": "VEC3",
			"componentType": 5126
		},
		{
			"bufferView": 3,
			"count": 2009,
			"type": "VEC4",
			"componentType": 5126
		},
		{
			"bufferView": 4,
			"count": 2009,
			"type": "VEC2",
			"componentType": 5126
		},
		{
			"bufferView": 5,
			"count": 2009,
			"type": "VEC2",
			"componentType": 5126
		}
	],
	"buffers": [
		{
			"uri": "SM_mailbox_1.bin",
			"byteLength": 118032
		}
	],
	"bufferViews": [
		{
			"buffer": 0,
			"byteLength": 5526,
			"target": 34963
		},
		{
			"buffer": 0,
			"byteLength": 24108,
			"byteOffset": 5528,
			"target": 34962
		},
		{
			"buffer": 0,
			"byteLength": 24108,
			"byteOffset": 29636,
			"target": 34962
		},
		{
			"buffer": 0,
			"byteLength": 32144,
			"byteOffset": 53744,
			"target": 34962
		},
		{
			"buffer": 0,
			"byteLength": 16072,
			"byteOffset": 85888,
			"target": 34962
		},
		{
			"buffer": 0,
			"byteLength": 16072,
			"byteOffset": 101960,
			"target": 34962
		}
	],
	"images": [
		{
			"uri": "MI_ColorPalette_MetallicRoughness.png"
		},
		{
			"uri": "T_colorPalette2048.png"
		}
	],
	"materials": [
		{
			"name": "MI_ColorPalette",
			"pbrMetallicRoughness":
			{
				"baseColorTexture":
				{
					"index": 0
				},
				"metallicRoughnessTexture":
				{
					"index": 1
				}
			},
			"doubleSided": true
		}
	],
	"meshes": [
		{
			"name": "SM_mailbox_1",
			"primitives": [
				{
					"attributes":
					{
						"POSITION": 1,
						"NORMAL": 2,
						"TANGENT": 3,
						"TEXCOORD_0": 4,
						"TEXCOORD_1": 5
					},
					"indices": 0,
					"material": 0
				}
			]
		}
	],
	"nodes": [
		{
			"mesh": 0
		}
	],
	"samplers": [
		{
			"minFilter": 9987,
			"magFilter": 9729
		}
	],
	"scenes": [
		{
			"nodes": [
				0
			]
		}
	],
	"textures": [
		{
			"name": "T_colorPalette2048",
			"sampler": 0,
			"source": 1
		},
		{
			"name": "MI_ColorPalette_MetallicRoughness",
			"sampler": 0,
			"source": 0
		}
	]
}