{
	"asset":
	{
		"version": "2.0",
		"generator": "Unreal Engine 5.8.0"
	},
	"scene": 0,
	"accessors": [
		{
			"bufferView": 0,
			"count": 264,
			"type": "SCALAR",
			"componentType": 5121
		},
		{
			"bufferView": 1,
			"count": 184,
			"type": "VEC3",
			"componentType": 5126,
			"min": [
				-0.205749989,
				-3.05175774e-07,
				-0.218623504
			],
			"max": [
				0.205759004,
				0.0297743212,
				0.21862343
			]
		},
		{
			"bufferView": 2,
			"count": 184,
			"type": "VEC3",
			"componentType": 5126
		},
		{
			"bufferView": 3,
			"count": 184,
			"type": "VEC4",
			"componentType": 5126
		},
		{
			"bufferView": 4,
			"count": 184,
			"type": "VEC2",
			"componentType": 5126
		},
		{
			"bufferView": 5,
			"count": 184,
			"type": "VEC2",
			"componentType": 5126
		}
	],
	"buffers": [
		{
			"uri": "SM_newspaperSingle.bin",
			"byteLength": 10568
		}
	],
	"bufferViews": [
		{
			"buffer": 0,
			"byteLength": 264,
			"target": 34963
		},
		{
			"buffer": 0,
			"byteLength": 2208,
			"byteOffset": 264,
			"target": 34962
		},
		{
			"buffer": 0,
			"byteLength": 2208,
			"byteOffset": 2472,
			"target": 34962
		},
		{
			"buffer": 0,
			"byteLength": 2944,
			"byteOffset": 4680,
			"target": 34962
		},
		{
			"buffer": 0,
			"byteLength": 1472,
			"byteOffset": 7624,
			"target": 34962
		},
		{
			"buffer": 0,
			"byteLength": 1472,
			"byteOffset": 9096,
			"target": 34962
		}
	],
	"images": [
		{
			"uri": "MI_ColorPalette_MetallicRoughness.png"
		},
		{
			"uri": "T_colorPalette2048.png"
		}
	],
	"materials": [
		{
			"name": "MI_ColorPalette",
			"pbrMetallicRoughness":
			{
				"baseColorTexture":
				{
					"index": 0
				},
				"metallicRoughnessTexture":
				{
					"index": 1
				}
			},
			"doubleSided": true
		}
	],
	"meshes": [
		{
			"name": "SM_newspaperSingle",
			"primitives": [
				{
					"attributes":
					{
						"POSITION": 1,
						"NORMAL": 2,
						"TANGENT": 3,
						"TEXCOORD_0": 4,
						"TEXCOORD_1": 5
					},
					"indices": 0,
					"material": 0
				}
			]
		}
	],
	"nodes": [
		{
			"mesh": 0
		}
	],
	"samplers": [
		{
			"minFilter": 9987,
			"magFilter": 9729
		}
	],
	"scenes": [
		{
			"nodes": [
				0
			]
		}
	],
	"textures": [
		{
			"name": "T_colorPalette2048",
			"sampler": 0,
			"source": 1
		},
		{
			"name": "MI_ColorPalette_MetallicRoughness",
			"sampler": 0,
			"source": 0
		}
	]
}