{
	"asset":
	{
		"version": "2.0",
		"generator": "Unreal Engine 5.8.0"
	},
	"scene": 0,
	"accessors": [
		{
			"bufferView": 0,
			"count": 480,
			"type": "SCALAR",
			"componentType": 5123
		},
		{
			"bufferView": 1,
			"count": 302,
			"type": "VEC3",
			"componentType": 5126,
			"min": [
				-0.209983528,
				8.0361508e-07,
				-0.218623564
			],
			"max": [
				0.209988177,
				0.212873191,
				0.218623534
			]
		},
		{
			"bufferView": 2,
			"count": 302,
			"type": "VEC3",
			"componentType": 5126
		},
		{
			"bufferView": 3,
			"count": 302,
			"type": "VEC4",
			"componentType": 5126
		},
		{
			"bufferView": 4,
			"count": 302,
			"type": "VEC2",
			"componentType": 5126
		},
		{
			"bufferView": 5,
			"count": 302,
			"type": "VEC2",
			"componentType": 5126
		}
	],
	"buffers": [
		{
			"uri": "SM_newspaperStack.bin",
			"byteLength": 17872
		}
	],
	"bufferViews": [
		{
			"buffer": 0,
			"byteLength": 960,
			"target": 34963
		},
		{
			"buffer": 0,
			"byteLength": 3624,
			"byteOffset": 960,
			"target": 34962
		},
		{
			"buffer": 0,
			"byteLength": 3624,
			"byteOffset": 4584,
			"target": 34962
		},
		{
			"buffer": 0,
			"byteLength": 4832,
			"byteOffset": 8208,
			"target": 34962
		},
		{
			"buffer": 0,
			"byteLength": 2416,
			"byteOffset": 13040,
			"target": 34962
		},
		{
			"buffer": 0,
			"byteLength": 2416,
			"byteOffset": 15456,
			"target": 34962
		}
	],
	"images": [
		{
			"uri": "M_BaseColorPalette_MetallicRoughness.png"
		},
		{
			"uri": "T_colorPalette2048.png"
		}
	],
	"materials": [
		{
			"name": "M_BaseColorPalette",
			"pbrMetallicRoughness":
			{
				"baseColorTexture":
				{
					"index": 0
				},
				"metallicRoughnessTexture":
				{
					"index": 1
				}
			},
			"doubleSided": true
		}
	],
	"meshes": [
		{
			"name": "SM_newspaperStack",
			"primitives": [
				{
					"attributes":
					{
						"POSITION": 1,
						"NORMAL": 2,
						"TANGENT": 3,
						"TEXCOORD_0": 4,
						"TEXCOORD_1": 5
					},
					"indices": 0,
					"material": 0
				}
			]
		}
	],
	"nodes": [
		{
			"mesh": 0
		}
	],
	"samplers": [
		{
			"minFilter": 9987,
			"magFilter": 9729
		}
	],
	"scenes": [
		{
			"nodes": [
				0
			]
		}
	],
	"textures": [
		{
			"name": "T_colorPalette2048",
			"sampler": 0,
			"source": 1
		},
		{
			"name": "M_BaseColorPalette_MetallicRoughness",
			"sampler": 0,
			"source": 0
		}
	]
}