{
	"asset":
	{
		"version": "2.0",
		"generator": "Unreal Engine 5.8.0"
	},
	"scene": 0,
	"accessors": [
		{
			"bufferView": 0,
			"count": 3456,
			"type": "SCALAR",
			"componentType": 5123
		},
		{
			"bufferView": 1,
			"count": 2322,
			"type": "VEC3",
			"componentType": 5126,
			"min": [
				-0.0121789547,
				-2.06119919,
				-0.922236681
			],
			"max": [
				23.9999962,
				1.50858641,
				0.75911504
			]
		},
		{
			"bufferView": 2,
			"count": 2322,
			"type": "VEC3",
			"componentType": 5126
		},
		{
			"bufferView": 3,
			"count": 2322,
			"type": "VEC4",
			"componentType": 5126
		},
		{
			"bufferView": 4,
			"count": 2322,
			"type": "VEC2",
			"componentType": 5126
		},
		{
			"bufferView": 5,
			"count": 2322,
			"type": "VEC2",
			"componentType": 5126
		}
	],
	"buffers": [
		{
			"uri": "SM_powerCables_3.bin",
			"byteLength": 136944
		}
	],
	"bufferViews": [
		{
			"buffer": 0,
			"byteLength": 6912,
			"target": 34963
		},
		{
			"buffer": 0,
			"byteLength": 27864,
			"byteOffset": 6912,
			"target": 34962
		},
		{
			"buffer": 0,
			"byteLength": 27864,
			"byteOffset": 34776,
			"target": 34962
		},
		{
			"buffer": 0,
			"byteLength": 37152,
			"byteOffset": 62640,
			"target": 34962
		},
		{
			"buffer": 0,
			"byteLength": 18576,
			"byteOffset": 99792,
			"target": 34962
		},
		{
			"buffer": 0,
			"byteLength": 18576,
			"byteOffset": 118368,
			"target": 34962
		}
	],
	"images": [
		{
			"uri": "MI_ColorPalette_MetallicRoughness.png"
		},
		{
			"uri": "T_colorPalette2048.png"
		}
	],
	"materials": [
		{
			"name": "MI_ColorPalette",
			"pbrMetallicRoughness":
			{
				"baseColorTexture":
				{
					"index": 0
				},
				"metallicRoughnessTexture":
				{
					"index": 1
				}
			},
			"doubleSided": true
		}
	],
	"meshes": [
		{
			"name": "SM_powerCables_3",
			"primitives": [
				{
					"attributes":
					{
						"POSITION": 1,
						"NORMAL": 2,
						"TANGENT": 3,
						"TEXCOORD_0": 4,
						"TEXCOORD_1": 5
					},
					"indices": 0,
					"material": 0
				}
			]
		}
	],
	"nodes": [
		{
			"mesh": 0
		}
	],
	"samplers": [
		{
			"minFilter": 9987,
			"magFilter": 9729
		}
	],
	"scenes": [
		{
			"nodes": [
				0
			]
		}
	],
	"textures": [
		{
			"name": "T_colorPalette2048",
			"sampler": 0,
			"source": 1
		},
		{
			"name": "MI_ColorPalette_MetallicRoughness",
			"sampler": 0,
			"source": 0
		}
	]
}