{
	"asset":
	{
		"version": "2.0",
		"generator": "Unreal Engine 5.8.0"
	},
	"scene": 0,
	"accessors": [
		{
			"bufferView": 0,
			"count": 1764,
			"type": "SCALAR",
			"componentType": 5123
		},
		{
			"bufferView": 1,
			"count": 1321,
			"type": "VEC3",
			"componentType": 5126,
			"min": [
				-0.235540554,
				-1.25231944e-17,
				-0.242840022
			],
			"max": [
				0.235540628,
				0.563775837,
				0.219917238
			]
		},
		{
			"bufferView": 2,
			"count": 1321,
			"type": "VEC3",
			"componentType": 5126
		},
		{
			"bufferView": 3,
			"count": 1321,
			"type": "VEC4",
			"componentType": 5126
		},
		{
			"bufferView": 4,
			"count": 1321,
			"type": "VEC2",
			"componentType": 5126
		},
		{
			"bufferView": 5,
			"count": 1321,
			"type": "VEC2",
			"componentType": 5126
		}
	],
	"buffers": [
		{
			"uri": "SM_paint_bucket_2.bin",
			"byteLength": 77504
		}
	],
	"bufferViews": [
		{
			"buffer": 0,
			"byteLength": 3528,
			"target": 34963
		},
		{
			"buffer": 0,
			"byteLength": 15852,
			"byteOffset": 3528,
			"target": 34962
		},
		{
			"buffer": 0,
			"byteLength": 15852,
			"byteOffset": 19380,
			"target": 34962
		},
		{
			"buffer": 0,
			"byteLength": 21136,
			"byteOffset": 35232,
			"target": 34962
		},
		{
			"buffer": 0,
			"byteLength": 10568,
			"byteOffset": 56368,
			"target": 34962
		},
		{
			"buffer": 0,
			"byteLength": 10568,
			"byteOffset": 66936,
			"target": 34962
		}
	],
	"images": [
		{
			"uri": "MI_ColorPalette_MetallicRoughness.png"
		},
		{
			"uri": "T_colorPalette2048.png"
		}
	],
	"materials": [
		{
			"name": "MI_ColorPalette",
			"pbrMetallicRoughness":
			{
				"baseColorTexture":
				{
					"index": 0
				},
				"metallicRoughnessTexture":
				{
					"index": 1
				}
			},
			"doubleSided": true
		}
	],
	"meshes": [
		{
			"name": "SM_paint_bucket_2",
			"primitives": [
				{
					"attributes":
					{
						"POSITION": 1,
						"NORMAL": 2,
						"TANGENT": 3,
						"TEXCOORD_0": 4,
						"TEXCOORD_1": 5
					},
					"indices": 0,
					"material": 0
				}
			]
		}
	],
	"nodes": [
		{
			"mesh": 0
		}
	],
	"samplers": [
		{
			"minFilter": 9987,
			"magFilter": 9729
		}
	],
	"scenes": [
		{
			"nodes": [
				0
			]
		}
	],
	"textures": [
		{
			"name": "T_colorPalette2048",
			"sampler": 0,
			"source": 1
		},
		{
			"name": "MI_ColorPalette_MetallicRoughness",
			"sampler": 0,
			"source": 0
		}
	]
}