{
	"asset":
	{
		"version": "2.0",
		"generator": "Unreal Engine 5.8.0"
	},
	"scene": 0,
	"accessors": [
		{
			"bufferView": 0,
			"count": 1152,
			"type": "SCALAR",
			"componentType": 5123
		},
		{
			"bufferView": 1,
			"count": 774,
			"type": "VEC3",
			"componentType": 5126,
			"min": [
				-0.0121765137,
				-2.06119919,
				-0.922241569
			],
			"max": [
				24,
				2.4414062e-06,
				0.759110153
			]
		},
		{
			"bufferView": 2,
			"count": 774,
			"type": "VEC3",
			"componentType": 5126
		},
		{
			"bufferView": 3,
			"count": 774,
			"type": "VEC4",
			"componentType": 5126
		},
		{
			"bufferView": 4,
			"count": 774,
			"type": "VEC2",
			"componentType": 5126
		},
		{
			"bufferView": 5,
			"count": 774,
			"type": "VEC2",
			"componentType": 5126
		}
	],
	"buffers": [
		{
			"uri": "SM_powerCables_2.bin",
			"byteLength": 45648
		}
	],
	"bufferViews": [
		{
			"buffer": 0,
			"byteLength": 2304,
			"target": 34963
		},
		{
			"buffer": 0,
			"byteLength": 9288,
			"byteOffset": 2304,
			"target": 34962
		},
		{
			"buffer": 0,
			"byteLength": 9288,
			"byteOffset": 11592,
			"target": 34962
		},
		{
			"buffer": 0,
			"byteLength": 12384,
			"byteOffset": 20880,
			"target": 34962
		},
		{
			"buffer": 0,
			"byteLength": 6192,
			"byteOffset": 33264,
			"target": 34962
		},
		{
			"buffer": 0,
			"byteLength": 6192,
			"byteOffset": 39456,
			"target": 34962
		}
	],
	"images": [
		{
			"uri": "MI_ColorPalette_MetallicRoughness.png"
		},
		{
			"uri": "T_colorPalette2048.png"
		}
	],
	"materials": [
		{
			"name": "MI_ColorPalette",
			"pbrMetallicRoughness":
			{
				"baseColorTexture":
				{
					"index": 0
				},
				"metallicRoughnessTexture":
				{
					"index": 1
				}
			},
			"doubleSided": true
		}
	],
	"meshes": [
		{
			"name": "SM_powerCables_2",
			"primitives": [
				{
					"attributes":
					{
						"POSITION": 1,
						"NORMAL": 2,
						"TANGENT": 3,
						"TEXCOORD_0": 4,
						"TEXCOORD_1": 5
					},
					"indices": 0,
					"material": 0
				}
			]
		}
	],
	"nodes": [
		{
			"mesh": 0
		}
	],
	"samplers": [
		{
			"minFilter": 9987,
			"magFilter": 9729
		}
	],
	"scenes": [
		{
			"nodes": [
				0
			]
		}
	],
	"textures": [
		{
			"name": "T_colorPalette2048",
			"sampler": 0,
			"source": 1
		},
		{
			"name": "MI_ColorPalette_MetallicRoughness",
			"sampler": 0,
			"source": 0
		}
	]
}