{
	"asset":
	{
		"version": "2.0",
		"generator": "Unreal Engine 5.8.0"
	},
	"scene": 0,
	"accessors": [
		{
			"bufferView": 0,
			"count": 540,
			"type": "SCALAR",
			"componentType": 5123
		},
		{
			"bufferView": 1,
			"count": 418,
			"type": "VEC3",
			"componentType": 5126,
			"min": [
				-1.16894281e-08,
				-0.0621382184,
				-0.23036021
			],
			"max": [
				0.572021067,
				0.0601441786,
				0.205791503
			]
		},
		{
			"bufferView": 2,
			"count": 418,
			"type": "VEC3",
			"componentType": 5126
		},
		{
			"bufferView": 3,
			"count": 418,
			"type": "VEC4",
			"componentType": 5126
		},
		{
			"bufferView": 4,
			"count": 418,
			"type": "VEC2",
			"componentType": 5126
		},
		{
			"bufferView": 5,
			"count": 418,
			"type": "VEC2",
			"componentType": 5126
		}
	],
	"buffers": [
		{
			"uri": "SM_painting_roll.bin",
			"byteLength": 24488
		}
	],
	"bufferViews": [
		{
			"buffer": 0,
			"byteLength": 1080,
			"target": 34963
		},
		{
			"buffer": 0,
			"byteLength": 5016,
			"byteOffset": 1080,
			"target": 34962
		},
		{
			"buffer": 0,
			"byteLength": 5016,
			"byteOffset": 6096,
			"target": 34962
		},
		{
			"buffer": 0,
			"byteLength": 6688,
			"byteOffset": 11112,
			"target": 34962
		},
		{
			"buffer": 0,
			"byteLength": 3344,
			"byteOffset": 17800,
			"target": 34962
		},
		{
			"buffer": 0,
			"byteLength": 3344,
			"byteOffset": 21144,
			"target": 34962
		}
	],
	"images": [
		{
			"uri": "MI_ColorPalette_MetallicRoughness.png"
		},
		{
			"uri": "T_colorPalette2048.png"
		}
	],
	"materials": [
		{
			"name": "MI_ColorPalette",
			"pbrMetallicRoughness":
			{
				"baseColorTexture":
				{
					"index": 0
				},
				"metallicRoughnessTexture":
				{
					"index": 1
				}
			},
			"doubleSided": true
		}
	],
	"meshes": [
		{
			"name": "SM_painting_roll",
			"primitives": [
				{
					"attributes":
					{
						"POSITION": 1,
						"NORMAL": 2,
						"TANGENT": 3,
						"TEXCOORD_0": 4,
						"TEXCOORD_1": 5
					},
					"indices": 0,
					"material": 0
				}
			]
		}
	],
	"nodes": [
		{
			"mesh": 0
		}
	],
	"samplers": [
		{
			"minFilter": 9987,
			"magFilter": 9729
		}
	],
	"scenes": [
		{
			"nodes": [
				0
			]
		}
	],
	"textures": [
		{
			"name": "T_colorPalette2048",
			"sampler": 0,
			"source": 1
		},
		{
			"name": "MI_ColorPalette_MetallicRoughness",
			"sampler": 0,
			"source": 0
		}
	]
}