{
	"asset":
	{
		"version": "2.0",
		"generator": "Unreal Engine 5.8.0"
	},
	"scene": 0,
	"accessors": [
		{
			"bufferView": 0,
			"count": 2928,
			"type": "SCALAR",
			"componentType": 5123
		},
		{
			"bufferView": 1,
			"count": 1850,
			"type": "VEC3",
			"componentType": 5126,
			"min": [
				-0.229340166,
				-2.07182853e-17,
				-0.338355273
			],
			"max": [
				0.195052892,
				2.10516906,
				0.338355273
			]
		},
		{
			"bufferView": 2,
			"count": 1850,
			"type": "VEC3",
			"componentType": 5126
		},
		{
			"bufferView": 3,
			"count": 1850,
			"type": "VEC4",
			"componentType": 5126
		},
		{
			"bufferView": 4,
			"count": 1850,
			"type": "VEC2",
			"componentType": 5126
		},
		{
			"bufferView": 5,
			"count": 1850,
			"type": "VEC2",
			"componentType": 5126
		}
	],
	"buffers": [
		{
			"uri": "SM_public_phone.bin",
			"byteLength": 109456
		}
	],
	"bufferViews": [
		{
			"buffer": 0,
			"byteLength": 5856,
			"target": 34963
		},
		{
			"buffer": 0,
			"byteLength": 22200,
			"byteOffset": 5856,
			"target": 34962
		},
		{
			"buffer": 0,
			"byteLength": 22200,
			"byteOffset": 28056,
			"target": 34962
		},
		{
			"buffer": 0,
			"byteLength": 29600,
			"byteOffset": 50256,
			"target": 34962
		},
		{
			"buffer": 0,
			"byteLength": 14800,
			"byteOffset": 79856,
			"target": 34962
		},
		{
			"buffer": 0,
			"byteLength": 14800,
			"byteOffset": 94656,
			"target": 34962
		}
	],
	"images": [
		{
			"uri": "M_BaseColorPalette_MetallicRoughness.png"
		},
		{
			"uri": "T_colorPalette2048.png"
		}
	],
	"materials": [
		{
			"name": "M_BaseColorPalette",
			"pbrMetallicRoughness":
			{
				"baseColorTexture":
				{
					"index": 0
				},
				"metallicRoughnessTexture":
				{
					"index": 1
				}
			},
			"doubleSided": true
		}
	],
	"meshes": [
		{
			"name": "SM_public_phone",
			"primitives": [
				{
					"attributes":
					{
						"POSITION": 1,
						"NORMAL": 2,
						"TANGENT": 3,
						"TEXCOORD_0": 4,
						"TEXCOORD_1": 5
					},
					"indices": 0,
					"material": 0
				}
			]
		}
	],
	"nodes": [
		{
			"mesh": 0
		}
	],
	"samplers": [
		{
			"minFilter": 9987,
			"magFilter": 9729
		}
	],
	"scenes": [
		{
			"nodes": [
				0
			]
		}
	],
	"textures": [
		{
			"name": "T_colorPalette2048",
			"sampler": 0,
			"source": 1
		},
		{
			"name": "M_BaseColorPalette_MetallicRoughness",
			"sampler": 0,
			"source": 0
		}
	]
}