{
	"asset":
	{
		"version": "2.0",
		"generator": "Unreal Engine 5.8.0"
	},
	"scene": 0,
	"accessors": [
		{
			"bufferView": 0,
			"count": 1482,
			"type": "SCALAR",
			"componentType": 5123
		},
		{
			"bufferView": 1,
			"count": 957,
			"type": "VEC3",
			"componentType": 5126,
			"min": [
				-0.311842382,
				-5.07035409e-08,
				-0.3772282
			],
			"max": [
				0.31178546,
				1.41345549,
				0.377227843
			]
		},
		{
			"bufferView": 2,
			"count": 957,
			"type": "VEC3",
			"componentType": 5126
		},
		{
			"bufferView": 3,
			"count": 957,
			"type": "VEC4",
			"componentType": 5126
		},
		{
			"bufferView": 4,
			"count": 957,
			"type": "VEC2",
			"componentType": 5126
		},
		{
			"bufferView": 5,
			"count": 957,
			"type": "VEC2",
			"componentType": 5126
		}
	],
	"buffers": [
		{
			"uri": "SM_press_box_2.bin",
			"byteLength": 56556
		}
	],
	"bufferViews": [
		{
			"buffer": 0,
			"byteLength": 2964,
			"target": 34963
		},
		{
			"buffer": 0,
			"byteLength": 11484,
			"byteOffset": 2964,
			"target": 34962
		},
		{
			"buffer": 0,
			"byteLength": 11484,
			"byteOffset": 14448,
			"target": 34962
		},
		{
			"buffer": 0,
			"byteLength": 15312,
			"byteOffset": 25932,
			"target": 34962
		},
		{
			"buffer": 0,
			"byteLength": 7656,
			"byteOffset": 41244,
			"target": 34962
		},
		{
			"buffer": 0,
			"byteLength": 7656,
			"byteOffset": 48900,
			"target": 34962
		}
	],
	"images": [
		{
			"uri": "M_BaseColorPalette_MetallicRoughness.png"
		},
		{
			"uri": "T_colorPalette2048.png"
		}
	],
	"materials": [
		{
			"name": "M_BaseColorPalette",
			"pbrMetallicRoughness":
			{
				"baseColorTexture":
				{
					"index": 0
				},
				"metallicRoughnessTexture":
				{
					"index": 1
				}
			},
			"doubleSided": true
		}
	],
	"meshes": [
		{
			"name": "SM_press_box_2",
			"primitives": [
				{
					"attributes":
					{
						"POSITION": 1,
						"NORMAL": 2,
						"TANGENT": 3,
						"TEXCOORD_0": 4,
						"TEXCOORD_1": 5
					},
					"indices": 0,
					"material": 0
				}
			]
		}
	],
	"nodes": [
		{
			"mesh": 0
		}
	],
	"samplers": [
		{
			"minFilter": 9987,
			"magFilter": 9729
		}
	],
	"scenes": [
		{
			"nodes": [
				0
			]
		}
	],
	"textures": [
		{
			"name": "T_colorPalette2048",
			"sampler": 0,
			"source": 1
		},
		{
			"name": "M_BaseColorPalette_MetallicRoughness",
			"sampler": 0,
			"source": 0
		}
	]
}