{
	"asset":
	{
		"version": "2.0",
		"generator": "Unreal Engine 5.8.0"
	},
	"scene": 0,
	"accessors": [
		{
			"bufferView": 0,
			"count": 777,
			"type": "SCALAR",
			"componentType": 5123
		},
		{
			"bufferView": 1,
			"count": 495,
			"type": "VEC3",
			"componentType": 5126,
			"min": [
				-0.0409374051,
				-1.44303074e-18,
				-0.356177509
			],
			"max": [
				0.038398359,
				2.04650474,
				0.356177509
			]
		},
		{
			"bufferView": 2,
			"count": 495,
			"type": "VEC3",
			"componentType": 5126
		},
		{
			"bufferView": 3,
			"count": 495,
			"type": "VEC4",
			"componentType": 5126
		},
		{
			"bufferView": 4,
			"count": 495,
			"type": "VEC2",
			"componentType": 5126
		},
		{
			"bufferView": 5,
			"count": 495,
			"type": "VEC2",
			"componentType": 5126
		}
	],
	"buffers": [
		{
			"uri": "SM_road_sign_5.bin",
			"byteLength": 29276
		}
	],
	"bufferViews": [
		{
			"buffer": 0,
			"byteLength": 1554,
			"target": 34963
		},
		{
			"buffer": 0,
			"byteLength": 5940,
			"byteOffset": 1556,
			"target": 34962
		},
		{
			"buffer": 0,
			"byteLength": 5940,
			"byteOffset": 7496,
			"target": 34962
		},
		{
			"buffer": 0,
			"byteLength": 7920,
			"byteOffset": 13436,
			"target": 34962
		},
		{
			"buffer": 0,
			"byteLength": 3960,
			"byteOffset": 21356,
			"target": 34962
		},
		{
			"buffer": 0,
			"byteLength": 3960,
			"byteOffset": 25316,
			"target": 34962
		}
	],
	"images": [
		{
			"uri": "MI_ColorPalette_MetallicRoughness.png"
		},
		{
			"uri": "T_colorPalette2048.png"
		}
	],
	"materials": [
		{
			"name": "MI_ColorPalette",
			"pbrMetallicRoughness":
			{
				"baseColorTexture":
				{
					"index": 0
				},
				"metallicRoughnessTexture":
				{
					"index": 1
				}
			},
			"doubleSided": true
		}
	],
	"meshes": [
		{
			"name": "SM_road_sign_5",
			"primitives": [
				{
					"attributes":
					{
						"POSITION": 1,
						"NORMAL": 2,
						"TANGENT": 3,
						"TEXCOORD_0": 4,
						"TEXCOORD_1": 5
					},
					"indices": 0,
					"material": 0
				}
			]
		}
	],
	"nodes": [
		{
			"mesh": 0
		}
	],
	"samplers": [
		{
			"minFilter": 9987,
			"magFilter": 9729
		}
	],
	"scenes": [
		{
			"nodes": [
				0
			]
		}
	],
	"textures": [
		{
			"name": "T_colorPalette2048",
			"sampler": 0,
			"source": 1
		},
		{
			"name": "MI_ColorPalette_MetallicRoughness",
			"sampler": 0,
			"source": 0
		}
	]
}