{
	"asset":
	{
		"version": "2.0",
		"generator": "Unreal Engine 5.8.0"
	},
	"scene": 0,
	"accessors": [
		{
			"bufferView": 0,
			"count": 621,
			"type": "SCALAR",
			"componentType": 5123
		},
		{
			"bufferView": 1,
			"count": 431,
			"type": "VEC3",
			"componentType": 5126,
			"min": [
				-0.0310259368,
				-1.89979068e-18,
				-0.248698577
			],
			"max": [
				0.0583874509,
				2.15022969,
				0.25498274
			]
		},
		{
			"bufferView": 2,
			"count": 431,
			"type": "VEC3",
			"componentType": 5126
		},
		{
			"bufferView": 3,
			"count": 431,
			"type": "VEC4",
			"componentType": 5126
		},
		{
			"bufferView": 4,
			"count": 431,
			"type": "VEC2",
			"componentType": 5126
		},
		{
			"bufferView": 5,
			"count": 431,
			"type": "VEC2",
			"componentType": 5126
		}
	],
	"buffers": [
		{
			"uri": "SM_road_sign_6.bin",
			"byteLength": 25380
		}
	],
	"bufferViews": [
		{
			"buffer": 0,
			"byteLength": 1242,
			"target": 34963
		},
		{
			"buffer": 0,
			"byteLength": 5172,
			"byteOffset": 1244,
			"target": 34962
		},
		{
			"buffer": 0,
			"byteLength": 5172,
			"byteOffset": 6416,
			"target": 34962
		},
		{
			"buffer": 0,
			"byteLength": 6896,
			"byteOffset": 11588,
			"target": 34962
		},
		{
			"buffer": 0,
			"byteLength": 3448,
			"byteOffset": 18484,
			"target": 34962
		},
		{
			"buffer": 0,
			"byteLength": 3448,
			"byteOffset": 21932,
			"target": 34962
		}
	],
	"images": [
		{
			"uri": "MI_ColorPalette_MetallicRoughness.png"
		},
		{
			"uri": "T_colorPalette2048.png"
		}
	],
	"materials": [
		{
			"name": "MI_ColorPalette",
			"pbrMetallicRoughness":
			{
				"baseColorTexture":
				{
					"index": 0
				},
				"metallicRoughnessTexture":
				{
					"index": 1
				}
			},
			"doubleSided": true
		}
	],
	"meshes": [
		{
			"name": "SM_road_sign_6",
			"primitives": [
				{
					"attributes":
					{
						"POSITION": 1,
						"NORMAL": 2,
						"TANGENT": 3,
						"TEXCOORD_0": 4,
						"TEXCOORD_1": 5
					},
					"indices": 0,
					"material": 0
				}
			]
		}
	],
	"nodes": [
		{
			"mesh": 0
		}
	],
	"samplers": [
		{
			"minFilter": 9987,
			"magFilter": 9729
		}
	],
	"scenes": [
		{
			"nodes": [
				0
			]
		}
	],
	"textures": [
		{
			"name": "T_colorPalette2048",
			"sampler": 0,
			"source": 1
		},
		{
			"name": "MI_ColorPalette_MetallicRoughness",
			"sampler": 0,
			"source": 0
		}
	]
}