{
	"asset":
	{
		"version": "2.0",
		"generator": "Unreal Engine 5.8.0"
	},
	"scene": 0,
	"accessors": [
		{
			"bufferView": 0,
			"count": 774,
			"type": "SCALAR",
			"componentType": 5123
		},
		{
			"bufferView": 1,
			"count": 578,
			"type": "VEC3",
			"componentType": 5126,
			"min": [
				-0.0420077518,
				-2.57223289e-18,
				-0.40680632
			],
			"max": [
				0.067675516,
				2.51926994,
				0.40680632
			]
		},
		{
			"bufferView": 2,
			"count": 578,
			"type": "VEC3",
			"componentType": 5126
		},
		{
			"bufferView": 3,
			"count": 578,
			"type": "VEC4",
			"componentType": 5126
		},
		{
			"bufferView": 4,
			"count": 578,
			"type": "VEC2",
			"componentType": 5126
		},
		{
			"bufferView": 5,
			"count": 578,
			"type": "VEC2",
			"componentType": 5126
		}
	],
	"buffers": [
		{
			"uri": "SM_road_sign_1.bin",
			"byteLength": 33916
		}
	],
	"bufferViews": [
		{
			"buffer": 0,
			"byteLength": 1548,
			"target": 34963
		},
		{
			"buffer": 0,
			"byteLength": 6936,
			"byteOffset": 1548,
			"target": 34962
		},
		{
			"buffer": 0,
			"byteLength": 6936,
			"byteOffset": 8484,
			"target": 34962
		},
		{
			"buffer": 0,
			"byteLength": 9248,
			"byteOffset": 15420,
			"target": 34962
		},
		{
			"buffer": 0,
			"byteLength": 4624,
			"byteOffset": 24668,
			"target": 34962
		},
		{
			"buffer": 0,
			"byteLength": 4624,
			"byteOffset": 29292,
			"target": 34962
		}
	],
	"images": [
		{
			"uri": "MI_ColorPalette_MetallicRoughness.png"
		},
		{
			"uri": "T_colorPalette2048.png"
		}
	],
	"materials": [
		{
			"name": "MI_ColorPalette",
			"pbrMetallicRoughness":
			{
				"baseColorTexture":
				{
					"index": 0
				},
				"metallicRoughnessTexture":
				{
					"index": 1
				}
			},
			"doubleSided": true
		}
	],
	"meshes": [
		{
			"name": "SM_road_sign_1",
			"primitives": [
				{
					"attributes":
					{
						"POSITION": 1,
						"NORMAL": 2,
						"TANGENT": 3,
						"TEXCOORD_0": 4,
						"TEXCOORD_1": 5
					},
					"indices": 0,
					"material": 0
				}
			]
		}
	],
	"nodes": [
		{
			"mesh": 0
		}
	],
	"samplers": [
		{
			"minFilter": 9987,
			"magFilter": 9729
		}
	],
	"scenes": [
		{
			"nodes": [
				0
			]
		}
	],
	"textures": [
		{
			"name": "T_colorPalette2048",
			"sampler": 0,
			"source": 1
		},
		{
			"name": "MI_ColorPalette_MetallicRoughness",
			"sampler": 0,
			"source": 0
		}
	]
}