{
	"asset":
	{
		"version": "2.0",
		"generator": "Unreal Engine 5.8.0"
	},
	"scene": 0,
	"accessors": [
		{
			"bufferView": 0,
			"count": 876,
			"type": "SCALAR",
			"componentType": 5123
		},
		{
			"bufferView": 1,
			"count": 556,
			"type": "VEC3",
			"componentType": 5126,
			"min": [
				-0.0409374274,
				-4.25048445e-17,
				-0.838317692
			],
			"max": [
				0.042653203,
				1.75183535,
				0.838317871
			]
		},
		{
			"bufferView": 2,
			"count": 556,
			"type": "VEC3",
			"componentType": 5126
		},
		{
			"bufferView": 3,
			"count": 556,
			"type": "VEC4",
			"componentType": 5126
		},
		{
			"bufferView": 4,
			"count": 556,
			"type": "VEC2",
			"componentType": 5126
		},
		{
			"bufferView": 5,
			"count": 556,
			"type": "VEC2",
			"componentType": 5126
		}
	],
	"buffers": [
		{
			"uri": "SM_road_sign_7.bin",
			"byteLength": 32888
		}
	],
	"bufferViews": [
		{
			"buffer": 0,
			"byteLength": 1752,
			"target": 34963
		},
		{
			"buffer": 0,
			"byteLength": 6672,
			"byteOffset": 1752,
			"target": 34962
		},
		{
			"buffer": 0,
			"byteLength": 6672,
			"byteOffset": 8424,
			"target": 34962
		},
		{
			"buffer": 0,
			"byteLength": 8896,
			"byteOffset": 15096,
			"target": 34962
		},
		{
			"buffer": 0,
			"byteLength": 4448,
			"byteOffset": 23992,
			"target": 34962
		},
		{
			"buffer": 0,
			"byteLength": 4448,
			"byteOffset": 28440,
			"target": 34962
		}
	],
	"images": [
		{
			"uri": "MI_ColorPalette_MetallicRoughness.png"
		},
		{
			"uri": "T_colorPalette2048.png"
		}
	],
	"materials": [
		{
			"name": "MI_ColorPalette",
			"pbrMetallicRoughness":
			{
				"baseColorTexture":
				{
					"index": 0
				},
				"metallicRoughnessTexture":
				{
					"index": 1
				}
			},
			"doubleSided": true
		}
	],
	"meshes": [
		{
			"name": "SM_road_sign_7",
			"primitives": [
				{
					"attributes":
					{
						"POSITION": 1,
						"NORMAL": 2,
						"TANGENT": 3,
						"TEXCOORD_0": 4,
						"TEXCOORD_1": 5
					},
					"indices": 0,
					"material": 0
				}
			]
		}
	],
	"nodes": [
		{
			"mesh": 0
		}
	],
	"samplers": [
		{
			"minFilter": 9987,
			"magFilter": 9729
		}
	],
	"scenes": [
		{
			"nodes": [
				0
			]
		}
	],
	"textures": [
		{
			"name": "T_colorPalette2048",
			"sampler": 0,
			"source": 1
		},
		{
			"name": "MI_ColorPalette_MetallicRoughness",
			"sampler": 0,
			"source": 0
		}
	]
}