{
	"asset":
	{
		"version": "2.0",
		"generator": "Unreal Engine 5.8.0"
	},
	"scene": 0,
	"accessors": [
		{
			"bufferView": 0,
			"count": 2250,
			"type": "SCALAR",
			"componentType": 5123
		},
		{
			"bufferView": 1,
			"count": 1049,
			"type": "VEC3",
			"componentType": 5126,
			"min": [
				-0.0409374274,
				-1.13092504e-07,
				-0.83831799
			],
			"max": [
				0.0438440219,
				1.81521749,
				0.838317692
			]
		},
		{
			"bufferView": 2,
			"count": 1049,
			"type": "VEC3",
			"componentType": 5126
		},
		{
			"bufferView": 3,
			"count": 1049,
			"type": "VEC4",
			"componentType": 5126
		},
		{
			"bufferView": 4,
			"count": 1049,
			"type": "VEC2",
			"componentType": 5126
		},
		{
			"bufferView": 5,
			"count": 1049,
			"type": "VEC2",
			"componentType": 5126
		}
	],
	"buffers": [
		{
			"uri": "SM_road_sign_8.bin",
			"byteLength": 63244
		}
	],
	"bufferViews": [
		{
			"buffer": 0,
			"byteLength": 4500,
			"target": 34963
		},
		{
			"buffer": 0,
			"byteLength": 12588,
			"byteOffset": 4500,
			"target": 34962
		},
		{
			"buffer": 0,
			"byteLength": 12588,
			"byteOffset": 17088,
			"target": 34962
		},
		{
			"buffer": 0,
			"byteLength": 16784,
			"byteOffset": 29676,
			"target": 34962
		},
		{
			"buffer": 0,
			"byteLength": 8392,
			"byteOffset": 46460,
			"target": 34962
		},
		{
			"buffer": 0,
			"byteLength": 8392,
			"byteOffset": 54852,
			"target": 34962
		}
	],
	"images": [
		{
			"uri": "MI_ColorPalette_MetallicRoughness.png"
		},
		{
			"uri": "T_colorPalette2048.png"
		}
	],
	"materials": [
		{
			"name": "MI_ColorPalette",
			"pbrMetallicRoughness":
			{
				"baseColorTexture":
				{
					"index": 0
				},
				"metallicRoughnessTexture":
				{
					"index": 1
				}
			},
			"doubleSided": true
		}
	],
	"meshes": [
		{
			"name": "SM_road_sign_8",
			"primitives": [
				{
					"attributes":
					{
						"POSITION": 1,
						"NORMAL": 2,
						"TANGENT": 3,
						"TEXCOORD_0": 4,
						"TEXCOORD_1": 5
					},
					"indices": 0,
					"material": 0
				}
			]
		}
	],
	"nodes": [
		{
			"mesh": 0
		}
	],
	"samplers": [
		{
			"minFilter": 9987,
			"magFilter": 9729
		}
	],
	"scenes": [
		{
			"nodes": [
				0
			]
		}
	],
	"textures": [
		{
			"name": "T_colorPalette2048",
			"sampler": 0,
			"source": 1
		},
		{
			"name": "MI_ColorPalette_MetallicRoughness",
			"sampler": 0,
			"source": 0
		}
	]
}