{
	"asset":
	{
		"version": "2.0",
		"generator": "Unreal Engine 5.8.0"
	},
	"scene": 0,
	"accessors": [
		{
			"bufferView": 0,
			"count": 1656,
			"type": "SCALAR",
			"componentType": 5123
		},
		{
			"bufferView": 1,
			"count": 1176,
			"type": "VEC3",
			"componentType": 5126,
			"min": [
				-0.31464833,
				0.000248596072,
				-0.339963704
			],
			"max": [
				0.0892923176,
				1.33113337,
				0.339963704
			]
		},
		{
			"bufferView": 2,
			"count": 1176,
			"type": "VEC3",
			"componentType": 5126
		},
		{
			"bufferView": 3,
			"count": 1176,
			"type": "VEC4",
			"componentType": 5126
		},
		{
			"bufferView": 4,
			"count": 1176,
			"type": "VEC2",
			"componentType": 5126
		},
		{
			"bufferView": 5,
			"count": 1176,
			"type": "VEC2",
			"componentType": 5126
		}
	],
	"buffers": [
		{
			"uri": "SM_road_block_2.bin",
			"byteLength": 69168
		}
	],
	"bufferViews": [
		{
			"buffer": 0,
			"byteLength": 3312,
			"target": 34963
		},
		{
			"buffer": 0,
			"byteLength": 14112,
			"byteOffset": 3312,
			"target": 34962
		},
		{
			"buffer": 0,
			"byteLength": 14112,
			"byteOffset": 17424,
			"target": 34962
		},
		{
			"buffer": 0,
			"byteLength": 18816,
			"byteOffset": 31536,
			"target": 34962
		},
		{
			"buffer": 0,
			"byteLength": 9408,
			"byteOffset": 50352,
			"target": 34962
		},
		{
			"buffer": 0,
			"byteLength": 9408,
			"byteOffset": 59760,
			"target": 34962
		}
	],
	"images": [
		{
			"uri": "MI_ColorPalette_MetallicRoughness.png"
		},
		{
			"uri": "T_colorPalette2048.png"
		}
	],
	"materials": [
		{
			"name": "MI_ColorPalette",
			"pbrMetallicRoughness":
			{
				"baseColorTexture":
				{
					"index": 0
				},
				"metallicRoughnessTexture":
				{
					"index": 1
				}
			},
			"doubleSided": true
		}
	],
	"meshes": [
		{
			"name": "SM_road_block_2",
			"primitives": [
				{
					"attributes":
					{
						"POSITION": 1,
						"NORMAL": 2,
						"TANGENT": 3,
						"TEXCOORD_0": 4,
						"TEXCOORD_1": 5
					},
					"indices": 0,
					"material": 0
				}
			]
		}
	],
	"nodes": [
		{
			"mesh": 0
		}
	],
	"samplers": [
		{
			"minFilter": 9987,
			"magFilter": 9729
		}
	],
	"scenes": [
		{
			"nodes": [
				0
			]
		}
	],
	"textures": [
		{
			"name": "T_colorPalette2048",
			"sampler": 0,
			"source": 1
		},
		{
			"name": "MI_ColorPalette_MetallicRoughness",
			"sampler": 0,
			"source": 0
		}
	]
}