{
	"asset":
	{
		"version": "2.0",
		"generator": "Unreal Engine 5.8.0"
	},
	"scene": 0,
	"accessors": [
		{
			"bufferView": 0,
			"count": 429,
			"type": "SCALAR",
			"componentType": 5123
		},
		{
			"bufferView": 1,
			"count": 327,
			"type": "VEC3",
			"componentType": 5126,
			"min": [
				-0.033580482,
				-2.05621156e-18,
				-0.417118639
			],
			"max": [
				0.0635063723,
				2.73444176,
				0.4239223
			]
		},
		{
			"bufferView": 2,
			"count": 327,
			"type": "VEC3",
			"componentType": 5126
		},
		{
			"bufferView": 3,
			"count": 327,
			"type": "VEC4",
			"componentType": 5126
		},
		{
			"bufferView": 4,
			"count": 327,
			"type": "VEC2",
			"componentType": 5126
		},
		{
			"bufferView": 5,
			"count": 327,
			"type": "VEC2",
			"componentType": 5126
		}
	],
	"buffers": [
		{
			"uri": "SM_speed_limit_75.bin",
			"byteLength": 19172
		}
	],
	"bufferViews": [
		{
			"buffer": 0,
			"byteLength": 858,
			"target": 34963
		},
		{
			"buffer": 0,
			"byteLength": 3924,
			"byteOffset": 860,
			"target": 34962
		},
		{
			"buffer": 0,
			"byteLength": 3924,
			"byteOffset": 4784,
			"target": 34962
		},
		{
			"buffer": 0,
			"byteLength": 5232,
			"byteOffset": 8708,
			"target": 34962
		},
		{
			"buffer": 0,
			"byteLength": 2616,
			"byteOffset": 13940,
			"target": 34962
		},
		{
			"buffer": 0,
			"byteLength": 2616,
			"byteOffset": 16556,
			"target": 34962
		}
	],
	"images": [
		{
			"uri": "MI_ColorPalette_MetallicRoughness.png"
		},
		{
			"uri": "T_colorPalette2048.png"
		}
	],
	"materials": [
		{
			"name": "MI_ColorPalette",
			"pbrMetallicRoughness":
			{
				"baseColorTexture":
				{
					"index": 0
				},
				"metallicRoughnessTexture":
				{
					"index": 1
				}
			},
			"doubleSided": true
		}
	],
	"meshes": [
		{
			"name": "SM_speed_limit_75",
			"primitives": [
				{
					"attributes":
					{
						"POSITION": 1,
						"NORMAL": 2,
						"TANGENT": 3,
						"TEXCOORD_0": 4,
						"TEXCOORD_1": 5
					},
					"indices": 0,
					"material": 0
				}
			]
		}
	],
	"nodes": [
		{
			"mesh": 0
		}
	],
	"samplers": [
		{
			"minFilter": 9987,
			"magFilter": 9729
		}
	],
	"scenes": [
		{
			"nodes": [
				0
			]
		}
	],
	"textures": [
		{
			"name": "T_colorPalette2048",
			"sampler": 0,
			"source": 1
		},
		{
			"name": "MI_ColorPalette_MetallicRoughness",
			"sampler": 0,
			"source": 0
		}
	]
}