{
	"asset":
	{
		"version": "2.0",
		"generator": "Unreal Engine 5.8.0"
	},
	"scene": 0,
	"accessors": [
		{
			"bufferView": 0,
			"count": 678,
			"type": "SCALAR",
			"componentType": 5123
		},
		{
			"bufferView": 1,
			"count": 452,
			"type": "VEC3",
			"componentType": 5126,
			"min": [
				-4.37995577,
				-2.14555656e-16,
				-3.88009262
			],
			"max": [
				4.37995338,
				3.7642529,
				3.88009262
			]
		},
		{
			"bufferView": 2,
			"count": 452,
			"type": "VEC3",
			"componentType": 5126
		},
		{
			"bufferView": 3,
			"count": 452,
			"type": "VEC4",
			"componentType": 5126
		},
		{
			"bufferView": 4,
			"count": 452,
			"type": "VEC2",
			"componentType": 5126
		},
		{
			"bufferView": 5,
			"count": 452,
			"type": "VEC2",
			"componentType": 5126
		}
	],
	"buffers": [
		{
			"uri": "SM_shed_01.bin",
			"byteLength": 26668
		}
	],
	"bufferViews": [
		{
			"buffer": 0,
			"byteLength": 1356,
			"target": 34963
		},
		{
			"buffer": 0,
			"byteLength": 5424,
			"byteOffset": 1356,
			"target": 34962
		},
		{
			"buffer": 0,
			"byteLength": 5424,
			"byteOffset": 6780,
			"target": 34962
		},
		{
			"buffer": 0,
			"byteLength": 7232,
			"byteOffset": 12204,
			"target": 34962
		},
		{
			"buffer": 0,
			"byteLength": 3616,
			"byteOffset": 19436,
			"target": 34962
		},
		{
			"buffer": 0,
			"byteLength": 3616,
			"byteOffset": 23052,
			"target": 34962
		}
	],
	"images": [
		{
			"uri": "MI_ColorPalette_MetallicRoughness.png"
		},
		{
			"uri": "T_colorPalette2048.png"
		}
	],
	"materials": [
		{
			"name": "MI_ColorPalette",
			"pbrMetallicRoughness":
			{
				"baseColorTexture":
				{
					"index": 0
				},
				"metallicRoughnessTexture":
				{
					"index": 1
				}
			},
			"doubleSided": true
		}
	],
	"meshes": [
		{
			"name": "SM_shed_01",
			"primitives": [
				{
					"attributes":
					{
						"POSITION": 1,
						"NORMAL": 2,
						"TANGENT": 3,
						"TEXCOORD_0": 4,
						"TEXCOORD_1": 5
					},
					"indices": 0,
					"material": 0
				}
			]
		}
	],
	"nodes": [
		{
			"mesh": 0
		}
	],
	"samplers": [
		{
			"minFilter": 9987,
			"magFilter": 9729
		}
	],
	"scenes": [
		{
			"nodes": [
				0
			]
		}
	],
	"textures": [
		{
			"name": "T_colorPalette2048",
			"sampler": 0,
			"source": 1
		},
		{
			"name": "MI_ColorPalette_MetallicRoughness",
			"sampler": 0,
			"source": 0
		}
	]
}