{
	"asset":
	{
		"version": "2.0",
		"generator": "Unreal Engine 5.8.0"
	},
	"scene": 0,
	"accessors": [
		{
			"bufferView": 0,
			"count": 780,
			"type": "SCALAR",
			"componentType": 5123
		},
		{
			"bufferView": 1,
			"count": 526,
			"type": "VEC3",
			"componentType": 5126,
			"min": [
				-0.0772206485,
				-0.0127321621,
				-0.077220656
			],
			"max": [
				0.0772206485,
				0.316809505,
				0.077220656
			]
		},
		{
			"bufferView": 2,
			"count": 526,
			"type": "VEC3",
			"componentType": 5126
		},
		{
			"bufferView": 3,
			"count": 526,
			"type": "VEC4",
			"componentType": 5126
		},
		{
			"bufferView": 4,
			"count": 526,
			"type": "VEC2",
			"componentType": 5126
		},
		{
			"bufferView": 5,
			"count": 526,
			"type": "VEC2",
			"componentType": 5126
		}
	],
	"buffers": [
		{
			"uri": "SM_spray_Can.bin",
			"byteLength": 31016
		}
	],
	"bufferViews": [
		{
			"buffer": 0,
			"byteLength": 1560,
			"target": 34963
		},
		{
			"buffer": 0,
			"byteLength": 6312,
			"byteOffset": 1560,
			"target": 34962
		},
		{
			"buffer": 0,
			"byteLength": 6312,
			"byteOffset": 7872,
			"target": 34962
		},
		{
			"buffer": 0,
			"byteLength": 8416,
			"byteOffset": 14184,
			"target": 34962
		},
		{
			"buffer": 0,
			"byteLength": 4208,
			"byteOffset": 22600,
			"target": 34962
		},
		{
			"buffer": 0,
			"byteLength": 4208,
			"byteOffset": 26808,
			"target": 34962
		}
	],
	"images": [
		{
			"uri": "MI_ColorPalette_MetallicRoughness.png"
		},
		{
			"uri": "T_colorPalette2048.png"
		}
	],
	"materials": [
		{
			"name": "MI_ColorPalette",
			"pbrMetallicRoughness":
			{
				"baseColorTexture":
				{
					"index": 0
				},
				"metallicRoughnessTexture":
				{
					"index": 1
				}
			},
			"doubleSided": true
		}
	],
	"meshes": [
		{
			"name": "SM_spray_Can",
			"primitives": [
				{
					"attributes":
					{
						"POSITION": 1,
						"NORMAL": 2,
						"TANGENT": 3,
						"TEXCOORD_0": 4,
						"TEXCOORD_1": 5
					},
					"indices": 0,
					"material": 0
				}
			]
		}
	],
	"nodes": [
		{
			"mesh": 0
		}
	],
	"samplers": [
		{
			"minFilter": 9987,
			"magFilter": 9729
		}
	],
	"scenes": [
		{
			"nodes": [
				0
			]
		}
	],
	"textures": [
		{
			"name": "T_colorPalette2048",
			"sampler": 0,
			"source": 1
		},
		{
			"name": "MI_ColorPalette_MetallicRoughness",
			"sampler": 0,
			"source": 0
		}
	]
}