{
	"asset":
	{
		"version": "2.0",
		"generator": "Unreal Engine 5.8.0"
	},
	"scene": 0,
	"accessors": [
		{
			"bufferView": 0,
			"count": 48,
			"type": "SCALAR",
			"componentType": 5121
		},
		{
			"bufferView": 1,
			"count": 32,
			"type": "VEC3",
			"componentType": 5126,
			"min": [
				0.183445171,
				2.54999971,
				-2.61354542
			],
			"max": [
				1.68344283,
				3.29999971,
				3.50000978
			]
		},
		{
			"bufferView": 2,
			"count": 32,
			"type": "VEC3",
			"componentType": 5126
		},
		{
			"bufferView": 3,
			"count": 32,
			"type": "VEC4",
			"componentType": 5126
		},
		{
			"bufferView": 4,
			"count": 32,
			"type": "VEC2",
			"componentType": 5126
		},
		{
			"bufferView": 5,
			"count": 32,
			"type": "VEC2",
			"componentType": 5126
		},
		{
			"bufferView": 6,
			"count": 48,
			"type": "SCALAR",
			"componentType": 5121
		},
		{
			"bufferView": 7,
			"count": 32,
			"type": "VEC3",
			"componentType": 5126,
			"min": [
				0.183444992,
				2.54999971,
				-3.48689508
			],
			"max": [
				1.68344188,
				3.29999971,
				2.62664056
			]
		},
		{
			"bufferView": 8,
			"count": 32,
			"type": "VEC3",
			"componentType": 5126
		},
		{
			"bufferView": 9,
			"count": 32,
			"type": "VEC4",
			"componentType": 5126
		},
		{
			"bufferView": 10,
			"count": 32,
			"type": "VEC2",
			"componentType": 5126
		},
		{
			"bufferView": 11,
			"count": 32,
			"type": "VEC2",
			"componentType": 5126
		},
		{
			"bufferView": 12,
			"count": 360,
			"type": "SCALAR",
			"componentType": 5123
		},
		{
			"bufferView": 13,
			"count": 260,
			"type": "VEC3",
			"componentType": 5126,
			"min": [
				0.133451983,
				2.71946311,
				-3.50000048
			],
			"max": [
				1.68132305,
				3.32499957,
				3.50000978
			]
		},
		{
			"bufferView": 14,
			"count": 260,
			"type": "VEC3",
			"componentType": 5126
		},
		{
			"bufferView": 15,
			"count": 260,
			"type": "VEC4",
			"componentType": 5126
		},
		{
			"bufferView": 16,
			"count": 260,
			"type": "VEC2",
			"componentType": 5126
		},
		{
			"bufferView": 17,
			"count": 260,
			"type": "VEC2",
			"componentType": 5126
		}
	],
	"buffers": [
		{
			"uri": "SM_shopCanopy_01.bin",
			"byteLength": 18960
		}
	],
	"bufferViews": [
		{
			"buffer": 0,
			"byteLength": 48,
			"target": 34963
		},
		{
			"buffer": 0,
			"byteLength": 384,
			"byteOffset": 48,
			"target": 34962
		},
		{
			"buffer": 0,
			"byteLength": 384,
			"byteOffset": 432,
			"target": 34962
		},
		{
			"buffer": 0,
			"byteLength": 512,
			"byteOffset": 816,
			"target": 34962
		},
		{
			"buffer": 0,
			"byteLength": 256,
			"byteOffset": 1328,
			"target": 34962
		},
		{
			"buffer": 0,
			"byteLength": 256,
			"byteOffset": 1584,
			"target": 34962
		},
		{
			"buffer": 0,
			"byteLength": 48,
			"byteOffset": 1840,
			"target": 34963
		},
		{
			"buffer": 0,
			"byteLength": 384,
			"byteOffset": 1888,
			"target": 34962
		},
		{
			"buffer": 0,
			"byteLength": 384,
			"byteOffset": 2272,
			"target": 34962
		},
		{
			"buffer": 0,
			"byteLength": 512,
			"byteOffset": 2656,
			"target": 34962
		},
		{
			"buffer": 0,
			"byteLength": 256,
			"byteOffset": 3168,
			"target": 34962
		},
		{
			"buffer": 0,
			"byteLength": 256,
			"byteOffset": 3424,
			"target": 34962
		},
		{
			"buffer": 0,
			"byteLength": 720,
			"byteOffset": 3680,
			"target": 34963
		},
		{
			"buffer": 0,
			"byteLength": 3120,
			"byteOffset": 4400,
			"target": 34962
		},
		{
			"buffer": 0,
			"byteLength": 3120,
			"byteOffset": 7520,
			"target": 34962
		},
		{
			"buffer": 0,
			"byteLength": 4160,
			"byteOffset": 10640,
			"target": 34962
		},
		{
			"buffer": 0,
			"byteLength": 2080,
			"byteOffset": 14800,
			"target": 34962
		},
		{
			"buffer": 0,
			"byteLength": 2080,
			"byteOffset": 16880,
			"target": 34962
		}
	],
	"images": [
		{
			"uri": "MI_ColorPalette_MetallicRoughness.png"
		},
		{
			"uri": "T_colorPalette2048.png"
		}
	],
	"materials": [
		{
			"name": "MI_matteRed",
			"pbrMetallicRoughness":
			{
				"baseColorFactor": [
					0.243137002,
					0,
					0,
					1
				],
				"metallicFactor": 0
			},
			"doubleSided": true
		},
		{
			"name": "MI_matteWhite",
			"pbrMetallicRoughness":
			{
				"baseColorFactor": [
					0.800000012,
					0.800000012,
					0.800000012,
					1
				],
				"metallicFactor": 0
			},
			"doubleSided": true
		},
		{
			"name": "MI_ColorPalette",
			"pbrMetallicRoughness":
			{
				"baseColorTexture":
				{
					"index": 0
				},
				"metallicRoughnessTexture":
				{
					"index": 1
				}
			},
			"doubleSided": true
		}
	],
	"meshes": [
		{
			"name": "SM_shopCanopy_01",
			"primitives": [
				{
					"attributes":
					{
						"POSITION": 1,
						"NORMAL": 2,
						"TANGENT": 3,
						"TEXCOORD_0": 4,
						"TEXCOORD_1": 5
					},
					"indices": 0,
					"material": 0
				},
				{
					"attributes":
					{
						"POSITION": 7,
						"NORMAL": 8,
						"TANGENT": 9,
						"TEXCOORD_0": 10,
						"TEXCOORD_1": 11
					},
					"indices": 6,
					"material": 1
				},
				{
					"attributes":
					{
						"POSITION": 13,
						"NORMAL": 14,
						"TANGENT": 15,
						"TEXCOORD_0": 16,
						"TEXCOORD_1": 17
					},
					"indices": 12,
					"material": 2
				}
			]
		}
	],
	"nodes": [
		{
			"mesh": 0
		}
	],
	"samplers": [
		{
			"minFilter": 9987,
			"magFilter": 9729
		}
	],
	"scenes": [
		{
			"nodes": [
				0
			]
		}
	],
	"textures": [
		{
			"name": "T_colorPalette2048",
			"sampler": 0,
			"source": 1
		},
		{
			"name": "MI_ColorPalette_MetallicRoughness",
			"sampler": 0,
			"source": 0
		}
	]
}