{
	"asset":
	{
		"version": "2.0",
		"generator": "Unreal Engine 5.8.0"
	},
	"scene": 0,
	"accessors": [
		{
			"bufferView": 0,
			"count": 1449,
			"type": "SCALAR",
			"componentType": 5123
		},
		{
			"bufferView": 1,
			"count": 1121,
			"type": "VEC3",
			"componentType": 5126,
			"min": [
				0.162245497,
				-3.90798503e-16,
				-7.00874424
			],
			"max": [
				3.09427905,
				3.24481106,
				7.00874186
			]
		},
		{
			"bufferView": 2,
			"count": 1121,
			"type": "VEC3",
			"componentType": 5126
		},
		{
			"bufferView": 3,
			"count": 1121,
			"type": "VEC4",
			"componentType": 5126
		},
		{
			"bufferView": 4,
			"count": 1121,
			"type": "VEC2",
			"componentType": 5126
		},
		{
			"bufferView": 5,
			"count": 1121,
			"type": "VEC2",
			"componentType": 5126
		}
	],
	"buffers": [
		{
			"uri": "SM_shopAwing_01.bin",
			"byteLength": 65676
		}
	],
	"bufferViews": [
		{
			"buffer": 0,
			"byteLength": 2898,
			"target": 34963
		},
		{
			"buffer": 0,
			"byteLength": 13452,
			"byteOffset": 2900,
			"target": 34962
		},
		{
			"buffer": 0,
			"byteLength": 13452,
			"byteOffset": 16352,
			"target": 34962
		},
		{
			"buffer": 0,
			"byteLength": 17936,
			"byteOffset": 29804,
			"target": 34962
		},
		{
			"buffer": 0,
			"byteLength": 8968,
			"byteOffset": 47740,
			"target": 34962
		},
		{
			"buffer": 0,
			"byteLength": 8968,
			"byteOffset": 56708,
			"target": 34962
		}
	],
	"images": [
		{
			"uri": "MI_ColorPalette_MetallicRoughness.png"
		},
		{
			"uri": "T_colorPalette2048.png"
		}
	],
	"materials": [
		{
			"name": "MI_ColorPalette",
			"pbrMetallicRoughness":
			{
				"baseColorTexture":
				{
					"index": 0
				},
				"metallicRoughnessTexture":
				{
					"index": 1
				}
			},
			"doubleSided": true
		}
	],
	"meshes": [
		{
			"name": "SM_shopAwing_01",
			"primitives": [
				{
					"attributes":
					{
						"POSITION": 1,
						"NORMAL": 2,
						"TANGENT": 3,
						"TEXCOORD_0": 4,
						"TEXCOORD_1": 5
					},
					"indices": 0,
					"material": 0
				}
			]
		}
	],
	"nodes": [
		{
			"mesh": 0
		}
	],
	"samplers": [
		{
			"minFilter": 9987,
			"magFilter": 9729
		}
	],
	"scenes": [
		{
			"nodes": [
				0
			]
		}
	],
	"textures": [
		{
			"name": "T_colorPalette2048",
			"sampler": 0,
			"source": 1
		},
		{
			"name": "MI_ColorPalette_MetallicRoughness",
			"sampler": 0,
			"source": 0
		}
	]
}