{
	"asset":
	{
		"version": "2.0",
		"generator": "Unreal Engine 5.8.0"
	},
	"scene": 0,
	"accessors": [
		{
			"bufferView": 0,
			"count": 420,
			"type": "SCALAR",
			"componentType": 5123
		},
		{
			"bufferView": 1,
			"count": 280,
			"type": "VEC3",
			"componentType": 5126,
			"min": [
				-0.398355126,
				-3.35441074e-18,
				-0.0547816828
			],
			"max": [
				0.398355126,
				0.0293037947,
				0.0547816828
			]
		},
		{
			"bufferView": 2,
			"count": 280,
			"type": "VEC3",
			"componentType": 5126
		},
		{
			"bufferView": 3,
			"count": 280,
			"type": "VEC4",
			"componentType": 5126
		},
		{
			"bufferView": 4,
			"count": 280,
			"type": "VEC2",
			"componentType": 5126
		},
		{
			"bufferView": 5,
			"count": 280,
			"type": "VEC2",
			"componentType": 5126
		}
	],
	"buffers": [
		{
			"uri": "SM_spirit_level.bin",
			"byteLength": 16520
		}
	],
	"bufferViews": [
		{
			"buffer": 0,
			"byteLength": 840,
			"target": 34963
		},
		{
			"buffer": 0,
			"byteLength": 3360,
			"byteOffset": 840,
			"target": 34962
		},
		{
			"buffer": 0,
			"byteLength": 3360,
			"byteOffset": 4200,
			"target": 34962
		},
		{
			"buffer": 0,
			"byteLength": 4480,
			"byteOffset": 7560,
			"target": 34962
		},
		{
			"buffer": 0,
			"byteLength": 2240,
			"byteOffset": 12040,
			"target": 34962
		},
		{
			"buffer": 0,
			"byteLength": 2240,
			"byteOffset": 14280,
			"target": 34962
		}
	],
	"images": [
		{
			"uri": "MI_ColorPalette_MetallicRoughness.png"
		},
		{
			"uri": "T_colorPalette2048.png"
		}
	],
	"materials": [
		{
			"name": "MI_ColorPalette",
			"pbrMetallicRoughness":
			{
				"baseColorTexture":
				{
					"index": 0
				},
				"metallicRoughnessTexture":
				{
					"index": 1
				}
			},
			"doubleSided": true
		}
	],
	"meshes": [
		{
			"name": "SM_spirit_level",
			"primitives": [
				{
					"attributes":
					{
						"POSITION": 1,
						"NORMAL": 2,
						"TANGENT": 3,
						"TEXCOORD_0": 4,
						"TEXCOORD_1": 5
					},
					"indices": 0,
					"material": 0
				}
			]
		}
	],
	"nodes": [
		{
			"mesh": 0
		}
	],
	"samplers": [
		{
			"minFilter": 9987,
			"magFilter": 9729
		}
	],
	"scenes": [
		{
			"nodes": [
				0
			]
		}
	],
	"textures": [
		{
			"name": "T_colorPalette2048",
			"sampler": 0,
			"source": 1
		},
		{
			"name": "MI_ColorPalette_MetallicRoughness",
			"sampler": 0,
			"source": 0
		}
	]
}