{
	"asset":
	{
		"version": "2.0",
		"generator": "Unreal Engine 5.8.0"
	},
	"scene": 0,
	"accessors": [
		{
			"bufferView": 0,
			"count": 2502,
			"type": "SCALAR",
			"componentType": 5123
		},
		{
			"bufferView": 1,
			"count": 1676,
			"type": "VEC3",
			"componentType": 5126,
			"min": [
				-0.416363597,
				-0.000584767025,
				-0.375216603
			],
			"max": [
				0.380341172,
				1.25550759,
				0.375216126
			]
		},
		{
			"bufferView": 2,
			"count": 1676,
			"type": "VEC3",
			"componentType": 5126
		},
		{
			"bufferView": 3,
			"count": 1676,
			"type": "VEC4",
			"componentType": 5126
		},
		{
			"bufferView": 4,
			"count": 1676,
			"type": "VEC2",
			"componentType": 5126
		},
		{
			"bufferView": 5,
			"count": 1676,
			"type": "VEC2",
			"componentType": 5126
		}
	],
	"buffers": [
		{
			"uri": "SM_trash_bin_3.bin",
			"byteLength": 98860
		}
	],
	"bufferViews": [
		{
			"buffer": 0,
			"byteLength": 5004,
			"target": 34963
		},
		{
			"buffer": 0,
			"byteLength": 20112,
			"byteOffset": 5004,
			"target": 34962
		},
		{
			"buffer": 0,
			"byteLength": 20112,
			"byteOffset": 25116,
			"target": 34962
		},
		{
			"buffer": 0,
			"byteLength": 26816,
			"byteOffset": 45228,
			"target": 34962
		},
		{
			"buffer": 0,
			"byteLength": 13408,
			"byteOffset": 72044,
			"target": 34962
		},
		{
			"buffer": 0,
			"byteLength": 13408,
			"byteOffset": 85452,
			"target": 34962
		}
	],
	"images": [
		{
			"uri": "MI_ColorPalette_MetallicRoughness.png"
		},
		{
			"uri": "T_colorPalette2048.png"
		}
	],
	"materials": [
		{
			"name": "MI_ColorPalette",
			"pbrMetallicRoughness":
			{
				"baseColorTexture":
				{
					"index": 0
				},
				"metallicRoughnessTexture":
				{
					"index": 1
				}
			},
			"doubleSided": true
		}
	],
	"meshes": [
		{
			"name": "SM_trash_bin_3",
			"primitives": [
				{
					"attributes":
					{
						"POSITION": 1,
						"NORMAL": 2,
						"TANGENT": 3,
						"TEXCOORD_0": 4,
						"TEXCOORD_1": 5
					},
					"indices": 0,
					"material": 0
				}
			]
		}
	],
	"nodes": [
		{
			"mesh": 0
		}
	],
	"samplers": [
		{
			"minFilter": 9987,
			"magFilter": 9729
		}
	],
	"scenes": [
		{
			"nodes": [
				0
			]
		}
	],
	"textures": [
		{
			"name": "T_colorPalette2048",
			"sampler": 0,
			"source": 1
		},
		{
			"name": "MI_ColorPalette_MetallicRoughness",
			"sampler": 0,
			"source": 0
		}
	]
}