{
	"asset":
	{
		"version": "2.0",
		"generator": "Unreal Engine 5.8.0"
	},
	"scene": 0,
	"accessors": [
		{
			"bufferView": 0,
			"count": 1998,
			"type": "SCALAR",
			"componentType": 5123
		},
		{
			"bufferView": 1,
			"count": 1394,
			"type": "VEC3",
			"componentType": 5126,
			"min": [
				-0.779214621,
				0.000352427392,
				-1.18273067
			],
			"max": [
				0.851584673,
				1.74061763,
				1.18273067
			]
		},
		{
			"bufferView": 2,
			"count": 1394,
			"type": "VEC3",
			"componentType": 5126
		},
		{
			"bufferView": 3,
			"count": 1394,
			"type": "VEC4",
			"componentType": 5126
		},
		{
			"bufferView": 4,
			"count": 1394,
			"type": "VEC2",
			"componentType": 5126
		},
		{
			"bufferView": 5,
			"count": 1394,
			"type": "VEC2",
			"componentType": 5126
		}
	],
	"buffers": [
		{
			"uri": "SM_trash_bin_big.bin",
			"byteLength": 82060
		}
	],
	"bufferViews": [
		{
			"buffer": 0,
			"byteLength": 3996,
			"target": 34963
		},
		{
			"buffer": 0,
			"byteLength": 16728,
			"byteOffset": 3996,
			"target": 34962
		},
		{
			"buffer": 0,
			"byteLength": 16728,
			"byteOffset": 20724,
			"target": 34962
		},
		{
			"buffer": 0,
			"byteLength": 22304,
			"byteOffset": 37452,
			"target": 34962
		},
		{
			"buffer": 0,
			"byteLength": 11152,
			"byteOffset": 59756,
			"target": 34962
		},
		{
			"buffer": 0,
			"byteLength": 11152,
			"byteOffset": 70908,
			"target": 34962
		}
	],
	"images": [
		{
			"uri": "MI_ColorPalette_MetallicRoughness.png"
		},
		{
			"uri": "T_colorPalette2048.png"
		}
	],
	"materials": [
		{
			"name": "MI_ColorPalette",
			"pbrMetallicRoughness":
			{
				"baseColorTexture":
				{
					"index": 0
				},
				"metallicRoughnessTexture":
				{
					"index": 1
				}
			},
			"doubleSided": true
		}
	],
	"meshes": [
		{
			"name": "SM_trash_bin_big",
			"primitives": [
				{
					"attributes":
					{
						"POSITION": 1,
						"NORMAL": 2,
						"TANGENT": 3,
						"TEXCOORD_0": 4,
						"TEXCOORD_1": 5
					},
					"indices": 0,
					"material": 0
				}
			]
		}
	],
	"nodes": [
		{
			"mesh": 0
		}
	],
	"samplers": [
		{
			"minFilter": 9987,
			"magFilter": 9729
		}
	],
	"scenes": [
		{
			"nodes": [
				0
			]
		}
	],
	"textures": [
		{
			"name": "T_colorPalette2048",
			"sampler": 0,
			"source": 1
		},
		{
			"name": "MI_ColorPalette_MetallicRoughness",
			"sampler": 0,
			"source": 0
		}
	]
}