{
	"asset":
	{
		"version": "2.0",
		"generator": "Unreal Engine 5.8.0"
	},
	"scene": 0,
	"accessors": [
		{
			"bufferView": 0,
			"count": 2295,
			"type": "SCALAR",
			"componentType": 5123
		},
		{
			"bufferView": 1,
			"count": 1469,
			"type": "VEC3",
			"componentType": 5126,
			"min": [
				-0.312964797,
				-2.34892426e-08,
				-0.311124414
			],
			"max": [
				0.312053531,
				3.90297389,
				0.564734161
			]
		},
		{
			"bufferView": 2,
			"count": 1469,
			"type": "VEC3",
			"componentType": 5126
		},
		{
			"bufferView": 3,
			"count": 1469,
			"type": "VEC4",
			"componentType": 5126
		},
		{
			"bufferView": 4,
			"count": 1469,
			"type": "VEC2",
			"componentType": 5126
		},
		{
			"bufferView": 5,
			"count": 1469,
			"type": "VEC2",
			"componentType": 5126
		}
	],
	"buffers": [
		{
			"uri": "SM_traffic_lights_2.bin",
			"byteLength": 86856
		}
	],
	"bufferViews": [
		{
			"buffer": 0,
			"byteLength": 4590,
			"target": 34963
		},
		{
			"buffer": 0,
			"byteLength": 17628,
			"byteOffset": 4592,
			"target": 34962
		},
		{
			"buffer": 0,
			"byteLength": 17628,
			"byteOffset": 22220,
			"target": 34962
		},
		{
			"buffer": 0,
			"byteLength": 23504,
			"byteOffset": 39848,
			"target": 34962
		},
		{
			"buffer": 0,
			"byteLength": 11752,
			"byteOffset": 63352,
			"target": 34962
		},
		{
			"buffer": 0,
			"byteLength": 11752,
			"byteOffset": 75104,
			"target": 34962
		}
	],
	"images": [
		{
			"uri": "M_BaseColorPalette_MetallicRoughness.png"
		},
		{
			"uri": "T_colorPalette2048.png"
		}
	],
	"materials": [
		{
			"name": "M_BaseColorPalette",
			"pbrMetallicRoughness":
			{
				"baseColorTexture":
				{
					"index": 0
				},
				"metallicRoughnessTexture":
				{
					"index": 1
				}
			},
			"doubleSided": true
		}
	],
	"meshes": [
		{
			"name": "SM_traffic_lights_2",
			"primitives": [
				{
					"attributes":
					{
						"POSITION": 1,
						"NORMAL": 2,
						"TANGENT": 3,
						"TEXCOORD_0": 4,
						"TEXCOORD_1": 5
					},
					"indices": 0,
					"material": 0
				}
			]
		}
	],
	"nodes": [
		{
			"mesh": 0
		}
	],
	"samplers": [
		{
			"minFilter": 9987,
			"magFilter": 9729
		}
	],
	"scenes": [
		{
			"nodes": [
				0
			]
		}
	],
	"textures": [
		{
			"name": "T_colorPalette2048",
			"sampler": 0,
			"source": 1
		},
		{
			"name": "M_BaseColorPalette_MetallicRoughness",
			"sampler": 0,
			"source": 0
		}
	]
}