{
	"asset":
	{
		"version": "2.0",
		"generator": "Unreal Engine 5.8.0"
	},
	"scene": 0,
	"accessors": [
		{
			"bufferView": 0,
			"count": 2964,
			"type": "SCALAR",
			"componentType": 5123
		},
		{
			"bufferView": 1,
			"count": 2218,
			"type": "VEC3",
			"componentType": 5126,
			"min": [
				-0.916701555,
				-0.0149320327,
				-2.56018925
			],
			"max": [
				0.916702092,
				2.75026298,
				2.56018853
			]
		},
		{
			"bufferView": 2,
			"count": 2218,
			"type": "VEC3",
			"componentType": 5126
		},
		{
			"bufferView": 3,
			"count": 2218,
			"type": "VEC4",
			"componentType": 5126
		},
		{
			"bufferView": 4,
			"count": 2218,
			"type": "VEC2",
			"componentType": 5126
		},
		{
			"bufferView": 5,
			"count": 2218,
			"type": "VEC2",
			"componentType": 5126
		}
	],
	"buffers": [
		{
			"uri": "SM_tank.bin",
			"byteLength": 130136
		}
	],
	"bufferViews": [
		{
			"buffer": 0,
			"byteLength": 5928,
			"target": 34963
		},
		{
			"buffer": 0,
			"byteLength": 26616,
			"byteOffset": 5928,
			"target": 34962
		},
		{
			"buffer": 0,
			"byteLength": 26616,
			"byteOffset": 32544,
			"target": 34962
		},
		{
			"buffer": 0,
			"byteLength": 35488,
			"byteOffset": 59160,
			"target": 34962
		},
		{
			"buffer": 0,
			"byteLength": 17744,
			"byteOffset": 94648,
			"target": 34962
		},
		{
			"buffer": 0,
			"byteLength": 17744,
			"byteOffset": 112392,
			"target": 34962
		}
	],
	"images": [
		{
			"uri": "M_BaseColorPalette_MetallicRoughness.png"
		},
		{
			"uri": "T_colorPalette2048.png"
		}
	],
	"materials": [
		{
			"name": "M_BaseColorPalette",
			"pbrMetallicRoughness":
			{
				"baseColorTexture":
				{
					"index": 0
				},
				"metallicRoughnessTexture":
				{
					"index": 1
				}
			},
			"doubleSided": true
		}
	],
	"meshes": [
		{
			"name": "SM_tank",
			"primitives": [
				{
					"attributes":
					{
						"POSITION": 1,
						"NORMAL": 2,
						"TANGENT": 3,
						"TEXCOORD_0": 4,
						"TEXCOORD_1": 5
					},
					"indices": 0,
					"material": 0
				}
			]
		}
	],
	"nodes": [
		{
			"mesh": 0
		}
	],
	"samplers": [
		{
			"minFilter": 9987,
			"magFilter": 9729
		}
	],
	"scenes": [
		{
			"nodes": [
				0
			]
		}
	],
	"textures": [
		{
			"name": "T_colorPalette2048",
			"sampler": 0,
			"source": 1
		},
		{
			"name": "M_BaseColorPalette_MetallicRoughness",
			"sampler": 0,
			"source": 0
		}
	]
}