{
	"asset":
	{
		"version": "2.0",
		"generator": "Unreal Engine 5.8.0"
	},
	"scene": 0,
	"accessors": [
		{
			"bufferView": 0,
			"count": 3240,
			"type": "SCALAR",
			"componentType": 5123
		},
		{
			"bufferView": 1,
			"count": 2250,
			"type": "VEC3",
			"componentType": 5126,
			"min": [
				-0.395772099,
				-0.067367442,
				-0.933314204
			],
			"max": [
				0.903753698,
				0.903779566,
				1.18584871
			]
		},
		{
			"bufferView": 2,
			"count": 2250,
			"type": "VEC3",
			"componentType": 5126
		},
		{
			"bufferView": 3,
			"count": 2250,
			"type": "VEC4",
			"componentType": 5126
		},
		{
			"bufferView": 4,
			"count": 2250,
			"type": "VEC2",
			"componentType": 5126
		},
		{
			"bufferView": 5,
			"count": 2250,
			"type": "VEC2",
			"componentType": 5126
		}
	],
	"buffers": [
		{
			"uri": "SM_TireSet_02.bin",
			"byteLength": 132480
		}
	],
	"bufferViews": [
		{
			"buffer": 0,
			"byteLength": 6480,
			"target": 34963
		},
		{
			"buffer": 0,
			"byteLength": 27000,
			"byteOffset": 6480,
			"target": 34962
		},
		{
			"buffer": 0,
			"byteLength": 27000,
			"byteOffset": 33480,
			"target": 34962
		},
		{
			"buffer": 0,
			"byteLength": 36000,
			"byteOffset": 60480,
			"target": 34962
		},
		{
			"buffer": 0,
			"byteLength": 18000,
			"byteOffset": 96480,
			"target": 34962
		},
		{
			"buffer": 0,
			"byteLength": 18000,
			"byteOffset": 114480,
			"target": 34962
		}
	],
	"images": [
		{
			"uri": "MI_ColorPalette_MetallicRoughness.png"
		},
		{
			"uri": "T_colorPalette2048.png"
		}
	],
	"materials": [
		{
			"name": "MI_ColorPalette",
			"pbrMetallicRoughness":
			{
				"baseColorTexture":
				{
					"index": 0
				},
				"metallicRoughnessTexture":
				{
					"index": 1
				}
			},
			"doubleSided": true
		}
	],
	"meshes": [
		{
			"name": "SM_TireSet_02",
			"primitives": [
				{
					"attributes":
					{
						"POSITION": 1,
						"NORMAL": 2,
						"TANGENT": 3,
						"TEXCOORD_0": 4,
						"TEXCOORD_1": 5
					},
					"indices": 0,
					"material": 0
				}
			]
		}
	],
	"nodes": [
		{
			"mesh": 0
		}
	],
	"samplers": [
		{
			"minFilter": 9987,
			"magFilter": 9729
		}
	],
	"scenes": [
		{
			"nodes": [
				0
			]
		}
	],
	"textures": [
		{
			"name": "T_colorPalette2048",
			"sampler": 0,
			"source": 1
		},
		{
			"name": "MI_ColorPalette_MetallicRoughness",
			"sampler": 0,
			"source": 0
		}
	]
}