{
	"asset":
	{
		"version": "2.0",
		"generator": "Unreal Engine 5.8.0"
	},
	"scene": 0,
	"accessors": [
		{
			"bufferView": 0,
			"count": 2124,
			"type": "SCALAR",
			"componentType": 5123
		},
		{
			"bufferView": 1,
			"count": 1344,
			"type": "VEC3",
			"componentType": 5126,
			"min": [
				-0.277004689,
				-4.51297915e-08,
				-0.277004808
			],
			"max": [
				0.27724883,
				0.830361605,
				0.277004689
			]
		},
		{
			"bufferView": 2,
			"count": 1344,
			"type": "VEC3",
			"componentType": 5126
		},
		{
			"bufferView": 3,
			"count": 1344,
			"type": "VEC4",
			"componentType": 5126
		},
		{
			"bufferView": 4,
			"count": 1344,
			"type": "VEC2",
			"componentType": 5126
		},
		{
			"bufferView": 5,
			"count": 1344,
			"type": "VEC2",
			"componentType": 5126
		}
	],
	"buffers": [
		{
			"uri": "SM_trash_bin_4.bin",
			"byteLength": 79512
		}
	],
	"bufferViews": [
		{
			"buffer": 0,
			"byteLength": 4248,
			"target": 34963
		},
		{
			"buffer": 0,
			"byteLength": 16128,
			"byteOffset": 4248,
			"target": 34962
		},
		{
			"buffer": 0,
			"byteLength": 16128,
			"byteOffset": 20376,
			"target": 34962
		},
		{
			"buffer": 0,
			"byteLength": 21504,
			"byteOffset": 36504,
			"target": 34962
		},
		{
			"buffer": 0,
			"byteLength": 10752,
			"byteOffset": 58008,
			"target": 34962
		},
		{
			"buffer": 0,
			"byteLength": 10752,
			"byteOffset": 68760,
			"target": 34962
		}
	],
	"images": [
		{
			"uri": "MI_ColorPalette_MetallicRoughness.png"
		},
		{
			"uri": "T_colorPalette2048.png"
		}
	],
	"materials": [
		{
			"name": "MI_ColorPalette",
			"pbrMetallicRoughness":
			{
				"baseColorTexture":
				{
					"index": 0
				},
				"metallicRoughnessTexture":
				{
					"index": 1
				}
			},
			"doubleSided": true
		}
	],
	"meshes": [
		{
			"name": "SM_trash_bin_4",
			"primitives": [
				{
					"attributes":
					{
						"POSITION": 1,
						"NORMAL": 2,
						"TANGENT": 3,
						"TEXCOORD_0": 4,
						"TEXCOORD_1": 5
					},
					"indices": 0,
					"material": 0
				}
			]
		}
	],
	"nodes": [
		{
			"mesh": 0
		}
	],
	"samplers": [
		{
			"minFilter": 9987,
			"magFilter": 9729
		}
	],
	"scenes": [
		{
			"nodes": [
				0
			]
		}
	],
	"textures": [
		{
			"name": "T_colorPalette2048",
			"sampler": 0,
			"source": 1
		},
		{
			"name": "MI_ColorPalette_MetallicRoughness",
			"sampler": 0,
			"source": 0
		}
	]
}