{
	"asset":
	{
		"version": "2.0",
		"generator": "Unreal Engine 5.8.0"
	},
	"scene": 0,
	"accessors": [
		{
			"bufferView": 0,
			"count": 6648,
			"type": "SCALAR",
			"componentType": 5123
		},
		{
			"bufferView": 1,
			"count": 5936,
			"type": "VEC3",
			"componentType": 5126,
			"min": [
				-1.26697111,
				0.000352427392,
				-1.18273067
			],
			"max": [
				0.851584673,
				1.86163747,
				1.18273067
			]
		},
		{
			"bufferView": 2,
			"count": 5936,
			"type": "VEC3",
			"componentType": 5126
		},
		{
			"bufferView": 3,
			"count": 5936,
			"type": "VEC4",
			"componentType": 5126
		},
		{
			"bufferView": 4,
			"count": 5936,
			"type": "VEC2",
			"componentType": 5126
		},
		{
			"bufferView": 5,
			"count": 5936,
			"type": "VEC2",
			"componentType": 5126
		}
	],
	"buffers": [
		{
			"uri": "SM_trash_bin_bigOpen.bin",
			"byteLength": 345712
		}
	],
	"bufferViews": [
		{
			"buffer": 0,
			"byteLength": 13296,
			"target": 34963
		},
		{
			"buffer": 0,
			"byteLength": 71232,
			"byteOffset": 13296,
			"target": 34962
		},
		{
			"buffer": 0,
			"byteLength": 71232,
			"byteOffset": 84528,
			"target": 34962
		},
		{
			"buffer": 0,
			"byteLength": 94976,
			"byteOffset": 155760,
			"target": 34962
		},
		{
			"buffer": 0,
			"byteLength": 47488,
			"byteOffset": 250736,
			"target": 34962
		},
		{
			"buffer": 0,
			"byteLength": 47488,
			"byteOffset": 298224,
			"target": 34962
		}
	],
	"images": [
		{
			"uri": "M_BaseColorPalette_MetallicRoughness.png"
		},
		{
			"uri": "T_colorPalette2048.png"
		}
	],
	"materials": [
		{
			"name": "M_BaseColorPalette",
			"pbrMetallicRoughness":
			{
				"baseColorTexture":
				{
					"index": 0
				},
				"metallicRoughnessTexture":
				{
					"index": 1
				}
			},
			"doubleSided": true
		}
	],
	"meshes": [
		{
			"name": "SM_trash_bin_bigOpen",
			"primitives": [
				{
					"attributes":
					{
						"POSITION": 1,
						"NORMAL": 2,
						"TANGENT": 3,
						"TEXCOORD_0": 4,
						"TEXCOORD_1": 5
					},
					"indices": 0,
					"material": 0
				}
			]
		}
	],
	"nodes": [
		{
			"mesh": 0
		}
	],
	"samplers": [
		{
			"minFilter": 9987,
			"magFilter": 9729
		}
	],
	"scenes": [
		{
			"nodes": [
				0
			]
		}
	],
	"textures": [
		{
			"name": "T_colorPalette2048",
			"sampler": 0,
			"source": 1
		},
		{
			"name": "M_BaseColorPalette_MetallicRoughness",
			"sampler": 0,
			"source": 0
		}
	]
}