{
	"asset":
	{
		"version": "2.0",
		"generator": "Unreal Engine 5.8.0"
	},
	"scene": 0,
	"accessors": [
		{
			"bufferView": 0,
			"count": 3504,
			"type": "SCALAR",
			"componentType": 5123
		},
		{
			"bufferView": 1,
			"count": 3452,
			"type": "VEC3",
			"componentType": 5126,
			"min": [
				-0.618050337,
				-0.00192449451,
				-0.773646653
			],
			"max": [
				0.740830839,
				0.72779119,
				0.699472427
			]
		},
		{
			"bufferView": 2,
			"count": 3452,
			"type": "VEC3",
			"componentType": 5126
		},
		{
			"bufferView": 3,
			"count": 3452,
			"type": "VEC4",
			"componentType": 5126
		},
		{
			"bufferView": 4,
			"count": 3452,
			"type": "VEC2",
			"componentType": 5126
		},
		{
			"bufferView": 5,
			"count": 3452,
			"type": "VEC2",
			"componentType": 5126
		}
	],
	"buffers": [
		{
			"uri": "SM_trash.bin",
			"byteLength": 200320
		}
	],
	"bufferViews": [
		{
			"buffer": 0,
			"byteLength": 7008,
			"target": 34963
		},
		{
			"buffer": 0,
			"byteLength": 41424,
			"byteOffset": 7008,
			"target": 34962
		},
		{
			"buffer": 0,
			"byteLength": 41424,
			"byteOffset": 48432,
			"target": 34962
		},
		{
			"buffer": 0,
			"byteLength": 55232,
			"byteOffset": 89856,
			"target": 34962
		},
		{
			"buffer": 0,
			"byteLength": 27616,
			"byteOffset": 145088,
			"target": 34962
		},
		{
			"buffer": 0,
			"byteLength": 27616,
			"byteOffset": 172704,
			"target": 34962
		}
	],
	"images": [
		{
			"uri": "M_BaseColorPalette_MetallicRoughness.png"
		},
		{
			"uri": "T_colorPalette2048.png"
		}
	],
	"materials": [
		{
			"name": "M_BaseColorPalette",
			"pbrMetallicRoughness":
			{
				"baseColorTexture":
				{
					"index": 0
				},
				"metallicRoughnessTexture":
				{
					"index": 1
				}
			},
			"doubleSided": true
		}
	],
	"meshes": [
		{
			"name": "SM_trash",
			"primitives": [
				{
					"attributes":
					{
						"POSITION": 1,
						"NORMAL": 2,
						"TANGENT": 3,
						"TEXCOORD_0": 4,
						"TEXCOORD_1": 5
					},
					"indices": 0,
					"material": 0
				}
			]
		}
	],
	"nodes": [
		{
			"mesh": 0
		}
	],
	"samplers": [
		{
			"minFilter": 9987,
			"magFilter": 9729
		}
	],
	"scenes": [
		{
			"nodes": [
				0
			]
		}
	],
	"textures": [
		{
			"name": "T_colorPalette2048",
			"sampler": 0,
			"source": 1
		},
		{
			"name": "M_BaseColorPalette_MetallicRoughness",
			"sampler": 0,
			"source": 0
		}
	]
}