{
	"asset":
	{
		"version": "2.0",
		"generator": "Unreal Engine 5.8.0"
	},
	"scene": 0,
	"accessors": [
		{
			"bufferView": 0,
			"count": 2364,
			"type": "SCALAR",
			"componentType": 5123
		},
		{
			"bufferView": 1,
			"count": 1648,
			"type": "VEC3",
			"componentType": 5126,
			"min": [
				-0.470489591,
				-0.000291416829,
				-0.436664194
			],
			"max": [
				0.470489591,
				1.23017955,
				0.43728292
			]
		},
		{
			"bufferView": 2,
			"count": 1648,
			"type": "VEC3",
			"componentType": 5126
		},
		{
			"bufferView": 3,
			"count": 1648,
			"type": "VEC4",
			"componentType": 5126
		},
		{
			"bufferView": 4,
			"count": 1648,
			"type": "VEC2",
			"componentType": 5126
		},
		{
			"bufferView": 5,
			"count": 1648,
			"type": "VEC2",
			"componentType": 5126
		}
	],
	"buffers": [
		{
			"uri": "SM_trash_bin_1.bin",
			"byteLength": 97016
		}
	],
	"bufferViews": [
		{
			"buffer": 0,
			"byteLength": 4728,
			"target": 34963
		},
		{
			"buffer": 0,
			"byteLength": 19776,
			"byteOffset": 4728,
			"target": 34962
		},
		{
			"buffer": 0,
			"byteLength": 19776,
			"byteOffset": 24504,
			"target": 34962
		},
		{
			"buffer": 0,
			"byteLength": 26368,
			"byteOffset": 44280,
			"target": 34962
		},
		{
			"buffer": 0,
			"byteLength": 13184,
			"byteOffset": 70648,
			"target": 34962
		},
		{
			"buffer": 0,
			"byteLength": 13184,
			"byteOffset": 83832,
			"target": 34962
		}
	],
	"images": [
		{
			"uri": "MI_ColorPalette_MetallicRoughness.png"
		},
		{
			"uri": "T_colorPalette2048.png"
		}
	],
	"materials": [
		{
			"name": "MI_ColorPalette",
			"pbrMetallicRoughness":
			{
				"baseColorTexture":
				{
					"index": 0
				},
				"metallicRoughnessTexture":
				{
					"index": 1
				}
			},
			"doubleSided": true
		}
	],
	"meshes": [
		{
			"name": "SM_trash_bin_1",
			"primitives": [
				{
					"attributes":
					{
						"POSITION": 1,
						"NORMAL": 2,
						"TANGENT": 3,
						"TEXCOORD_0": 4,
						"TEXCOORD_1": 5
					},
					"indices": 0,
					"material": 0
				}
			]
		}
	],
	"nodes": [
		{
			"mesh": 0
		}
	],
	"samplers": [
		{
			"minFilter": 9987,
			"magFilter": 9729
		}
	],
	"scenes": [
		{
			"nodes": [
				0
			]
		}
	],
	"textures": [
		{
			"name": "T_colorPalette2048",
			"sampler": 0,
			"source": 1
		},
		{
			"name": "MI_ColorPalette_MetallicRoughness",
			"sampler": 0,
			"source": 0
		}
	]
}