{
	"asset":
	{
		"version": "2.0",
		"generator": "Unreal Engine 5.8.0"
	},
	"scene": 0,
	"accessors": [
		{
			"bufferView": 0,
			"count": 3228,
			"type": "SCALAR",
			"componentType": 5123
		},
		{
			"bufferView": 1,
			"count": 3030,
			"type": "VEC3",
			"componentType": 5126,
			"min": [
				-0.435618937,
				-0.000291416829,
				-0.481572181
			],
			"max": [
				0.435364246,
				1.19499326,
				0.481572181
			]
		},
		{
			"bufferView": 2,
			"count": 3030,
			"type": "VEC3",
			"componentType": 5126
		},
		{
			"bufferView": 3,
			"count": 3030,
			"type": "VEC4",
			"componentType": 5126
		},
		{
			"bufferView": 4,
			"count": 3030,
			"type": "VEC2",
			"componentType": 5126
		},
		{
			"bufferView": 5,
			"count": 3030,
			"type": "VEC2",
			"componentType": 5126
		}
	],
	"buffers": [
		{
			"uri": "SM_trash_bin_1b.bin",
			"byteLength": 176136
		}
	],
	"bufferViews": [
		{
			"buffer": 0,
			"byteLength": 6456,
			"target": 34963
		},
		{
			"buffer": 0,
			"byteLength": 36360,
			"byteOffset": 6456,
			"target": 34962
		},
		{
			"buffer": 0,
			"byteLength": 36360,
			"byteOffset": 42816,
			"target": 34962
		},
		{
			"buffer": 0,
			"byteLength": 48480,
			"byteOffset": 79176,
			"target": 34962
		},
		{
			"buffer": 0,
			"byteLength": 24240,
			"byteOffset": 127656,
			"target": 34962
		},
		{
			"buffer": 0,
			"byteLength": 24240,
			"byteOffset": 151896,
			"target": 34962
		}
	],
	"images": [
		{
			"uri": "MI_ColorPalette_MetallicRoughness.png"
		},
		{
			"uri": "T_colorPalette2048.png"
		}
	],
	"materials": [
		{
			"name": "MI_ColorPalette",
			"pbrMetallicRoughness":
			{
				"baseColorTexture":
				{
					"index": 0
				},
				"metallicRoughnessTexture":
				{
					"index": 1
				}
			},
			"doubleSided": true
		}
	],
	"meshes": [
		{
			"name": "SM_trash_bin_1b",
			"primitives": [
				{
					"attributes":
					{
						"POSITION": 1,
						"NORMAL": 2,
						"TANGENT": 3,
						"TEXCOORD_0": 4,
						"TEXCOORD_1": 5
					},
					"indices": 0,
					"material": 0
				}
			]
		}
	],
	"nodes": [
		{
			"mesh": 0
		}
	],
	"samplers": [
		{
			"minFilter": 9987,
			"magFilter": 9729
		}
	],
	"scenes": [
		{
			"nodes": [
				0
			]
		}
	],
	"textures": [
		{
			"name": "T_colorPalette2048",
			"sampler": 0,
			"source": 1
		},
		{
			"name": "MI_ColorPalette_MetallicRoughness",
			"sampler": 0,
			"source": 0
		}
	]
}