{
	"asset":
	{
		"version": "2.0",
		"generator": "Unreal Engine 5.8.0"
	},
	"scene": 0,
	"accessors": [
		{
			"bufferView": 0,
			"count": 2484,
			"type": "SCALAR",
			"componentType": 5123
		},
		{
			"bufferView": 1,
			"count": 1975,
			"type": "VEC3",
			"componentType": 5126,
			"min": [
				-0.298327655,
				-8.3065899e-18,
				-0.994180262
			],
			"max": [
				0.355664581,
				9.47548676,
				0.994180262
			]
		},
		{
			"bufferView": 2,
			"count": 1975,
			"type": "VEC3",
			"componentType": 5126
		},
		{
			"bufferView": 3,
			"count": 1975,
			"type": "VEC4",
			"componentType": 5126
		},
		{
			"bufferView": 4,
			"count": 1975,
			"type": "VEC2",
			"componentType": 5126
		},
		{
			"bufferView": 5,
			"count": 1975,
			"type": "VEC2",
			"componentType": 5126
		}
	],
	"buffers": [
		{
			"uri": "SM_utility_pole_3.bin",
			"byteLength": 115568
		}
	],
	"bufferViews": [
		{
			"buffer": 0,
			"byteLength": 4968,
			"target": 34963
		},
		{
			"buffer": 0,
			"byteLength": 23700,
			"byteOffset": 4968,
			"target": 34962
		},
		{
			"buffer": 0,
			"byteLength": 23700,
			"byteOffset": 28668,
			"target": 34962
		},
		{
			"buffer": 0,
			"byteLength": 31600,
			"byteOffset": 52368,
			"target": 34962
		},
		{
			"buffer": 0,
			"byteLength": 15800,
			"byteOffset": 83968,
			"target": 34962
		},
		{
			"buffer": 0,
			"byteLength": 15800,
			"byteOffset": 99768,
			"target": 34962
		}
	],
	"images": [
		{
			"uri": "MI_ColorPalette_MetallicRoughness.png"
		},
		{
			"uri": "T_colorPalette2048.png"
		}
	],
	"materials": [
		{
			"name": "MI_ColorPalette",
			"pbrMetallicRoughness":
			{
				"baseColorTexture":
				{
					"index": 0
				},
				"metallicRoughnessTexture":
				{
					"index": 1
				}
			},
			"doubleSided": true
		}
	],
	"meshes": [
		{
			"name": "SM_utility_pole_3",
			"primitives": [
				{
					"attributes":
					{
						"POSITION": 1,
						"NORMAL": 2,
						"TANGENT": 3,
						"TEXCOORD_0": 4,
						"TEXCOORD_1": 5
					},
					"indices": 0,
					"material": 0
				}
			]
		}
	],
	"nodes": [
		{
			"mesh": 0
		}
	],
	"samplers": [
		{
			"minFilter": 9987,
			"magFilter": 9729
		}
	],
	"scenes": [
		{
			"nodes": [
				0
			]
		}
	],
	"textures": [
		{
			"name": "T_colorPalette2048",
			"sampler": 0,
			"source": 1
		},
		{
			"name": "MI_ColorPalette_MetallicRoughness",
			"sampler": 0,
			"source": 0
		}
	]
}