{
	"asset":
	{
		"version": "2.0",
		"generator": "Unreal Engine 5.8.0"
	},
	"scene": 0,
	"accessors": [
		{
			"bufferView": 0,
			"count": 2538,
			"type": "SCALAR",
			"componentType": 5123
		},
		{
			"bufferView": 1,
			"count": 1861,
			"type": "VEC3",
			"componentType": 5126,
			"min": [
				-0.647141695,
				-1.26065475e-16,
				-2.13224196
			],
			"max": [
				0.798895776,
				11.7730198,
				2.05880523
			]
		},
		{
			"bufferView": 2,
			"count": 1861,
			"type": "VEC3",
			"componentType": 5126
		},
		{
			"bufferView": 3,
			"count": 1861,
			"type": "VEC4",
			"componentType": 5126
		},
		{
			"bufferView": 4,
			"count": 1861,
			"type": "VEC2",
			"componentType": 5126
		},
		{
			"bufferView": 5,
			"count": 1861,
			"type": "VEC2",
			"componentType": 5126
		}
	],
	"buffers": [
		{
			"uri": "SM_utility_pole_2.bin",
			"byteLength": 109292
		}
	],
	"bufferViews": [
		{
			"buffer": 0,
			"byteLength": 5076,
			"target": 34963
		},
		{
			"buffer": 0,
			"byteLength": 22332,
			"byteOffset": 5076,
			"target": 34962
		},
		{
			"buffer": 0,
			"byteLength": 22332,
			"byteOffset": 27408,
			"target": 34962
		},
		{
			"buffer": 0,
			"byteLength": 29776,
			"byteOffset": 49740,
			"target": 34962
		},
		{
			"buffer": 0,
			"byteLength": 14888,
			"byteOffset": 79516,
			"target": 34962
		},
		{
			"buffer": 0,
			"byteLength": 14888,
			"byteOffset": 94404,
			"target": 34962
		}
	],
	"images": [
		{
			"uri": "MI_ColorPalette_MetallicRoughness.png"
		},
		{
			"uri": "T_colorPalette2048.png"
		}
	],
	"materials": [
		{
			"name": "MI_ColorPalette",
			"pbrMetallicRoughness":
			{
				"baseColorTexture":
				{
					"index": 0
				},
				"metallicRoughnessTexture":
				{
					"index": 1
				}
			},
			"doubleSided": true
		}
	],
	"meshes": [
		{
			"name": "SM_utility_pole_2",
			"primitives": [
				{
					"attributes":
					{
						"POSITION": 1,
						"NORMAL": 2,
						"TANGENT": 3,
						"TEXCOORD_0": 4,
						"TEXCOORD_1": 5
					},
					"indices": 0,
					"material": 0
				}
			]
		}
	],
	"nodes": [
		{
			"mesh": 0
		}
	],
	"samplers": [
		{
			"minFilter": 9987,
			"magFilter": 9729
		}
	],
	"scenes": [
		{
			"nodes": [
				0
			]
		}
	],
	"textures": [
		{
			"name": "T_colorPalette2048",
			"sampler": 0,
			"source": 1
		},
		{
			"name": "MI_ColorPalette_MetallicRoughness",
			"sampler": 0,
			"source": 0
		}
	]
}