{
	"asset":
	{
		"version": "2.0",
		"generator": "Unreal Engine 5.8.0"
	},
	"scene": 0,
	"accessors": [
		{
			"bufferView": 0,
			"count": 384,
			"type": "SCALAR",
			"componentType": 5123
		},
		{
			"bufferView": 1,
			"count": 258,
			"type": "VEC3",
			"componentType": 5126,
			"min": [
				-0.0121765118,
				4.36160231,
				-0.0394047126
			],
			"max": [
				24.0000019,
				6.4228034,
				0.0394031629
			]
		},
		{
			"bufferView": 2,
			"count": 258,
			"type": "VEC3",
			"componentType": 5126
		},
		{
			"bufferView": 3,
			"count": 258,
			"type": "VEC4",
			"componentType": 5126
		},
		{
			"bufferView": 4,
			"count": 258,
			"type": "VEC2",
			"componentType": 5126
		},
		{
			"bufferView": 5,
			"count": 258,
			"type": "VEC2",
			"componentType": 5126
		}
	],
	"buffers": [
		{
			"uri": "SM_utility_pole_5_line2a.bin",
			"byteLength": 15216
		}
	],
	"bufferViews": [
		{
			"buffer": 0,
			"byteLength": 768,
			"target": 34963
		},
		{
			"buffer": 0,
			"byteLength": 3096,
			"byteOffset": 768,
			"target": 34962
		},
		{
			"buffer": 0,
			"byteLength": 3096,
			"byteOffset": 3864,
			"target": 34962
		},
		{
			"buffer": 0,
			"byteLength": 4128,
			"byteOffset": 6960,
			"target": 34962
		},
		{
			"buffer": 0,
			"byteLength": 2064,
			"byteOffset": 11088,
			"target": 34962
		},
		{
			"buffer": 0,
			"byteLength": 2064,
			"byteOffset": 13152,
			"target": 34962
		}
	],
	"images": [
		{
			"uri": "MI_ColorPalette_MetallicRoughness.png"
		},
		{
			"uri": "T_colorPalette2048.png"
		}
	],
	"materials": [
		{
			"name": "MI_ColorPalette",
			"pbrMetallicRoughness":
			{
				"baseColorTexture":
				{
					"index": 0
				},
				"metallicRoughnessTexture":
				{
					"index": 1
				}
			},
			"doubleSided": true
		}
	],
	"meshes": [
		{
			"name": "SM_utility_pole_5_line2a",
			"primitives": [
				{
					"attributes":
					{
						"POSITION": 1,
						"NORMAL": 2,
						"TANGENT": 3,
						"TEXCOORD_0": 4,
						"TEXCOORD_1": 5
					},
					"indices": 0,
					"material": 0
				}
			]
		}
	],
	"nodes": [
		{
			"mesh": 0
		}
	],
	"samplers": [
		{
			"minFilter": 9987,
			"magFilter": 9729
		}
	],
	"scenes": [
		{
			"nodes": [
				0
			]
		}
	],
	"textures": [
		{
			"name": "T_colorPalette2048",
			"sampler": 0,
			"source": 1
		},
		{
			"name": "MI_ColorPalette_MetallicRoughness",
			"sampler": 0,
			"source": 0
		}
	]
}