{
	"asset":
	{
		"version": "2.0",
		"generator": "Unreal Engine 5.8.0"
	},
	"scene": 0,
	"accessors": [
		{
			"bufferView": 0,
			"count": 972,
			"type": "SCALAR",
			"componentType": 5123
		},
		{
			"bufferView": 1,
			"count": 666,
			"type": "VEC3",
			"componentType": 5126,
			"min": [
				-0.0437109359,
				-0.00609970093,
				-0.115586795
			],
			"max": [
				16.1334686,
				8.0060997,
				0.115591675
			]
		},
		{
			"bufferView": 2,
			"count": 666,
			"type": "VEC3",
			"componentType": 5126
		},
		{
			"bufferView": 3,
			"count": 666,
			"type": "VEC4",
			"componentType": 5126
		},
		{
			"bufferView": 4,
			"count": 666,
			"type": "VEC2",
			"componentType": 5126
		},
		{
			"bufferView": 5,
			"count": 666,
			"type": "VEC2",
			"componentType": 5126
		}
	],
	"buffers": [
		{
			"uri": "SM_utility_pole_5_lineFlags.bin",
			"byteLength": 39240
		}
	],
	"bufferViews": [
		{
			"buffer": 0,
			"byteLength": 1944,
			"target": 34963
		},
		{
			"buffer": 0,
			"byteLength": 7992,
			"byteOffset": 1944,
			"target": 34962
		},
		{
			"buffer": 0,
			"byteLength": 7992,
			"byteOffset": 9936,
			"target": 34962
		},
		{
			"buffer": 0,
			"byteLength": 10656,
			"byteOffset": 17928,
			"target": 34962
		},
		{
			"buffer": 0,
			"byteLength": 5328,
			"byteOffset": 28584,
			"target": 34962
		},
		{
			"buffer": 0,
			"byteLength": 5328,
			"byteOffset": 33912,
			"target": 34962
		}
	],
	"images": [
		{
			"uri": "MI_ColorPalette_MetallicRoughness.png"
		},
		{
			"uri": "T_colorPalette2048.png"
		}
	],
	"materials": [
		{
			"name": "MI_ColorPalette",
			"pbrMetallicRoughness":
			{
				"baseColorTexture":
				{
					"index": 0
				},
				"metallicRoughnessTexture":
				{
					"index": 1
				}
			},
			"doubleSided": true
		}
	],
	"meshes": [
		{
			"name": "SM_utility_pole_5_lineFlags",
			"primitives": [
				{
					"attributes":
					{
						"POSITION": 1,
						"NORMAL": 2,
						"TANGENT": 3,
						"TEXCOORD_0": 4,
						"TEXCOORD_1": 5
					},
					"indices": 0,
					"material": 0
				}
			]
		}
	],
	"nodes": [
		{
			"mesh": 0
		}
	],
	"samplers": [
		{
			"minFilter": 9987,
			"magFilter": 9729
		}
	],
	"scenes": [
		{
			"nodes": [
				0
			]
		}
	],
	"textures": [
		{
			"name": "T_colorPalette2048",
			"sampler": 0,
			"source": 1
		},
		{
			"name": "MI_ColorPalette_MetallicRoughness",
			"sampler": 0,
			"source": 0
		}
	]
}