{
	"asset":
	{
		"version": "2.0",
		"generator": "Unreal Engine 5.8.0"
	},
	"scene": 0,
	"accessors": [
		{
			"bufferView": 0,
			"count": 2160,
			"type": "SCALAR",
			"componentType": 5123
		},
		{
			"bufferView": 1,
			"count": 1461,
			"type": "VEC3",
			"componentType": 5126,
			"min": [
				-0.940532804,
				-0.00478377938,
				-0.481011927
			],
			"max": [
				1.06808364,
				0.811664999,
				0.481011599
			]
		},
		{
			"bufferView": 2,
			"count": 1461,
			"type": "VEC3",
			"componentType": 5126
		},
		{
			"bufferView": 3,
			"count": 1461,
			"type": "VEC4",
			"componentType": 5126
		},
		{
			"bufferView": 4,
			"count": 1461,
			"type": "VEC2",
			"componentType": 5126
		},
		{
			"bufferView": 5,
			"count": 1461,
			"type": "VEC2",
			"componentType": 5126
		}
	],
	"buffers": [
		{
			"uri": "SM_wheelbarrow.bin",
			"byteLength": 86136
		}
	],
	"bufferViews": [
		{
			"buffer": 0,
			"byteLength": 4320,
			"target": 34963
		},
		{
			"buffer": 0,
			"byteLength": 17532,
			"byteOffset": 4320,
			"target": 34962
		},
		{
			"buffer": 0,
			"byteLength": 17532,
			"byteOffset": 21852,
			"target": 34962
		},
		{
			"buffer": 0,
			"byteLength": 23376,
			"byteOffset": 39384,
			"target": 34962
		},
		{
			"buffer": 0,
			"byteLength": 11688,
			"byteOffset": 62760,
			"target": 34962
		},
		{
			"buffer": 0,
			"byteLength": 11688,
			"byteOffset": 74448,
			"target": 34962
		}
	],
	"images": [
		{
			"uri": "MI_ColorPalette_MetallicRoughness.png"
		},
		{
			"uri": "T_colorPalette2048.png"
		}
	],
	"materials": [
		{
			"name": "MI_ColorPalette",
			"pbrMetallicRoughness":
			{
				"baseColorTexture":
				{
					"index": 0
				},
				"metallicRoughnessTexture":
				{
					"index": 1
				}
			},
			"doubleSided": true
		}
	],
	"meshes": [
		{
			"name": "SM_wheelbarrow",
			"primitives": [
				{
					"attributes":
					{
						"POSITION": 1,
						"NORMAL": 2,
						"TANGENT": 3,
						"TEXCOORD_0": 4,
						"TEXCOORD_1": 5
					},
					"indices": 0,
					"material": 0
				}
			]
		}
	],
	"nodes": [
		{
			"mesh": 0
		}
	],
	"samplers": [
		{
			"minFilter": 9987,
			"magFilter": 9729
		}
	],
	"scenes": [
		{
			"nodes": [
				0
			]
		}
	],
	"textures": [
		{
			"name": "T_colorPalette2048",
			"sampler": 0,
			"source": 1
		},
		{
			"name": "MI_ColorPalette_MetallicRoughness",
			"sampler": 0,
			"source": 0
		}
	]
}