{
	"asset":
	{
		"version": "2.0",
		"generator": "Unreal Engine 5.8.0"
	},
	"scene": 0,
	"accessors": [
		{
			"bufferView": 0,
			"count": 5160,
			"type": "SCALAR",
			"componentType": 5123
		},
		{
			"bufferView": 1,
			"count": 3274,
			"type": "VEC3",
			"componentType": 5126,
			"min": [
				-1.44139016,
				-0.118020482,
				-1.47412074
			],
			"max": [
				1.44139016,
				8.64738846,
				1.47412074
			]
		},
		{
			"bufferView": 2,
			"count": 3274,
			"type": "VEC3",
			"componentType": 5126
		},
		{
			"bufferView": 3,
			"count": 3274,
			"type": "VEC4",
			"componentType": 5126
		},
		{
			"bufferView": 4,
			"count": 3274,
			"type": "VEC2",
			"componentType": 5126
		},
		{
			"bufferView": 5,
			"count": 3274,
			"type": "VEC2",
			"componentType": 5126
		}
	],
	"buffers": [
		{
			"uri": "SM_Water_Tank_01.bin",
			"byteLength": 193664
		}
	],
	"bufferViews": [
		{
			"buffer": 0,
			"byteLength": 10320,
			"target": 34963
		},
		{
			"buffer": 0,
			"byteLength": 39288,
			"byteOffset": 10320,
			"target": 34962
		},
		{
			"buffer": 0,
			"byteLength": 39288,
			"byteOffset": 49608,
			"target": 34962
		},
		{
			"buffer": 0,
			"byteLength": 52384,
			"byteOffset": 88896,
			"target": 34962
		},
		{
			"buffer": 0,
			"byteLength": 26192,
			"byteOffset": 141280,
			"target": 34962
		},
		{
			"buffer": 0,
			"byteLength": 26192,
			"byteOffset": 167472,
			"target": 34962
		}
	],
	"images": [
		{
			"uri": "MI_ColorPalette_MetallicRoughness.png"
		},
		{
			"uri": "T_colorPalette2048.png"
		}
	],
	"materials": [
		{
			"name": "MI_ColorPalette",
			"pbrMetallicRoughness":
			{
				"baseColorTexture":
				{
					"index": 0
				},
				"metallicRoughnessTexture":
				{
					"index": 1
				}
			},
			"doubleSided": true
		}
	],
	"meshes": [
		{
			"name": "SM_Water_Tank_01",
			"primitives": [
				{
					"attributes":
					{
						"POSITION": 1,
						"NORMAL": 2,
						"TANGENT": 3,
						"TEXCOORD_0": 4,
						"TEXCOORD_1": 5
					},
					"indices": 0,
					"material": 0
				}
			]
		}
	],
	"nodes": [
		{
			"mesh": 0
		}
	],
	"samplers": [
		{
			"minFilter": 9987,
			"magFilter": 9729
		}
	],
	"scenes": [
		{
			"nodes": [
				0
			]
		}
	],
	"textures": [
		{
			"name": "T_colorPalette2048",
			"sampler": 0,
			"source": 1
		},
		{
			"name": "MI_ColorPalette_MetallicRoughness",
			"sampler": 0,
			"source": 0
		}
	]
}