{
	"asset":
	{
		"version": "2.0",
		"generator": "Unreal Engine 5.8.0"
	},
	"scene": 0,
	"accessors": [
		{
			"bufferView": 0,
			"count": 11136,
			"type": "SCALAR",
			"componentType": 5123
		},
		{
			"bufferView": 1,
			"count": 8401,
			"type": "VEC3",
			"componentType": 5126,
			"min": [
				-2.46564889,
				-0.0388102718,
				-1.19467711
			],
			"max": [
				2.37592673,
				1.51418424,
				1.02104557
			]
		},
		{
			"bufferView": 2,
			"count": 8401,
			"type": "VEC3",
			"componentType": 5126
		},
		{
			"bufferView": 3,
			"count": 8401,
			"type": "VEC4",
			"componentType": 5126
		},
		{
			"bufferView": 4,
			"count": 8401,
			"type": "VEC2",
			"componentType": 5126
		},
		{
			"bufferView": 5,
			"count": 8401,
			"type": "VEC2",
			"componentType": 5126
		}
	],
	"buffers": [
		{
			"uri": "SM_wreck_02.bin",
			"byteLength": 492728
		}
	],
	"bufferViews": [
		{
			"buffer": 0,
			"byteLength": 22272,
			"target": 34963
		},
		{
			"buffer": 0,
			"byteLength": 100812,
			"byteOffset": 22272,
			"target": 34962
		},
		{
			"buffer": 0,
			"byteLength": 100812,
			"byteOffset": 123084,
			"target": 34962
		},
		{
			"buffer": 0,
			"byteLength": 134416,
			"byteOffset": 223896,
			"target": 34962
		},
		{
			"buffer": 0,
			"byteLength": 67208,
			"byteOffset": 358312,
			"target": 34962
		},
		{
			"buffer": 0,
			"byteLength": 67208,
			"byteOffset": 425520,
			"target": 34962
		}
	],
	"materials": [
		{
			"name": "MI_matteDarkBrown2",
			"pbrMetallicRoughness":
			{
				"baseColorFactor": [
					0.0104170004,
					0.00685099978,
					0.00235099997,
					1
				],
				"metallicFactor": 0
			},
			"doubleSided": true
		}
	],
	"meshes": [
		{
			"name": "SM_wreck_02",
			"primitives": [
				{
					"attributes":
					{
						"POSITION": 1,
						"NORMAL": 2,
						"TANGENT": 3,
						"TEXCOORD_0": 4,
						"TEXCOORD_1": 5
					},
					"indices": 0,
					"material": 0
				}
			]
		}
	],
	"nodes": [
		{
			"mesh": 0
		}
	],
	"scenes": [
		{
			"nodes": [
				0
			]
		}
	]
}