{
	"asset":
	{
		"version": "2.0",
		"generator": "Unreal Engine 5.8.0"
	},
	"scene": 0,
	"accessors": [
		{
			"bufferView": 0,
			"count": 4026,
			"type": "SCALAR",
			"componentType": 5123
		},
		{
			"bufferView": 1,
			"count": 2496,
			"type": "VEC3",
			"componentType": 5126,
			"min": [
				-0.643135428,
				-0.0409230255,
				-2.66549158
			],
			"max": [
				0.643135428,
				9.07922935,
				1.40115798
			]
		},
		{
			"bufferView": 2,
			"count": 2496,
			"type": "VEC3",
			"componentType": 5126
		},
		{
			"bufferView": 3,
			"count": 2496,
			"type": "VEC4",
			"componentType": 5126
		},
		{
			"bufferView": 4,
			"count": 2496,
			"type": "VEC2",
			"componentType": 5126
		},
		{
			"bufferView": 5,
			"count": 2496,
			"type": "VEC2",
			"componentType": 5126
		}
	],
	"buffers": [
		{
			"uri": "SM_Windmill_01.bin",
			"byteLength": 147828
		}
	],
	"bufferViews": [
		{
			"buffer": 0,
			"byteLength": 8052,
			"target": 34963
		},
		{
			"buffer": 0,
			"byteLength": 29952,
			"byteOffset": 8052,
			"target": 34962
		},
		{
			"buffer": 0,
			"byteLength": 29952,
			"byteOffset": 38004,
			"target": 34962
		},
		{
			"buffer": 0,
			"byteLength": 39936,
			"byteOffset": 67956,
			"target": 34962
		},
		{
			"buffer": 0,
			"byteLength": 19968,
			"byteOffset": 107892,
			"target": 34962
		},
		{
			"buffer": 0,
			"byteLength": 19968,
			"byteOffset": 127860,
			"target": 34962
		}
	],
	"images": [
		{
			"uri": "MI_ColorPalette_MetallicRoughness.png"
		},
		{
			"uri": "T_colorPalette2048.png"
		}
	],
	"materials": [
		{
			"name": "MI_ColorPalette",
			"pbrMetallicRoughness":
			{
				"baseColorTexture":
				{
					"index": 0
				},
				"metallicRoughnessTexture":
				{
					"index": 1
				}
			},
			"doubleSided": true
		}
	],
	"meshes": [
		{
			"name": "SM_Windmill_01",
			"primitives": [
				{
					"attributes":
					{
						"POSITION": 1,
						"NORMAL": 2,
						"TANGENT": 3,
						"TEXCOORD_0": 4,
						"TEXCOORD_1": 5
					},
					"indices": 0,
					"material": 0
				}
			]
		}
	],
	"nodes": [
		{
			"mesh": 0
		}
	],
	"samplers": [
		{
			"minFilter": 9987,
			"magFilter": 9729
		}
	],
	"scenes": [
		{
			"nodes": [
				0
			]
		}
	],
	"textures": [
		{
			"name": "T_colorPalette2048",
			"sampler": 0,
			"source": 1
		},
		{
			"name": "MI_ColorPalette_MetallicRoughness",
			"sampler": 0,
			"source": 0
		}
	]
}