{
	"asset":
	{
		"version": "2.0",
		"generator": "Unreal Engine 5.8.0"
	},
	"scene": 0,
	"accessors": [
		{
			"bufferView": 0,
			"count": 4518,
			"type": "SCALAR",
			"componentType": 5123
		},
		{
			"bufferView": 1,
			"count": 3303,
			"type": "VEC3",
			"componentType": 5126,
			"min": [
				-0.554075181,
				-5.96046448e-08,
				-1.37977922
			],
			"max": [
				0.556332707,
				1.22856987,
				1.14150286
			]
		},
		{
			"bufferView": 2,
			"count": 3303,
			"type": "VEC3",
			"componentType": 5126
		},
		{
			"bufferView": 3,
			"count": 3303,
			"type": "VEC4",
			"componentType": 5126
		},
		{
			"bufferView": 4,
			"count": 3303,
			"type": "VEC2",
			"componentType": 5126
		},
		{
			"bufferView": 5,
			"count": 3303,
			"type": "VEC2",
			"componentType": 5126
		}
	],
	"buffers": [
		{
			"uri": "SM_workbench.bin",
			"byteLength": 194004
		}
	],
	"bufferViews": [
		{
			"buffer": 0,
			"byteLength": 9036,
			"target": 34963
		},
		{
			"buffer": 0,
			"byteLength": 39636,
			"byteOffset": 9036,
			"target": 34962
		},
		{
			"buffer": 0,
			"byteLength": 39636,
			"byteOffset": 48672,
			"target": 34962
		},
		{
			"buffer": 0,
			"byteLength": 52848,
			"byteOffset": 88308,
			"target": 34962
		},
		{
			"buffer": 0,
			"byteLength": 26424,
			"byteOffset": 141156,
			"target": 34962
		},
		{
			"buffer": 0,
			"byteLength": 26424,
			"byteOffset": 167580,
			"target": 34962
		}
	],
	"images": [
		{
			"uri": "M_BaseColorPalette_MetallicRoughness.png"
		},
		{
			"uri": "T_colorPalette2048.png"
		}
	],
	"materials": [
		{
			"name": "M_BaseColorPalette",
			"pbrMetallicRoughness":
			{
				"baseColorTexture":
				{
					"index": 0
				},
				"metallicRoughnessTexture":
				{
					"index": 1
				}
			},
			"doubleSided": true
		}
	],
	"meshes": [
		{
			"name": "SM_workbench",
			"primitives": [
				{
					"attributes":
					{
						"POSITION": 1,
						"NORMAL": 2,
						"TANGENT": 3,
						"TEXCOORD_0": 4,
						"TEXCOORD_1": 5
					},
					"indices": 0,
					"material": 0
				}
			]
		}
	],
	"nodes": [
		{
			"mesh": 0
		}
	],
	"samplers": [
		{
			"minFilter": 9987,
			"magFilter": 9729
		}
	],
	"scenes": [
		{
			"nodes": [
				0
			]
		}
	],
	"textures": [
		{
			"name": "T_colorPalette2048",
			"sampler": 0,
			"source": 1
		},
		{
			"name": "M_BaseColorPalette_MetallicRoughness",
			"sampler": 0,
			"source": 0
		}
	]
}