{
	"asset":
	{
		"version": "2.0",
		"generator": "Unreal Engine 5.8.0"
	},
	"scene": 0,
	"accessors": [
		{
			"bufferView": 0,
			"count": 1251,
			"type": "SCALAR",
			"componentType": 5123
		},
		{
			"bufferView": 1,
			"count": 1131,
			"type": "VEC3",
			"componentType": 5126,
			"min": [
				-1.58273101,
				-7.94554637e-07,
				-1.63708353
			],
			"max": [
				1.5055505,
				2.64843583,
				1.60530221
			]
		},
		{
			"bufferView": 2,
			"count": 1131,
			"type": "VEC3",
			"componentType": 5126
		},
		{
			"bufferView": 3,
			"count": 1131,
			"type": "VEC4",
			"componentType": 5126
		},
		{
			"bufferView": 4,
			"count": 1131,
			"type": "VEC2",
			"componentType": 5126
		},
		{
			"bufferView": 5,
			"count": 1131,
			"type": "VEC2",
			"componentType": 5126
		},
		{
			"bufferView": 6,
			"count": 2400,
			"type": "SCALAR",
			"componentType": 5123
		},
		{
			"bufferView": 7,
			"count": 1000,
			"type": "VEC3",
			"componentType": 5126,
			"min": [
				-3.1358285,
				-0.689343452,
				-3.24293685
			],
			"max": [
				3.00343037,
				4.15585756,
				3.165869
			]
		},
		{
			"bufferView": 8,
			"count": 1000,
			"type": "VEC3",
			"componentType": 5126
		},
		{
			"bufferView": 9,
			"count": 1000,
			"type": "VEC4",
			"componentType": 5126
		},
		{
			"bufferView": 10,
			"count": 1000,
			"type": "VEC2",
			"componentType": 5126
		},
		{
			"bufferView": 11,
			"count": 1000,
			"type": "VEC2",
			"componentType": 5126
		}
	],
	"buffers": [
		{
			"uri": "SM_bush_01.bin",
			"byteLength": 126640
		}
	],
	"bufferViews": [
		{
			"buffer": 0,
			"byteLength": 2502,
			"target": 34963
		},
		{
			"buffer": 0,
			"byteLength": 13572,
			"byteOffset": 2504,
			"target": 34962
		},
		{
			"buffer": 0,
			"byteLength": 13572,
			"byteOffset": 16076,
			"target": 34962
		},
		{
			"buffer": 0,
			"byteLength": 18096,
			"byteOffset": 29648,
			"target": 34962
		},
		{
			"buffer": 0,
			"byteLength": 9048,
			"byteOffset": 47744,
			"target": 34962
		},
		{
			"buffer": 0,
			"byteLength": 9048,
			"byteOffset": 56792,
			"target": 34962
		},
		{
			"buffer": 0,
			"byteLength": 4800,
			"byteOffset": 65840,
			"target": 34963
		},
		{
			"buffer": 0,
			"byteLength": 12000,
			"byteOffset": 70640,
			"target": 34962
		},
		{
			"buffer": 0,
			"byteLength": 12000,
			"byteOffset": 82640,
			"target": 34962
		},
		{
			"buffer": 0,
			"byteLength": 16000,
			"byteOffset": 94640,
			"target": 34962
		},
		{
			"buffer": 0,
			"byteLength": 8000,
			"byteOffset": 110640,
			"target": 34962
		},
		{
			"buffer": 0,
			"byteLength": 8000,
			"byteOffset": 118640,
			"target": 34962
		}
	],
	"images": [
		{
			"uri": "T_leaf_01.png"
		}
	],
	"materials": [
		{
			"name": "MI_matteBrown",
			"pbrMetallicRoughness":
			{
				"baseColorFactor": [
					0.0850000009,
					0.0463539995,
					0.0169520006,
					1
				],
				"metallicFactor": 0
			},
			"doubleSided": true
		},
		{
			"name": "MI_Leaf_01",
			"pbrMetallicRoughness":
			{
				"baseColorTexture":
				{
					"index": 0
				},
				"metallicFactor": 0
			},
			"alphaMode": "MASK",
			"alphaCutoff": 0.333299994,
			"doubleSided": true
		}
	],
	"meshes": [
		{
			"name": "SM_bush_01",
			"primitives": [
				{
					"attributes":
					{
						"POSITION": 1,
						"NORMAL": 2,
						"TANGENT": 3,
						"TEXCOORD_0": 4,
						"TEXCOORD_1": 5
					},
					"indices": 0,
					"material": 0
				},
				{
					"attributes":
					{
						"POSITION": 7,
						"NORMAL": 8,
						"TANGENT": 9,
						"TEXCOORD_0": 10,
						"TEXCOORD_1": 11
					},
					"indices": 6,
					"material": 1
				}
			]
		}
	],
	"nodes": [
		{
			"mesh": 0
		}
	],
	"samplers": [
		{
			"minFilter": 9987,
			"magFilter": 9729
		}
	],
	"scenes": [
		{
			"nodes": [
				0
			]
		}
	],
	"textures": [
		{
			"name": "T_leaf_01",
			"sampler": 0,
			"source": 0
		}
	]
}