{
	"asset":
	{
		"version": "2.0",
		"generator": "Unreal Engine 5.8.0"
	},
	"scene": 0,
	"accessors": [
		{
			"bufferView": 0,
			"count": 3123,
			"type": "SCALAR",
			"componentType": 5123
		},
		{
			"bufferView": 1,
			"count": 3115,
			"type": "VEC3",
			"componentType": 5126,
			"min": [
				-1.64905787,
				-9.64566198e-07,
				-1.17836344
			],
			"max": [
				1.59991801,
				16.2447243,
				1.06242871
			]
		},
		{
			"bufferView": 2,
			"count": 3115,
			"type": "VEC3",
			"componentType": 5126
		},
		{
			"bufferView": 3,
			"count": 3115,
			"type": "VEC4",
			"componentType": 5126
		},
		{
			"bufferView": 4,
			"count": 3115,
			"type": "VEC2",
			"componentType": 5126
		},
		{
			"bufferView": 5,
			"count": 3115,
			"type": "VEC2",
			"componentType": 5126
		},
		{
			"bufferView": 6,
			"count": 1080,
			"type": "SCALAR",
			"componentType": 5123
		},
		{
			"bufferView": 7,
			"count": 1080,
			"type": "VEC3",
			"componentType": 5126,
			"min": [
				-2.36731386,
				9.11819839,
				-2.10103583
			],
			"max": [
				2.01327944,
				15.9372711,
				2.02548885
			]
		},
		{
			"bufferView": 8,
			"count": 1080,
			"type": "VEC3",
			"componentType": 5126
		},
		{
			"bufferView": 9,
			"count": 1080,
			"type": "VEC4",
			"componentType": 5126
		},
		{
			"bufferView": 10,
			"count": 1080,
			"type": "VEC2",
			"componentType": 5126
		},
		{
			"bufferView": 11,
			"count": 1080,
			"type": "VEC2",
			"componentType": 5126
		}
	],
	"buffers": [
		{
			"uri": "SM_tree_04.bin",
			"byteLength": 243328
		}
	],
	"bufferViews": [
		{
			"buffer": 0,
			"byteLength": 6246,
			"target": 34963
		},
		{
			"buffer": 0,
			"byteLength": 37380,
			"byteOffset": 6248,
			"target": 34962
		},
		{
			"buffer": 0,
			"byteLength": 37380,
			"byteOffset": 43628,
			"target": 34962
		},
		{
			"buffer": 0,
			"byteLength": 49840,
			"byteOffset": 81008,
			"target": 34962
		},
		{
			"buffer": 0,
			"byteLength": 24920,
			"byteOffset": 130848,
			"target": 34962
		},
		{
			"buffer": 0,
			"byteLength": 24920,
			"byteOffset": 155768,
			"target": 34962
		},
		{
			"buffer": 0,
			"byteLength": 2160,
			"byteOffset": 180688,
			"target": 34963
		},
		{
			"buffer": 0,
			"byteLength": 12960,
			"byteOffset": 182848,
			"target": 34962
		},
		{
			"buffer": 0,
			"byteLength": 12960,
			"byteOffset": 195808,
			"target": 34962
		},
		{
			"buffer": 0,
			"byteLength": 17280,
			"byteOffset": 208768,
			"target": 34962
		},
		{
			"buffer": 0,
			"byteLength": 8640,
			"byteOffset": 226048,
			"target": 34962
		},
		{
			"buffer": 0,
			"byteLength": 8640,
			"byteOffset": 234688,
			"target": 34962
		}
	],
	"images": [
		{
			"uri": "T_leaf_02.png"
		}
	],
	"materials": [
		{
			"name": "MI_matteBrown",
			"pbrMetallicRoughness":
			{
				"baseColorFactor": [
					0.0850000009,
					0.0463539995,
					0.0169520006,
					1
				],
				"metallicFactor": 0
			},
			"doubleSided": true
		},
		{
			"name": "MI_Leaf_02",
			"pbrMetallicRoughness":
			{
				"baseColorTexture":
				{
					"index": 0
				},
				"metallicFactor": 0
			},
			"alphaMode": "MASK",
			"alphaCutoff": 0.333299994,
			"doubleSided": true
		}
	],
	"meshes": [
		{
			"name": "SM_tree_04",
			"primitives": [
				{
					"attributes":
					{
						"POSITION": 1,
						"NORMAL": 2,
						"TANGENT": 3,
						"TEXCOORD_0": 4,
						"TEXCOORD_1": 5
					},
					"indices": 0,
					"material": 0
				},
				{
					"attributes":
					{
						"POSITION": 7,
						"NORMAL": 8,
						"TANGENT": 9,
						"TEXCOORD_0": 10,
						"TEXCOORD_1": 11
					},
					"indices": 6,
					"material": 1
				}
			]
		}
	],
	"nodes": [
		{
			"mesh": 0
		}
	],
	"samplers": [
		{
			"minFilter": 9987,
			"magFilter": 9729
		}
	],
	"scenes": [
		{
			"nodes": [
				0
			]
		}
	],
	"textures": [
		{
			"name": "T_leaf_02",
			"sampler": 0,
			"source": 0
		}
	]
}