{
	"asset":
	{
		"version": "2.0",
		"generator": "Unreal Engine 5.8.0"
	},
	"scene": 0,
	"accessors": [
		{
			"bufferView": 0,
			"count": 4548,
			"type": "SCALAR",
			"componentType": 5123
		},
		{
			"bufferView": 1,
			"count": 4540,
			"type": "VEC3",
			"componentType": 5126,
			"min": [
				-1.57864535,
				-9.23380469e-07,
				-1.58758903
			],
			"max": [
				1.53160369,
				15.551095,
				1.47297645
			]
		},
		{
			"bufferView": 2,
			"count": 4540,
			"type": "VEC3",
			"componentType": 5126
		},
		{
			"bufferView": 3,
			"count": 4540,
			"type": "VEC4",
			"componentType": 5126
		},
		{
			"bufferView": 4,
			"count": 4540,
			"type": "VEC2",
			"componentType": 5126
		},
		{
			"bufferView": 5,
			"count": 4540,
			"type": "VEC2",
			"componentType": 5126
		},
		{
			"bufferView": 6,
			"count": 1200,
			"type": "SCALAR",
			"componentType": 5123
		},
		{
			"bufferView": 7,
			"count": 1200,
			"type": "VEC3",
			"componentType": 5126,
			"min": [
				-2.10024977,
				3.77199054,
				-2.47756481
			],
			"max": [
				2.40417218,
				15.3119898,
				2.32731724
			]
		},
		{
			"bufferView": 8,
			"count": 1200,
			"type": "VEC3",
			"componentType": 5126
		},
		{
			"bufferView": 9,
			"count": 1200,
			"type": "VEC4",
			"componentType": 5126
		},
		{
			"bufferView": 10,
			"count": 1200,
			"type": "VEC2",
			"componentType": 5126
		},
		{
			"bufferView": 11,
			"count": 1200,
			"type": "VEC2",
			"componentType": 5126
		}
	],
	"buffers": [
		{
			"uri": "SM_tree_03.bin",
			"byteLength": 332936
		}
	],
	"bufferViews": [
		{
			"buffer": 0,
			"byteLength": 9096,
			"target": 34963
		},
		{
			"buffer": 0,
			"byteLength": 54480,
			"byteOffset": 9096,
			"target": 34962
		},
		{
			"buffer": 0,
			"byteLength": 54480,
			"byteOffset": 63576,
			"target": 34962
		},
		{
			"buffer": 0,
			"byteLength": 72640,
			"byteOffset": 118056,
			"target": 34962
		},
		{
			"buffer": 0,
			"byteLength": 36320,
			"byteOffset": 190696,
			"target": 34962
		},
		{
			"buffer": 0,
			"byteLength": 36320,
			"byteOffset": 227016,
			"target": 34962
		},
		{
			"buffer": 0,
			"byteLength": 2400,
			"byteOffset": 263336,
			"target": 34963
		},
		{
			"buffer": 0,
			"byteLength": 14400,
			"byteOffset": 265736,
			"target": 34962
		},
		{
			"buffer": 0,
			"byteLength": 14400,
			"byteOffset": 280136,
			"target": 34962
		},
		{
			"buffer": 0,
			"byteLength": 19200,
			"byteOffset": 294536,
			"target": 34962
		},
		{
			"buffer": 0,
			"byteLength": 9600,
			"byteOffset": 313736,
			"target": 34962
		},
		{
			"buffer": 0,
			"byteLength": 9600,
			"byteOffset": 323336,
			"target": 34962
		}
	],
	"images": [
		{
			"uri": "T_leaf_02.png"
		}
	],
	"materials": [
		{
			"name": "MI_matteBrown",
			"pbrMetallicRoughness":
			{
				"baseColorFactor": [
					0.0850000009,
					0.0463539995,
					0.0169520006,
					1
				],
				"metallicFactor": 0
			},
			"doubleSided": true
		},
		{
			"name": "MI_Leaf_02",
			"pbrMetallicRoughness":
			{
				"baseColorTexture":
				{
					"index": 0
				},
				"metallicFactor": 0
			},
			"alphaMode": "MASK",
			"alphaCutoff": 0.333299994,
			"doubleSided": true
		}
	],
	"meshes": [
		{
			"name": "SM_tree_03",
			"primitives": [
				{
					"attributes":
					{
						"POSITION": 1,
						"NORMAL": 2,
						"TANGENT": 3,
						"TEXCOORD_0": 4,
						"TEXCOORD_1": 5
					},
					"indices": 0,
					"material": 0
				},
				{
					"attributes":
					{
						"POSITION": 7,
						"NORMAL": 8,
						"TANGENT": 9,
						"TEXCOORD_0": 10,
						"TEXCOORD_1": 11
					},
					"indices": 6,
					"material": 1
				}
			]
		}
	],
	"nodes": [
		{
			"mesh": 0
		}
	],
	"samplers": [
		{
			"minFilter": 9987,
			"magFilter": 9729
		}
	],
	"scenes": [
		{
			"nodes": [
				0
			]
		}
	],
	"textures": [
		{
			"name": "T_leaf_02",
			"sampler": 0,
			"source": 0
		}
	]
}