{
	"asset":
	{
		"version": "2.0",
		"generator": "Unreal Engine 5.8.0"
	},
	"scene": 0,
	"accessors": [
		{
			"bufferView": 0,
			"count": 7,
			"type": "MAT4",
			"componentType": 5126
		},
		{
			"bufferView": 1,
			"count": 672,
			"type": "SCALAR",
			"componentType": 5123
		},
		{
			"bufferView": 2,
			"count": 390,
			"type": "VEC3",
			"componentType": 5126,
			"min": [
				-0.565127194,
				1.41849184,
				-1.28942537
			],
			"max": [
				1.94771039,
				3.00294495,
				1.28942609
			]
		},
		{
			"bufferView": 3,
			"count": 390,
			"type": "VEC3",
			"componentType": 5126
		},
		{
			"bufferView": 4,
			"count": 390,
			"type": "VEC4",
			"componentType": 5126
		},
		{
			"bufferView": 5,
			"count": 390,
			"type": "VEC2",
			"componentType": 5126
		},
		{
			"bufferView": 6,
			"count": 390,
			"type": "VEC4",
			"componentType": 5121
		},
		{
			"bufferView": 7,
			"count": 390,
			"type": "VEC4",
			"componentType": 5121,
			"normalized": true
		},
		{
			"bufferView": 8,
			"count": 702,
			"type": "SCALAR",
			"componentType": 5123
		},
		{
			"bufferView": 9,
			"count": 417,
			"type": "VEC3",
			"componentType": 5126,
			"min": [
				-0.566752791,
				0.85974735,
				-1.28942537
			],
			"max": [
				1.96771407,
				1.77962673,
				1.28942597
			]
		},
		{
			"bufferView": 10,
			"count": 417,
			"type": "VEC3",
			"componentType": 5126
		},
		{
			"bufferView": 11,
			"count": 417,
			"type": "VEC4",
			"componentType": 5126
		},
		{
			"bufferView": 12,
			"count": 417,
			"type": "VEC2",
			"componentType": 5126
		},
		{
			"bufferView": 13,
			"count": 417,
			"type": "VEC4",
			"componentType": 5121
		},
		{
			"bufferView": 14,
			"count": 417,
			"type": "VEC4",
			"componentType": 5121,
			"normalized": true
		},
		{
			"bufferView": 15,
			"count": 23202,
			"type": "SCALAR",
			"componentType": 5123
		},
		{
			"bufferView": 16,
			"count": 14842,
			"type": "VEC3",
			"componentType": 5126,
			"min": [
				-4.65093756,
				-0.0111058969,
				-1.63720131
			],
			"max": [
				2.04159689,
				4.00504971,
				1.63720238
			]
		},
		{
			"bufferView": 17,
			"count": 14842,
			"type": "VEC3",
			"componentType": 5126
		},
		{
			"bufferView": 18,
			"count": 14842,
			"type": "VEC4",
			"componentType": 5126
		},
		{
			"bufferView": 19,
			"count": 14842,
			"type": "VEC2",
			"componentType": 5126
		},
		{
			"bufferView": 20,
			"count": 14842,
			"type": "VEC4",
			"componentType": 5121
		},
		{
			"bufferView": 21,
			"count": 14842,
			"type": "VEC4",
			"componentType": 5121,
			"normalized": true
		},
		{
			"bufferView": 22,
			"count": 72,
			"type": "SCALAR",
			"componentType": 5121
		},
		{
			"bufferView": 23,
			"count": 32,
			"type": "VEC3",
			"componentType": 5126,
			"min": [
				0.888246357,
				2.28979635,
				-1.27347159
			],
			"max": [
				1.82250619,
				2.7353754,
				1.27352524
			]
		},
		{
			"bufferView": 24,
			"count": 32,
			"type": "VEC3",
			"componentType": 5126
		},
		{
			"bufferView": 25,
			"count": 32,
			"type": "VEC4",
			"componentType": 5126
		},
		{
			"bufferView": 26,
			"count": 32,
			"type": "VEC2",
			"componentType": 5126
		},
		{
			"bufferView": 27,
			"count": 32,
			"type": "VEC4",
			"componentType": 5121
		},
		{
			"bufferView": 28,
			"count": 32,
			"type": "VEC4",
			"componentType": 5121,
			"normalized": true
		}
	],
	"buffers": [
		{
			"uri": "SK_veh_Truck_01.bin",
			"byteLength": 927808
		}
	],
	"bufferViews": [
		{
			"buffer": 0,
			"byteLength": 448
		},
		{
			"buffer": 0,
			"byteLength": 1344,
			"byteOffset": 448,
			"target": 34963
		},
		{
			"buffer": 0,
			"byteLength": 4680,
			"byteOffset": 1792,
			"target": 34962
		},
		{
			"buffer": 0,
			"byteLength": 4680,
			"byteOffset": 6472,
			"target": 34962
		},
		{
			"buffer": 0,
			"byteLength": 6240,
			"byteOffset": 11152,
			"target": 34962
		},
		{
			"buffer": 0,
			"byteLength": 3120,
			"byteOffset": 17392,
			"target": 34962
		},
		{
			"buffer": 0,
			"byteLength": 1560,
			"byteOffset": 20512,
			"target": 34962
		},
		{
			"buffer": 0,
			"byteLength": 1560,
			"byteOffset": 22072,
			"target": 34962
		},
		{
			"buffer": 0,
			"byteLength": 1404,
			"byteOffset": 23632,
			"target": 34963
		},
		{
			"buffer": 0,
			"byteLength": 5004,
			"byteOffset": 25036,
			"target": 34962
		},
		{
			"buffer": 0,
			"byteLength": 5004,
			"byteOffset": 30040,
			"target": 34962
		},
		{
			"buffer": 0,
			"byteLength": 6672,
			"byteOffset": 35044,
			"target": 34962
		},
		{
			"buffer": 0,
			"byteLength": 3336,
			"byteOffset": 41716,
			"target": 34962
		},
		{
			"buffer": 0,
			"byteLength": 1668,
			"byteOffset": 45052,
			"target": 34962
		},
		{
			"buffer": 0,
			"byteLength": 1668,
			"byteOffset": 46720,
			"target": 34962
		},
		{
			"buffer": 0,
			"byteLength": 46404,
			"byteOffset": 48388,
			"target": 34963
		},
		{
			"buffer": 0,
			"byteLength": 178104,
			"byteOffset": 94792,
			"target": 34962
		},
		{
			"buffer": 0,
			"byteLength": 178104,
			"byteOffset": 272896,
			"target": 34962
		},
		{
			"buffer": 0,
			"byteLength": 237472,
			"byteOffset": 451000,
			"target": 34962
		},
		{
			"buffer": 0,
			"byteLength": 118736,
			"byteOffset": 688472,
			"target": 34962
		},
		{
			"buffer": 0,
			"byteLength": 59368,
			"byteOffset": 807208,
			"target": 34962
		},
		{
			"buffer": 0,
			"byteLength": 59368,
			"byteOffset": 866576,
			"target": 34962
		},
		{
			"buffer": 0,
			"byteLength": 72,
			"byteOffset": 925944,
			"target": 34963
		},
		{
			"buffer": 0,
			"byteLength": 384,
			"byteOffset": 926016,
			"target": 34962
		},
		{
			"buffer": 0,
			"byteLength": 384,
			"byteOffset": 926400,
			"target": 34962
		},
		{
			"buffer": 0,
			"byteLength": 512,
			"byteOffset": 926784,
			"target": 34962
		},
		{
			"buffer": 0,
			"byteLength": 256,
			"byteOffset": 927296,
			"target": 34962
		},
		{
			"buffer": 0,
			"byteLength": 128,
			"byteOffset": 927552,
			"target": 34962
		},
		{
			"buffer": 0,
			"byteLength": 128,
			"byteOffset": 927680,
			"target": 34962
		}
	],
	"images": [
		{
			"uri": "MI_ColorPalette_MetallicRoughness.png"
		},
		{
			"uri": "T_colorPalette2048.png"
		}
	],
	"materials": [
		{
			"name": "MI_glossyWhite",
			"pbrMetallicRoughness":
			{
				"baseColorFactor": [
					0.331874996,
					0.350784987,
					0.375,
					1
				],
				"metallicFactor": 0,
				"roughnessFactor": 0.349999994
			},
			"doubleSided": true
		},
		{
			"name": "MI_glossyBlue",
			"pbrMetallicRoughness":
			{
				"baseColorFactor": [
					0.029995,
					0.0512479991,
					0.0677080005,
					1
				],
				"metallicFactor": 0,
				"roughnessFactor": 0.349999994
			},
			"doubleSided": true
		},
		{
			"name": "MI_ColorPalette",
			"pbrMetallicRoughness":
			{
				"baseColorTexture":
				{
					"index": 0
				},
				"metallicRoughnessTexture":
				{
					"index": 1
				}
			},
			"doubleSided": true
		},
		{
			"name": "MI_GlassBasic",
			"pbrMetallicRoughness":
			{
				"baseColorFactor": [
					0,
					0,
					0,
					0.25
				],
				"metallicFactor": 0,
				"roughnessFactor": 0
			},
			"alphaMode": "BLEND",
			"doubleSided": true,
			"extensions":
			{
				"KHR_materials_specular":
				{
					"specularFactor": 10
				},
				"KHR_materials_ior":
				{
					"ior": 1
				}
			}
		}
	],
	"meshes": [
		{
			"name": "SK_veh_Truck_01",
			"primitives": [
				{
					"attributes":
					{
						"POSITION": 2,
						"NORMAL": 3,
						"TANGENT": 4,
						"TEXCOORD_0": 5,
						"JOINTS_0": 6,
						"WEIGHTS_0": 7
					},
					"indices": 1,
					"material": 0
				},
				{
					"attributes":
					{
						"POSITION": 9,
						"NORMAL": 10,
						"TANGENT": 11,
						"TEXCOORD_0": 12,
						"JOINTS_0": 13,
						"WEIGHTS_0": 14
					},
					"indices": 8,
					"material": 1
				},
				{
					"attributes":
					{
						"POSITION": 16,
						"NORMAL": 17,
						"TANGENT": 18,
						"TEXCOORD_0": 19,
						"JOINTS_0": 20,
						"WEIGHTS_0": 21
					},
					"indices": 15,
					"material": 2
				},
				{
					"attributes":
					{
						"POSITION": 23,
						"NORMAL": 24,
						"TANGENT": 25,
						"TEXCOORD_0": 26,
						"JOINTS_0": 27,
						"WEIGHTS_0": 28
					},
					"indices": 22,
					"material": 3
				}
			]
		}
	],
	"nodes": [
		{
			"skin": 0,
			"mesh": 0,
			"children": [
				1
			]
		},
		{
			"name": "carBody",
			"children": [
				2,
				3,
				4,
				5,
				6,
				7
			]
		},
		{
			"name": "wheelFR",
			"translation": [
				1.17760861,
				0.534411013,
				1.22901011
			]
		},
		{
			"name": "wheelFL",
			"translation": [
				1.17760861,
				0.534411132,
				-1.22900987
			]
		},
		{
			"name": "wheelMR",
			"translation": [
				-2.56188369,
				0.534410596,
				1.19262445
			]
		},
		{
			"name": "wheelRR",
			"translation": [
				-3.67931437,
				0.534410596,
				1.19262445
			]
		},
		{
			"name": "wheelRL",
			"translation": [
				-3.67931437,
				0.534410775,
				-1.19262445
			]
		},
		{
			"name": "wheelML",
			"translation": [
				-2.56188369,
				0.534410775,
				-1.19262445
			]
		}
	],
	"samplers": [
		{
			"minFilter": 9987,
			"magFilter": 9729
		}
	],
	"scenes": [
		{
			"nodes": [
				0
			]
		}
	],
	"skins": [
		{
			"name": "SK_veh_Truck_01",
			"inverseBindMatrices": 0,
			"skeleton": 0,
			"joints": [
				1,
				2,
				3,
				4,
				5,
				6,
				7
			]
		}
	],
	"textures": [
		{
			"name": "T_colorPalette2048",
			"sampler": 0,
			"source": 1
		},
		{
			"name": "MI_ColorPalette_MetallicRoughness",
			"sampler": 0,
			"source": 0
		}
	],
	"extensionsUsed": [
		"KHR_materials_specular",
		"KHR_materials_ior"
	]
}