{
	"asset":
	{
		"version": "2.0",
		"generator": "Unreal Engine 5.8.0"
	},
	"scene": 0,
	"accessors": [
		{
			"bufferView": 0,
			"count": 5,
			"type": "MAT4",
			"componentType": 5126
		},
		{
			"bufferView": 1,
			"count": 774,
			"type": "SCALAR",
			"componentType": 5123
		},
		{
			"bufferView": 2,
			"count": 392,
			"type": "VEC3",
			"componentType": 5126,
			"min": [
				-2.49115515,
				0.295365632,
				-1.01078522
			],
			"max": [
				2.53515339,
				1.02193618,
				1.01078522
			]
		},
		{
			"bufferView": 3,
			"count": 392,
			"type": "VEC3",
			"componentType": 5126
		},
		{
			"bufferView": 4,
			"count": 392,
			"type": "VEC4",
			"componentType": 5126
		},
		{
			"bufferView": 5,
			"count": 392,
			"type": "VEC2",
			"componentType": 5126
		},
		{
			"bufferView": 6,
			"count": 392,
			"type": "VEC4",
			"componentType": 5121
		},
		{
			"bufferView": 7,
			"count": 392,
			"type": "VEC4",
			"componentType": 5121,
			"normalized": true
		},
		{
			"bufferView": 8,
			"count": 159,
			"type": "SCALAR",
			"componentType": 5121
		},
		{
			"bufferView": 9,
			"count": 77,
			"type": "VEC3",
			"componentType": 5126,
			"min": [
				-1.37653708,
				0.951936245,
				-0.974125743
			],
			"max": [
				1.02724743,
				1.42565405,
				0.974125624
			]
		},
		{
			"bufferView": 10,
			"count": 77,
			"type": "VEC3",
			"componentType": 5126
		},
		{
			"bufferView": 11,
			"count": 77,
			"type": "VEC4",
			"componentType": 5126
		},
		{
			"bufferView": 12,
			"count": 77,
			"type": "VEC2",
			"componentType": 5126
		},
		{
			"bufferView": 13,
			"count": 77,
			"type": "VEC4",
			"componentType": 5121
		},
		{
			"bufferView": 14,
			"count": 77,
			"type": "VEC4",
			"componentType": 5121,
			"normalized": true
		},
		{
			"bufferView": 15,
			"count": 8112,
			"type": "SCALAR",
			"componentType": 5123
		},
		{
			"bufferView": 16,
			"count": 6212,
			"type": "VEC3",
			"componentType": 5126,
			"min": [
				-2.63359499,
				0.00149663782,
				-1.25939512
			],
			"max": [
				2.76899171,
				1.33174837,
				1.25939512
			]
		},
		{
			"bufferView": 17,
			"count": 6212,
			"type": "VEC3",
			"componentType": 5126
		},
		{
			"bufferView": 18,
			"count": 6212,
			"type": "VEC4",
			"componentType": 5126
		},
		{
			"bufferView": 19,
			"count": 6212,
			"type": "VEC2",
			"componentType": 5126
		},
		{
			"bufferView": 20,
			"count": 6212,
			"type": "VEC4",
			"componentType": 5121
		},
		{
			"bufferView": 21,
			"count": 6212,
			"type": "VEC4",
			"componentType": 5121,
			"normalized": true
		},
		{
			"bufferView": 22,
			"count": 48,
			"type": "SCALAR",
			"componentType": 5121
		},
		{
			"bufferView": 23,
			"count": 38,
			"type": "VEC3",
			"componentType": 5126,
			"min": [
				-1.29879069,
				0.974666715,
				-0.954891741
			],
			"max": [
				0.994333625,
				1.4029237,
				0.954891622
			]
		},
		{
			"bufferView": 24,
			"count": 38,
			"type": "VEC3",
			"componentType": 5126
		},
		{
			"bufferView": 25,
			"count": 38,
			"type": "VEC4",
			"componentType": 5126
		},
		{
			"bufferView": 26,
			"count": 38,
			"type": "VEC2",
			"componentType": 5126
		},
		{
			"bufferView": 27,
			"count": 38,
			"type": "VEC4",
			"componentType": 5121
		},
		{
			"bufferView": 28,
			"count": 38,
			"type": "VEC4",
			"componentType": 5121,
			"normalized": true
		}
	],
	"buffers": [
		{
			"uri": "SK_veh_Sedan_01.bin",
			"byteLength": 394564
		}
	],
	"bufferViews": [
		{
			"buffer": 0,
			"byteLength": 320
		},
		{
			"buffer": 0,
			"byteLength": 1548,
			"byteOffset": 320,
			"target": 34963
		},
		{
			"buffer": 0,
			"byteLength": 4704,
			"byteOffset": 1868,
			"target": 34962
		},
		{
			"buffer": 0,
			"byteLength": 4704,
			"byteOffset": 6572,
			"target": 34962
		},
		{
			"buffer": 0,
			"byteLength": 6272,
			"byteOffset": 11276,
			"target": 34962
		},
		{
			"buffer": 0,
			"byteLength": 3136,
			"byteOffset": 17548,
			"target": 34962
		},
		{
			"buffer": 0,
			"byteLength": 1568,
			"byteOffset": 20684,
			"target": 34962
		},
		{
			"buffer": 0,
			"byteLength": 1568,
			"byteOffset": 22252,
			"target": 34962
		},
		{
			"buffer": 0,
			"byteLength": 159,
			"byteOffset": 23820,
			"target": 34963
		},
		{
			"buffer": 0,
			"byteLength": 924,
			"byteOffset": 23980,
			"target": 34962
		},
		{
			"buffer": 0,
			"byteLength": 924,
			"byteOffset": 24904,
			"target": 34962
		},
		{
			"buffer": 0,
			"byteLength": 1232,
			"byteOffset": 25828,
			"target": 34962
		},
		{
			"buffer": 0,
			"byteLength": 616,
			"byteOffset": 27060,
			"target": 34962
		},
		{
			"buffer": 0,
			"byteLength": 308,
			"byteOffset": 27676,
			"target": 34962
		},
		{
			"buffer": 0,
			"byteLength": 308,
			"byteOffset": 27984,
			"target": 34962
		},
		{
			"buffer": 0,
			"byteLength": 16224,
			"byteOffset": 28292,
			"target": 34963
		},
		{
			"buffer": 0,
			"byteLength": 74544,
			"byteOffset": 44516,
			"target": 34962
		},
		{
			"buffer": 0,
			"byteLength": 74544,
			"byteOffset": 119060,
			"target": 34962
		},
		{
			"buffer": 0,
			"byteLength": 99392,
			"byteOffset": 193604,
			"target": 34962
		},
		{
			"buffer": 0,
			"byteLength": 49696,
			"byteOffset": 292996,
			"target": 34962
		},
		{
			"buffer": 0,
			"byteLength": 24848,
			"byteOffset": 342692,
			"target": 34962
		},
		{
			"buffer": 0,
			"byteLength": 24848,
			"byteOffset": 367540,
			"target": 34962
		},
		{
			"buffer": 0,
			"byteLength": 48,
			"byteOffset": 392388,
			"target": 34963
		},
		{
			"buffer": 0,
			"byteLength": 456,
			"byteOffset": 392436,
			"target": 34962
		},
		{
			"buffer": 0,
			"byteLength": 456,
			"byteOffset": 392892,
			"target": 34962
		},
		{
			"buffer": 0,
			"byteLength": 608,
			"byteOffset": 393348,
			"target": 34962
		},
		{
			"buffer": 0,
			"byteLength": 304,
			"byteOffset": 393956,
			"target": 34962
		},
		{
			"buffer": 0,
			"byteLength": 152,
			"byteOffset": 394260,
			"target": 34962
		},
		{
			"buffer": 0,
			"byteLength": 152,
			"byteOffset": 394412,
			"target": 34962
		}
	],
	"images": [
		{
			"uri": "MI_ColorPalette_MetallicRoughness.png"
		},
		{
			"uri": "T_colorPalette2048.png"
		}
	],
	"materials": [
		{
			"name": "MI_glossyBlue",
			"pbrMetallicRoughness":
			{
				"baseColorFactor": [
					0.029995,
					0.0512479991,
					0.0677080005,
					1
				],
				"metallicFactor": 0,
				"roughnessFactor": 0.349999994
			},
			"doubleSided": true
		},
		{
			"name": "MI_glossyWhite",
			"pbrMetallicRoughness":
			{
				"baseColorFactor": [
					0.331874996,
					0.350784987,
					0.375,
					1
				],
				"metallicFactor": 0,
				"roughnessFactor": 0.349999994
			},
			"doubleSided": true
		},
		{
			"name": "MI_ColorPalette",
			"pbrMetallicRoughness":
			{
				"baseColorTexture":
				{
					"index": 0
				},
				"metallicRoughnessTexture":
				{
					"index": 1
				}
			},
			"doubleSided": true
		},
		{
			"name": "MI_GlassBasic",
			"pbrMetallicRoughness":
			{
				"baseColorFactor": [
					0,
					0,
					0,
					0.25
				],
				"metallicFactor": 0,
				"roughnessFactor": 0
			},
			"alphaMode": "BLEND",
			"doubleSided": true,
			"extensions":
			{
				"KHR_materials_specular":
				{
					"specularFactor": 10
				},
				"KHR_materials_ior":
				{
					"ior": 1
				}
			}
		}
	],
	"meshes": [
		{
			"name": "SK_veh_Sedan_01",
			"primitives": [
				{
					"attributes":
					{
						"POSITION": 2,
						"NORMAL": 3,
						"TANGENT": 4,
						"TEXCOORD_0": 5,
						"JOINTS_0": 6,
						"WEIGHTS_0": 7
					},
					"indices": 1,
					"material": 0
				},
				{
					"attributes":
					{
						"POSITION": 9,
						"NORMAL": 10,
						"TANGENT": 11,
						"TEXCOORD_0": 12,
						"JOINTS_0": 13,
						"WEIGHTS_0": 14
					},
					"indices": 8,
					"material": 1
				},
				{
					"attributes":
					{
						"POSITION": 16,
						"NORMAL": 17,
						"TANGENT": 18,
						"TEXCOORD_0": 19,
						"JOINTS_0": 20,
						"WEIGHTS_0": 21
					},
					"indices": 15,
					"material": 2
				},
				{
					"attributes":
					{
						"POSITION": 23,
						"NORMAL": 24,
						"TANGENT": 25,
						"TEXCOORD_0": 26,
						"JOINTS_0": 27,
						"WEIGHTS_0": 28
					},
					"indices": 22,
					"material": 3
				}
			]
		}
	],
	"nodes": [
		{
			"skin": 0,
			"mesh": 0,
			"children": [
				1
			]
		},
		{
			"name": "carBody",
			"children": [
				2,
				3,
				4,
				5
			]
		},
		{
			"name": "wheelRR",
			"translation": [
				-1.32113051,
				0.348836422,
				0.887247145
			]
		},
		{
			"name": "wheelRL",
			"translation": [
				-1.32113039,
				0.348836422,
				-0.886378467
			]
		},
		{
			"name": "wheelFR",
			"translation": [
				1.63141596,
				0.348836422,
				0.887247324
			]
		},
		{
			"name": "wheelFL",
			"translation": [
				1.63141596,
				0.348836422,
				-0.886378467
			]
		}
	],
	"samplers": [
		{
			"minFilter": 9987,
			"magFilter": 9729
		}
	],
	"scenes": [
		{
			"nodes": [
				0
			]
		}
	],
	"skins": [
		{
			"name": "SK_veh_Sedan_01",
			"inverseBindMatrices": 0,
			"skeleton": 0,
			"joints": [
				1,
				2,
				3,
				4,
				5
			]
		}
	],
	"textures": [
		{
			"name": "T_colorPalette2048",
			"sampler": 0,
			"source": 1
		},
		{
			"name": "MI_ColorPalette_MetallicRoughness",
			"sampler": 0,
			"source": 0
		}
	],
	"extensionsUsed": [
		"KHR_materials_specular",
		"KHR_materials_ior"
	]
}