{
	"asset":
	{
		"version": "2.0",
		"generator": "Unreal Engine 5.8.0"
	},
	"scene": 0,
	"accessors": [
		{
			"bufferView": 0,
			"count": 5,
			"type": "MAT4",
			"componentType": 5126
		},
		{
			"bufferView": 1,
			"count": 774,
			"type": "SCALAR",
			"componentType": 5123
		},
		{
			"bufferView": 2,
			"count": 486,
			"type": "VEC3",
			"componentType": 5126,
			"min": [
				-2.45743656,
				0.574913561,
				-1.01458406
			],
			"max": [
				2.24645877,
				1.95141721,
				1.01458406
			]
		},
		{
			"bufferView": 3,
			"count": 486,
			"type": "VEC3",
			"componentType": 5126
		},
		{
			"bufferView": 4,
			"count": 486,
			"type": "VEC4",
			"componentType": 5126
		},
		{
			"bufferView": 5,
			"count": 486,
			"type": "VEC2",
			"componentType": 5126
		},
		{
			"bufferView": 6,
			"count": 486,
			"type": "VEC4",
			"componentType": 5121
		},
		{
			"bufferView": 7,
			"count": 486,
			"type": "VEC4",
			"componentType": 5121,
			"normalized": true
		},
		{
			"bufferView": 8,
			"count": 9591,
			"type": "SCALAR",
			"componentType": 5123
		},
		{
			"bufferView": 9,
			"count": 7303,
			"type": "VEC3",
			"componentType": 5126,
			"min": [
				-2.57546997,
				-0.0191913974,
				-1.19005799
			],
			"max": [
				2.44431973,
				2.262146,
				1.19005799
			]
		},
		{
			"bufferView": 10,
			"count": 7303,
			"type": "VEC3",
			"componentType": 5126
		},
		{
			"bufferView": 11,
			"count": 7303,
			"type": "VEC4",
			"componentType": 5126
		},
		{
			"bufferView": 12,
			"count": 7303,
			"type": "VEC2",
			"componentType": 5126
		},
		{
			"bufferView": 13,
			"count": 7303,
			"type": "VEC4",
			"componentType": 5121
		},
		{
			"bufferView": 14,
			"count": 7303,
			"type": "VEC4",
			"componentType": 5121,
			"normalized": true
		},
		{
			"bufferView": 15,
			"count": 60,
			"type": "SCALAR",
			"componentType": 5121
		},
		{
			"bufferView": 16,
			"count": 38,
			"type": "VEC3",
			"componentType": 5126,
			"min": [
				-2.25052285,
				1.33611453,
				-0.897002697
			],
			"max": [
				0.929320216,
				1.84748411,
				0.897002697
			]
		},
		{
			"bufferView": 17,
			"count": 38,
			"type": "VEC3",
			"componentType": 5126
		},
		{
			"bufferView": 18,
			"count": 38,
			"type": "VEC4",
			"componentType": 5126
		},
		{
			"bufferView": 19,
			"count": 38,
			"type": "VEC2",
			"componentType": 5126
		},
		{
			"bufferView": 20,
			"count": 38,
			"type": "VEC4",
			"componentType": 5121
		},
		{
			"bufferView": 21,
			"count": 38,
			"type": "VEC4",
			"componentType": 5121,
			"normalized": true
		}
	],
	"buffers": [
		{
			"uri": "SK_veh_PoliceCarSUV_01.bin",
			"byteLength": 459424
		}
	],
	"bufferViews": [
		{
			"buffer": 0,
			"byteLength": 320
		},
		{
			"buffer": 0,
			"byteLength": 1548,
			"byteOffset": 320,
			"target": 34963
		},
		{
			"buffer": 0,
			"byteLength": 5832,
			"byteOffset": 1868,
			"target": 34962
		},
		{
			"buffer": 0,
			"byteLength": 5832,
			"byteOffset": 7700,
			"target": 34962
		},
		{
			"buffer": 0,
			"byteLength": 7776,
			"byteOffset": 13532,
			"target": 34962
		},
		{
			"buffer": 0,
			"byteLength": 3888,
			"byteOffset": 21308,
			"target": 34962
		},
		{
			"buffer": 0,
			"byteLength": 1944,
			"byteOffset": 25196,
			"target": 34962
		},
		{
			"buffer": 0,
			"byteLength": 1944,
			"byteOffset": 27140,
			"target": 34962
		},
		{
			"buffer": 0,
			"byteLength": 19182,
			"byteOffset": 29084,
			"target": 34963
		},
		{
			"buffer": 0,
			"byteLength": 87636,
			"byteOffset": 48268,
			"target": 34962
		},
		{
			"buffer": 0,
			"byteLength": 87636,
			"byteOffset": 135904,
			"target": 34962
		},
		{
			"buffer": 0,
			"byteLength": 116848,
			"byteOffset": 223540,
			"target": 34962
		},
		{
			"buffer": 0,
			"byteLength": 58424,
			"byteOffset": 340388,
			"target": 34962
		},
		{
			"buffer": 0,
			"byteLength": 29212,
			"byteOffset": 398812,
			"target": 34962
		},
		{
			"buffer": 0,
			"byteLength": 29212,
			"byteOffset": 428024,
			"target": 34962
		},
		{
			"buffer": 0,
			"byteLength": 60,
			"byteOffset": 457236,
			"target": 34963
		},
		{
			"buffer": 0,
			"byteLength": 456,
			"byteOffset": 457296,
			"target": 34962
		},
		{
			"buffer": 0,
			"byteLength": 456,
			"byteOffset": 457752,
			"target": 34962
		},
		{
			"buffer": 0,
			"byteLength": 608,
			"byteOffset": 458208,
			"target": 34962
		},
		{
			"buffer": 0,
			"byteLength": 304,
			"byteOffset": 458816,
			"target": 34962
		},
		{
			"buffer": 0,
			"byteLength": 152,
			"byteOffset": 459120,
			"target": 34962
		},
		{
			"buffer": 0,
			"byteLength": 152,
			"byteOffset": 459272,
			"target": 34962
		}
	],
	"images": [
		{
			"uri": "MI_PoliceCar_01_BaseColor.png"
		},
		{
			"uri": "MI_ColorPalette_MetallicRoughness.png"
		},
		{
			"uri": "T_colorPalette2048.png"
		}
	],
	"materials": [
		{
			"name": "MI_PoliceCar_01",
			"pbrMetallicRoughness":
			{
				"baseColorTexture":
				{
					"index": 0
				},
				"metallicFactor": 0,
				"roughnessFactor": 0.349019617
			},
			"doubleSided": true
		},
		{
			"name": "MI_ColorPalette",
			"pbrMetallicRoughness":
			{
				"baseColorTexture":
				{
					"index": 1
				},
				"metallicRoughnessTexture":
				{
					"index": 2
				}
			},
			"doubleSided": true
		},
		{
			"name": "MI_GlassBasic",
			"pbrMetallicRoughness":
			{
				"baseColorFactor": [
					0,
					0,
					0,
					0.25
				],
				"metallicFactor": 0,
				"roughnessFactor": 0
			},
			"alphaMode": "BLEND",
			"doubleSided": true,
			"extensions":
			{
				"KHR_materials_specular":
				{
					"specularFactor": 10
				},
				"KHR_materials_ior":
				{
					"ior": 1
				}
			}
		}
	],
	"meshes": [
		{
			"name": "SK_veh_PoliceCarSUV_01",
			"primitives": [
				{
					"attributes":
					{
						"POSITION": 2,
						"NORMAL": 3,
						"TANGENT": 4,
						"TEXCOORD_0": 5,
						"JOINTS_0": 6,
						"WEIGHTS_0": 7
					},
					"indices": 1,
					"material": 0
				},
				{
					"attributes":
					{
						"POSITION": 9,
						"NORMAL": 10,
						"TANGENT": 11,
						"TEXCOORD_0": 12,
						"JOINTS_0": 13,
						"WEIGHTS_0": 14
					},
					"indices": 8,
					"material": 1
				},
				{
					"attributes":
					{
						"POSITION": 16,
						"NORMAL": 17,
						"TANGENT": 18,
						"TEXCOORD_0": 19,
						"JOINTS_0": 20,
						"WEIGHTS_0": 21
					},
					"indices": 15,
					"material": 2
				}
			]
		}
	],
	"nodes": [
		{
			"skin": 0,
			"mesh": 0,
			"children": [
				1
			]
		},
		{
			"name": "carBody",
			"children": [
				2,
				3,
				4,
				5
			]
		},
		{
			"name": "wheelRR",
			"translation": [
				-1.42384398,
				0.376849294,
				0.83783561
			]
		},
		{
			"name": "wheelRL",
			"translation": [
				-1.42384398,
				0.376849294,
				-0.83783561
			]
		},
		{
			"name": "wheelFR",
			"translation": [
				1.60391569,
				0.376849294,
				0.83783561
			]
		},
		{
			"name": "wheelFL",
			"translation": [
				1.60391569,
				0.376849294,
				-0.83783561
			]
		}
	],
	"samplers": [
		{
			"minFilter": 9987,
			"magFilter": 9729
		}
	],
	"scenes": [
		{
			"nodes": [
				0
			]
		}
	],
	"skins": [
		{
			"name": "SK_veh_PoliceCarSUV_01",
			"inverseBindMatrices": 0,
			"skeleton": 0,
			"joints": [
				1,
				2,
				3,
				4,
				5
			]
		}
	],
	"textures": [
		{
			"name": "MI_PoliceCar_01_BaseColor",
			"sampler": 0,
			"source": 0
		},
		{
			"name": "T_colorPalette2048",
			"sampler": 0,
			"source": 2
		},
		{
			"name": "MI_ColorPalette_MetallicRoughness",
			"sampler": 0,
			"source": 1
		}
	],
	"extensionsUsed": [
		"KHR_materials_specular",
		"KHR_materials_ior"
	]
}