{
	"asset":
	{
		"version": "2.0",
		"generator": "Unreal Engine 5.8.0"
	},
	"scene": 0,
	"accessors": [
		{
			"bufferView": 0,
			"count": 5,
			"type": "MAT4",
			"componentType": 5126
		},
		{
			"bufferView": 1,
			"count": 393,
			"type": "SCALAR",
			"componentType": 5123
		},
		{
			"bufferView": 2,
			"count": 265,
			"type": "VEC3",
			"componentType": 5126,
			"min": [
				-2.45743656,
				0.574913561,
				-1.01458406
			],
			"max": [
				2.24645877,
				1.88363826,
				1.01458406
			]
		},
		{
			"bufferView": 3,
			"count": 265,
			"type": "VEC3",
			"componentType": 5126
		},
		{
			"bufferView": 4,
			"count": 265,
			"type": "VEC4",
			"componentType": 5126
		},
		{
			"bufferView": 5,
			"count": 265,
			"type": "VEC2",
			"componentType": 5126
		},
		{
			"bufferView": 6,
			"count": 265,
			"type": "VEC4",
			"componentType": 5121
		},
		{
			"bufferView": 7,
			"count": 265,
			"type": "VEC4",
			"componentType": 5121,
			"normalized": true
		},
		{
			"bufferView": 8,
			"count": 114,
			"type": "SCALAR",
			"componentType": 5121
		},
		{
			"bufferView": 9,
			"count": 58,
			"type": "VEC3",
			"componentType": 5126,
			"min": [
				-2.45743656,
				0.772205651,
				-0.97313261
			],
			"max": [
				2.22964525,
				1.08500755,
				0.955903828
			]
		},
		{
			"bufferView": 10,
			"count": 58,
			"type": "VEC3",
			"componentType": 5126
		},
		{
			"bufferView": 11,
			"count": 58,
			"type": "VEC4",
			"componentType": 5126
		},
		{
			"bufferView": 12,
			"count": 58,
			"type": "VEC2",
			"componentType": 5126
		},
		{
			"bufferView": 13,
			"count": 58,
			"type": "VEC4",
			"componentType": 5121
		},
		{
			"bufferView": 14,
			"count": 58,
			"type": "VEC4",
			"componentType": 5121,
			"normalized": true
		},
		{
			"bufferView": 15,
			"count": 8262,
			"type": "SCALAR",
			"componentType": 5123
		},
		{
			"bufferView": 16,
			"count": 6237,
			"type": "VEC3",
			"componentType": 5126,
			"min": [
				-2.57546997,
				-0.0170629118,
				-1.19005799
			],
			"max": [
				2.35539365,
				2.00182986,
				1.19005799
			]
		},
		{
			"bufferView": 17,
			"count": 6237,
			"type": "VEC3",
			"componentType": 5126
		},
		{
			"bufferView": 18,
			"count": 6237,
			"type": "VEC4",
			"componentType": 5126
		},
		{
			"bufferView": 19,
			"count": 6237,
			"type": "VEC2",
			"componentType": 5126
		},
		{
			"bufferView": 20,
			"count": 6237,
			"type": "VEC4",
			"componentType": 5121
		},
		{
			"bufferView": 21,
			"count": 6237,
			"type": "VEC4",
			"componentType": 5121,
			"normalized": true
		},
		{
			"bufferView": 22,
			"count": 60,
			"type": "SCALAR",
			"componentType": 5121
		},
		{
			"bufferView": 23,
			"count": 38,
			"type": "VEC3",
			"componentType": 5126,
			"min": [
				-2.25052285,
				1.33611453,
				-0.897002697
			],
			"max": [
				0.929320216,
				1.84748411,
				0.897002697
			]
		},
		{
			"bufferView": 24,
			"count": 38,
			"type": "VEC3",
			"componentType": 5126
		},
		{
			"bufferView": 25,
			"count": 38,
			"type": "VEC4",
			"componentType": 5126
		},
		{
			"bufferView": 26,
			"count": 38,
			"type": "VEC2",
			"componentType": 5126
		},
		{
			"bufferView": 27,
			"count": 38,
			"type": "VEC4",
			"componentType": 5121
		},
		{
			"bufferView": 28,
			"count": 38,
			"type": "VEC4",
			"componentType": 5121,
			"normalized": true
		},
		{
			"bufferView": 29,
			"count": 267,
			"type": "SCALAR",
			"componentType": 5121
		},
		{
			"bufferView": 30,
			"count": 167,
			"type": "VEC3",
			"componentType": 5126,
			"min": [
				-2.41664457,
				1.29996026,
				-0.910587907
			],
			"max": [
				-0.318251818,
				1.95141721,
				0.910588384
			]
		},
		{
			"bufferView": 31,
			"count": 167,
			"type": "VEC3",
			"componentType": 5126
		},
		{
			"bufferView": 32,
			"count": 167,
			"type": "VEC4",
			"componentType": 5126
		},
		{
			"bufferView": 33,
			"count": 167,
			"type": "VEC2",
			"componentType": 5126
		},
		{
			"bufferView": 34,
			"count": 167,
			"type": "VEC4",
			"componentType": 5121
		},
		{
			"bufferView": 35,
			"count": 167,
			"type": "VEC4",
			"componentType": 5121,
			"normalized": true
		}
	],
	"buffers": [
		{
			"uri": "SK_veh_SUV_01.bin",
			"byteLength": 396916
		}
	],
	"bufferViews": [
		{
			"buffer": 0,
			"byteLength": 320
		},
		{
			"buffer": 0,
			"byteLength": 786,
			"byteOffset": 320,
			"target": 34963
		},
		{
			"buffer": 0,
			"byteLength": 3180,
			"byteOffset": 1108,
			"target": 34962
		},
		{
			"buffer": 0,
			"byteLength": 3180,
			"byteOffset": 4288,
			"target": 34962
		},
		{
			"buffer": 0,
			"byteLength": 4240,
			"byteOffset": 7468,
			"target": 34962
		},
		{
			"buffer": 0,
			"byteLength": 2120,
			"byteOffset": 11708,
			"target": 34962
		},
		{
			"buffer": 0,
			"byteLength": 1060,
			"byteOffset": 13828,
			"target": 34962
		},
		{
			"buffer": 0,
			"byteLength": 1060,
			"byteOffset": 14888,
			"target": 34962
		},
		{
			"buffer": 0,
			"byteLength": 114,
			"byteOffset": 15948,
			"target": 34963
		},
		{
			"buffer": 0,
			"byteLength": 696,
			"byteOffset": 16064,
			"target": 34962
		},
		{
			"buffer": 0,
			"byteLength": 696,
			"byteOffset": 16760,
			"target": 34962
		},
		{
			"buffer": 0,
			"byteLength": 928,
			"byteOffset": 17456,
			"target": 34962
		},
		{
			"buffer": 0,
			"byteLength": 464,
			"byteOffset": 18384,
			"target": 34962
		},
		{
			"buffer": 0,
			"byteLength": 232,
			"byteOffset": 18848,
			"target": 34962
		},
		{
			"buffer": 0,
			"byteLength": 232,
			"byteOffset": 19080,
			"target": 34962
		},
		{
			"buffer": 0,
			"byteLength": 16524,
			"byteOffset": 19312,
			"target": 34963
		},
		{
			"buffer": 0,
			"byteLength": 74844,
			"byteOffset": 35836,
			"target": 34962
		},
		{
			"buffer": 0,
			"byteLength": 74844,
			"byteOffset": 110680,
			"target": 34962
		},
		{
			"buffer": 0,
			"byteLength": 99792,
			"byteOffset": 185524,
			"target": 34962
		},
		{
			"buffer": 0,
			"byteLength": 49896,
			"byteOffset": 285316,
			"target": 34962
		},
		{
			"buffer": 0,
			"byteLength": 24948,
			"byteOffset": 335212,
			"target": 34962
		},
		{
			"buffer": 0,
			"byteLength": 24948,
			"byteOffset": 360160,
			"target": 34962
		},
		{
			"buffer": 0,
			"byteLength": 60,
			"byteOffset": 385108,
			"target": 34963
		},
		{
			"buffer": 0,
			"byteLength": 456,
			"byteOffset": 385168,
			"target": 34962
		},
		{
			"buffer": 0,
			"byteLength": 456,
			"byteOffset": 385624,
			"target": 34962
		},
		{
			"buffer": 0,
			"byteLength": 608,
			"byteOffset": 386080,
			"target": 34962
		},
		{
			"buffer": 0,
			"byteLength": 304,
			"byteOffset": 386688,
			"target": 34962
		},
		{
			"buffer": 0,
			"byteLength": 152,
			"byteOffset": 386992,
			"target": 34962
		},
		{
			"buffer": 0,
			"byteLength": 152,
			"byteOffset": 387144,
			"target": 34962
		},
		{
			"buffer": 0,
			"byteLength": 267,
			"byteOffset": 387296,
			"target": 34963
		},
		{
			"buffer": 0,
			"byteLength": 2004,
			"byteOffset": 387564,
			"target": 34962
		},
		{
			"buffer": 0,
			"byteLength": 2004,
			"byteOffset": 389568,
			"target": 34962
		},
		{
			"buffer": 0,
			"byteLength": 2672,
			"byteOffset": 391572,
			"target": 34962
		},
		{
			"buffer": 0,
			"byteLength": 1336,
			"byteOffset": 394244,
			"target": 34962
		},
		{
			"buffer": 0,
			"byteLength": 668,
			"byteOffset": 395580,
			"target": 34962
		},
		{
			"buffer": 0,
			"byteLength": 668,
			"byteOffset": 396248,
			"target": 34962
		}
	],
	"images": [
		{
			"uri": "MI_ColorPalette_MetallicRoughness.png"
		},
		{
			"uri": "T_colorPalette2048.png"
		}
	],
	"materials": [
		{
			"name": "MI_glossyBlack",
			"pbrMetallicRoughness":
			{
				"baseColorFactor": [
					0,
					0,
					0,
					1
				],
				"metallicFactor": 0,
				"roughnessFactor": 0.349999994
			},
			"doubleSided": true
		},
		{
			"name": "MI_glossyOrange",
			"pbrMetallicRoughness":
			{
				"baseColorFactor": [
					0.520833015,
					0.141148001,
					0,
					1
				],
				"metallicFactor": 0,
				"roughnessFactor": 0.349999994
			},
			"doubleSided": true
		},
		{
			"name": "MI_ColorPalette",
			"pbrMetallicRoughness":
			{
				"baseColorTexture":
				{
					"index": 0
				},
				"metallicRoughnessTexture":
				{
					"index": 1
				}
			},
			"doubleSided": true
		},
		{
			"name": "MI_GlassBasic",
			"pbrMetallicRoughness":
			{
				"baseColorFactor": [
					0,
					0,
					0,
					0.25
				],
				"metallicFactor": 0,
				"roughnessFactor": 0
			},
			"alphaMode": "BLEND",
			"doubleSided": true,
			"extensions":
			{
				"KHR_materials_specular":
				{
					"specularFactor": 10
				},
				"KHR_materials_ior":
				{
					"ior": 1
				}
			}
		},
		{
			"name": "MI_glossyWhite",
			"pbrMetallicRoughness":
			{
				"baseColorFactor": [
					0.331874996,
					0.350784987,
					0.375,
					1
				],
				"metallicFactor": 0,
				"roughnessFactor": 0.349999994
			},
			"doubleSided": true
		}
	],
	"meshes": [
		{
			"name": "SK_veh_SUV_01",
			"primitives": [
				{
					"attributes":
					{
						"POSITION": 2,
						"NORMAL": 3,
						"TANGENT": 4,
						"TEXCOORD_0": 5,
						"JOINTS_0": 6,
						"WEIGHTS_0": 7
					},
					"indices": 1,
					"material": 0
				},
				{
					"attributes":
					{
						"POSITION": 9,
						"NORMAL": 10,
						"TANGENT": 11,
						"TEXCOORD_0": 12,
						"JOINTS_0": 13,
						"WEIGHTS_0": 14
					},
					"indices": 8,
					"material": 1
				},
				{
					"attributes":
					{
						"POSITION": 16,
						"NORMAL": 17,
						"TANGENT": 18,
						"TEXCOORD_0": 19,
						"JOINTS_0": 20,
						"WEIGHTS_0": 21
					},
					"indices": 15,
					"material": 2
				},
				{
					"attributes":
					{
						"POSITION": 23,
						"NORMAL": 24,
						"TANGENT": 25,
						"TEXCOORD_0": 26,
						"JOINTS_0": 27,
						"WEIGHTS_0": 28
					},
					"indices": 22,
					"material": 3
				},
				{
					"attributes":
					{
						"POSITION": 30,
						"NORMAL": 31,
						"TANGENT": 32,
						"TEXCOORD_0": 33,
						"JOINTS_0": 34,
						"WEIGHTS_0": 35
					},
					"indices": 29,
					"material": 4
				}
			]
		}
	],
	"nodes": [
		{
			"skin": 0,
			"mesh": 0,
			"children": [
				1
			]
		},
		{
			"name": "carBody",
			"children": [
				2,
				3,
				4,
				5
			]
		},
		{
			"name": "wheelRR",
			"translation": [
				-1.42384398,
				0.376849294,
				0.83783561
			]
		},
		{
			"name": "wheelFR",
			"translation": [
				1.60391569,
				0.376849294,
				0.83783561
			]
		},
		{
			"name": "wheelFL",
			"translation": [
				1.60391569,
				0.376849294,
				-0.83783561
			]
		},
		{
			"name": "wheelRL",
			"translation": [
				-1.42384398,
				0.376849294,
				-0.83783561
			]
		}
	],
	"samplers": [
		{
			"minFilter": 9987,
			"magFilter": 9729
		}
	],
	"scenes": [
		{
			"nodes": [
				0
			]
		}
	],
	"skins": [
		{
			"name": "SK_veh_SUV_01",
			"inverseBindMatrices": 0,
			"skeleton": 0,
			"joints": [
				1,
				2,
				3,
				4,
				5
			]
		}
	],
	"textures": [
		{
			"name": "T_colorPalette2048",
			"sampler": 0,
			"source": 1
		},
		{
			"name": "MI_ColorPalette_MetallicRoughness",
			"sampler": 0,
			"source": 0
		}
	],
	"extensionsUsed": [
		"KHR_materials_specular",
		"KHR_materials_ior"
	]
}